<?xml version="1.0" standalone="no"?>
<!DOCTYPE svg PUBLIC "-//W3C//DTD SVG 20010904//EN"
 "http://www.w3.org/TR/2001/REC-SVG-20010904/DTD/svg10.dtd">
<svg version="1.0" xmlns="http://www.w3.org/2000/svg"
 width="600.000000pt" height="600.000000pt" viewBox="0 0 600.000000 600.000000"
 preserveAspectRatio="xMidYMid meet">
<metadata>
Created by potrace 1.16, written by Peter Selinger 2001-2019
</metadata>
<g transform="translate(0.000000,600.000000) scale(0.100000,-0.100000)"
fill="#000000" stroke="none">
<path d="M2609 5538 c-212 -123 -748 -432 -1192 -688 l-806 -465 -1 -1385 0
-1385 108 -62 c59 -34 595 -343 1191 -688 597 -344 1090 -624 1096 -623 7 2
546 311 1198 688 l1187 685 0 1385 0 1385 -1183 682 c-650 375 -1189 685
-1197 688 -9 3 -179 -90 -401 -217z m1093 -574 l98 -56 0 -117 -1 -116 -100
-57 -101 -57 -99 57 -100 57 3 118 3 119 90 53 c50 29 94 54 99 54 5 1 54 -24
108 -55z m-1289 5 c58 -16 71 -45 78 -178 4 -64 10 -126 14 -138 6 -18 2 -25
-20 -35 -25 -11 -29 -10 -42 9 l-15 22 -27 -20 c-36 -26 -102 -35 -141 -19
-64 27 -80 117 -31 172 29 32 32 33 110 33 l81 0 0 28 c0 66 -49 88 -135 63
-53 -16 -65 -14 -65 13 0 25 19 39 66 50 54 12 83 13 127 0z m847 -9 c12 -6
20 -21 20 -37 0 -21 -3 -24 -22 -19 -67 19 -103 18 -128 -2 -35 -29 -18 -52
61 -80 78 -27 109 -59 109 -110 0 -70 -55 -112 -145 -112 -68 0 -115 23 -115
56 0 23 3 25 23 19 12 -4 45 -9 73 -12 65 -7 96 8 92 45 -2 22 -12 30 -53 44
-126 45 -158 87 -123 164 25 55 141 80 208 44z m-662 -7 c5 -10 22 -69 37
-131 16 -62 32 -107 35 -100 4 7 17 58 30 113 29 129 33 137 73 133 l32 -3 31
-122 c17 -68 33 -125 36 -128 3 -3 18 45 33 107 35 142 38 148 77 148 29 0 30
-2 25 -33 -3 -18 -26 -99 -52 -180 l-47 -147 -34 0 c-39 0 -44 8 -69 110 -9
36 -21 83 -27 105 l-11 40 -31 -125 -31 -125 -39 0 -40 0 -48 155 c-58 187
-59 200 -18 200 18 0 33 -7 38 -17z m620 -460 c2 -9 -8 -13 -31 -13 -38 0 -47
-12 -47 -61 l0 -29 75 0 75 0 0 -115 c0 -96 -3 -115 -15 -115 -12 0 -15 18
-15 105 l0 105 -60 0 -60 0 0 -105 c0 -87 -3 -105 -15 -105 -12 0 -15 18 -15
105 0 98 -1 105 -20 105 -11 0 -20 5 -20 10 0 6 9 10 20 10 17 0 20 7 20 42 0
55 23 80 69 76 19 -2 36 -9 39 -15z m582 -163 l0 -169 -27 0 c-16 0 -43 -3
-61 -7 -69 -14 -122 39 -122 121 0 99 73 149 163 110 15 -6 17 0 17 54 0 48 3
61 15 61 13 0 15 -26 15 -170z m-1245 64 c22 -9 45 -57 45 -94 l0 -30 -86 0
-86 0 6 -27 c12 -48 43 -66 104 -60 39 4 52 2 52 -8 0 -17 -23 -25 -76 -25
-56 0 -79 12 -99 50 -18 36 -19 116 -1 149 23 42 91 64 141 45z m970 -19 c18
-18 25 -35 25 -65 l0 -40 -86 0 -86 0 6 -27 c12 -48 43 -66 104 -60 39 4 52 2
52 -8 0 -7 -7 -16 -16 -19 -30 -11 -105 -6 -129 10 -62 41 -57 191 8 222 41
20 96 14 122 -13z m935 -495 c0 -7 -492 -10 -1455 -10 -963 0 -1455 3 -1455
10 0 7 492 10 1455 10 963 0 1455 -3 1455 -10z m-1788 -487 c3 -176 3 -178 26
-181 18 -3 22 -10 22 -41 0 -37 -2 -39 -39 -45 -46 -7 -98 9 -111 34 -6 11
-10 106 -10 214 l0 196 55 0 55 0 2 -177z m1098 -43 l0 -220 -49 0 c-28 0 -51
5 -53 11 -3 9 -9 9 -25 0 -31 -16 -105 -14 -131 5 -36 25 -53 70 -53 139 0 67
14 107 51 140 17 15 36 20 81 20 l59 -1 0 63 0 63 60 0 60 0 0 -220z m-1282
194 c18 -5 22 -13 22 -50 l0 -43 -70 2 c-64 2 -72 0 -97 -26 -24 -24 -28 -35
-28 -87 0 -52 4 -63 28 -87 25 -26 33 -28 97 -26 l70 2 0 -44 c0 -52 -6 -55
-106 -55 -87 0 -130 15 -166 58 -37 45 -51 94 -46 172 7 126 74 189 203 189
39 1 80 -2 93 -5z m510 -120 c87 -64 82 -225 -9 -279 -45 -26 -133 -26 -177 1
-48 28 -75 92 -70 160 5 63 29 101 79 127 45 24 138 19 177 -9z m222 -86 c0
-57 4 -109 9 -116 4 -8 19 -12 32 -10 23 3 24 5 27 116 l3 112 60 0 60 0 -3
-152 -3 -153 -44 -3 c-32 -2 -47 1 -53 12 -8 14 -11 14 -34 -1 -40 -26 -107
-23 -138 6 -25 24 -26 27 -26 158 l0 133 55 0 55 0 0 -102z m-1617 -401 c61
-40 82 -112 53 -182 -21 -49 -68 -75 -138 -75 l-58 0 0 -70 0 -71 -57 3 -58 3
-3 195 c-1 107 0 201 3 208 8 22 222 13 258 -11z m1087 -47 l0 -40 40 0 40 0
0 -40 0 -40 -40 0 -41 0 3 -67 3 -68 38 -3 c36 -3 37 -4 37 -42 0 -25 -5 -40
-16 -44 -26 -10 -114 -7 -136 5 -30 16 -48 71 -48 149 0 63 -2 70 -20 70 -16
0 -20 7 -20 35 0 28 4 36 24 41 19 4 26 15 31 45 l7 39 49 0 49 0 0 -40z m420
0 c0 -39 1 -40 35 -40 34 0 35 -1 35 -40 0 -39 -1 -40 -35 -40 l-35 0 0 -70 0
-70 35 0 c34 0 35 -1 35 -39 0 -45 -9 -51 -80 -51 -37 0 -56 6 -77 24 -26 23
-28 30 -31 115 -4 82 -6 91 -23 91 -30 0 -27 63 5 78 16 7 26 22 30 46 7 36 8
36 56 36 l50 0 0 -40z m-1182 -87 l3 -52 -53 -3 -53 -3 -3 -102 -3 -103 -54 0
-55 0 0 155 0 155 50 0 c45 0 50 -2 50 -22 0 -20 1 -20 18 -5 22 20 62 37 82
34 11 -2 16 -17 18 -54z m268 24 c23 -27 24 -35 24 -158 l0 -129 -44 0 c-25 0
-47 4 -51 9 -3 6 -20 4 -42 -5 -73 -31 -143 10 -143 83 0 67 43 103 125 103
38 0 45 3 45 20 0 31 -70 38 -136 13 -11 -4 -14 4 -14 36 0 37 3 41 33 50 17
6 65 9 106 8 66 -2 75 -5 97 -30z m298 23 c22 -8 26 -16 26 -47 l0 -38 -50 3
c-66 5 -80 -7 -80 -69 0 -62 28 -85 90 -75 l40 6 0 -39 c0 -45 -11 -51 -100
-51 -101 0 -150 53 -150 163 0 65 28 113 80 139 39 20 105 23 144 8z m1136 -9
c50 -26 75 -74 74 -141 0 -106 -54 -160 -159 -160 -112 0 -160 53 -153 171 4
73 17 96 73 130 40 25 119 25 165 0z m400 -1 c28 -28 31 -50 28 -180 l-3 -115
-57 -3 -58 -3 0 116 c0 124 -6 138 -49 115 -19 -10 -21 -20 -21 -120 l0 -110
-55 0 -55 0 0 155 0 155 43 0 c24 0 48 -5 53 -10 7 -7 20 -6 40 5 42 22 109
20 134 -5z m331 -18 c25 -28 29 -40 29 -92 l0 -60 -90 0 c-49 0 -90 -4 -90 -8
0 -5 9 -17 20 -27 17 -15 31 -17 90 -12 l70 6 0 -35 c0 -45 -29 -57 -132 -52
-72 3 -80 5 -110 36 -30 29 -33 38 -36 107 -4 62 -1 80 17 108 30 49 73 68
145 64 51 -3 63 -8 87 -35z m297 -20 l3 -52 -50 0 -50 0 -3 -102 -3 -103 -57
-3 -58 -3 0 156 0 155 50 0 c38 0 50 -4 50 -15 0 -19 3 -19 48 5 55 30 66 24
70 -38z m-1738 -107 l0 -156 -57 3 -58 3 -3 153 -3 152 61 0 60 0 0 -155z
m420 0 l0 -155 -60 0 -60 0 0 155 0 155 60 0 60 0 0 -155z m1120 -445 c0 -7
-492 -10 -1455 -10 -963 0 -1455 3 -1455 10 0 7 492 10 1455 10 963 0 1455 -3
1455 -10z m-2846 -314 c49 -20 66 -51 66 -116 -1 -80 -39 -120 -115 -120 -77
0 -115 42 -115 128 0 56 19 88 64 108 40 17 59 17 100 0z m2161 0 c46 -20 67
-56 67 -115 0 -78 -41 -121 -118 -121 -76 0 -114 43 -114 128 0 56 19 88 64
108 40 17 59 17 101 0z m-2435 -21 c0 -23 -4 -25 -45 -25 -41 0 -45 -2 -45
-25 0 -22 4 -25 40 -25 36 0 40 -2 40 -25 0 -22 -4 -25 -40 -25 l-40 0 0 -46
c0 -45 0 -45 -32 -42 l-33 3 -3 118 -3 117 81 0 c79 0 80 0 80 -25z m530 -54
c0 -90 15 -120 51 -101 16 9 19 22 19 95 l0 85 35 0 35 0 0 -95 c0 -88 -2 -98
-25 -120 -34 -35 -112 -35 -151 -1 -26 22 -28 29 -32 120 l-4 96 36 0 36 0 0
-79z m379 9 l36 -65 3 68 c3 67 3 67 32 67 l30 0 0 -121 0 -120 -37 3 c-35 3
-40 8 -73 67 l-35 64 -3 -67 c-3 -66 -3 -66 -32 -66 l-30 0 0 121 0 120 37 -3
c33 -3 39 -8 72 -68z m381 55 c38 -20 50 -43 50 -99 0 -89 -29 -116 -132 -124
l-68 -5 0 122 0 121 60 0 c35 0 74 -7 90 -15z m320 -17 c19 -52 70 -201 70
-205 0 -2 -16 -3 -35 -3 -29 0 -37 5 -45 25 -7 19 -17 25 -40 25 -23 0 -33 -6
-40 -25 -8 -20 -16 -25 -46 -25 -25 0 -35 4 -32 13 3 6 22 60 43 120 l38 107
37 0 c34 0 39 -4 50 -32z m360 7 c0 -22 -4 -25 -35 -25 l-35 0 0 -95 0 -95
-35 0 -35 0 0 95 0 95 -35 0 c-31 0 -35 3 -35 25 l0 25 105 0 105 0 0 -25z
m170 -96 l0 -120 -32 3 -33 3 -3 118 -3 117 36 0 35 0 0 -121z m594 59 l35
-63 1 63 0 62 35 0 36 0 -3 -117 -3 -118 -35 0 c-32 0 -37 5 -72 64 l-37 64
-3 -64 c-3 -62 -4 -64 -30 -67 l-28 -3 0 120 0 121 34 0 c31 0 37 -5 70 -62z
m401 -45 c21 -60 40 -114 42 -120 4 -9 -6 -13 -31 -13 -29 0 -39 5 -48 25 -9
19 -19 25 -44 25 -26 0 -33 -4 -36 -22 -2 -19 -10 -24 -40 -26 -21 -2 -38 0
-38 3 0 6 61 181 75 218 5 12 18 17 45 17 l37 0 38 -107z m215 17 l0 -90 51 0
c49 0 50 -1 47 -27 -3 -28 -3 -28 -83 -28 l-80 0 -3 118 -3 117 36 0 35 0 0
-90z"/>
<path d="M3651 4351 c-26 -26 -35 -74 -21 -116 14 -42 42 -59 83 -51 49 10 57
23 57 92 0 54 -3 65 -22 78 -30 22 -74 20 -97 -3z"/>
</g>
</svg>
