<?xml version="1.0" encoding="UTF-8" standalone="no"?>
<!-- Created with Inkscape (http://www.inkscape.org/) -->

<svg
   xmlns:dc="http://purl.org/dc/elements/1.1/"
   xmlns:cc="http://creativecommons.org/ns#"
   xmlns:rdf="http://www.w3.org/1999/02/22-rdf-syntax-ns#"
   xmlns:svg="http://www.w3.org/2000/svg"
   xmlns="http://www.w3.org/2000/svg"
   xmlns:sodipodi="http://sodipodi.sourceforge.net/DTD/sodipodi-0.dtd"
   xmlns:inkscape="http://www.inkscape.org/namespaces/inkscape"
   version="1.1"
   id="svg2"
   width="25"
   height="25.000002"
   viewBox="0 0 25 25.000002"
   sodipodi:docname="big_pdf.svg"
   inkscape:version="0.92.4 (5da689c313, 2019-01-14)">
  <metadata
     id="metadata8">
    <rdf:RDF>
      <cc:Work
         rdf:about="">
        <dc:format>image/svg+xml</dc:format>
        <dc:type
           rdf:resource="http://purl.org/dc/dcmitype/StillImage" />
        <dc:title></dc:title>
      </cc:Work>
    </rdf:RDF>
  </metadata>
  <defs
     id="defs6" />
  <sodipodi:namedview
     pagecolor="#ffffff"
     bordercolor="#666666"
     borderopacity="1"
     objecttolerance="10"
     gridtolerance="10"
     guidetolerance="10"
     inkscape:pageopacity="0"
     inkscape:pageshadow="2"
     inkscape:window-width="1600"
     inkscape:window-height="821"
     id="namedview4"
     showgrid="false"
     inkscape:pagecheckerboard="true"
     fit-margin-top="0"
     fit-margin-left="0"
     fit-margin-right="0"
     fit-margin-bottom="0"
     inkscape:zoom="4.4509277"
     inkscape:cx="90.481543"
     inkscape:cy="43.896016"
     inkscape:window-x="-9"
     inkscape:window-y="-9"
     inkscape:window-maximized="1"
     inkscape:current-layer="g12" />
  <g
     id="g12"
     transform="translate(-60,-485.92417)">
    <path
       style="fill:#f4c6b5;stroke-width:0.05583885"
       d="m 63.847847,510.8803 c -0.395845,-0.0458 -1.095607,-0.26965 -1.557771,-0.49834 -1.02296,-0.50619 -1.805607,-1.34409 -2.188094,-2.34257 C 60.00998,507.79922 60,506.85883 60,498.42947 v -9.3437 l 0.181649,-0.41356 c 0.255298,-0.58124 0.516979,-0.95861 0.954275,-1.37615 0.583177,-0.55684 1.419886,-0.99895 2.362804,-1.24851 0.333377,-0.0882 0.633291,-0.0926 6.361323,-0.0926 h 6.01145 l 0.28626,0.11718 c 0.922338,0.37756 1.64628,0.87387 4.566438,3.13058 3.198593,2.47188 4.002893,3.19261 4.19301,3.75733 C 84.983403,493.15667 85,494.6809 85,500.56341 v 7.35743 l -0.149954,0.33943 c -0.527864,1.19486 -1.508189,2.00303 -3.014678,2.48527 l -0.493129,0.15785 -8.587786,0.007 c -4.723283,0.004 -8.731255,-0.01 -8.906606,-0.03 z m 16.655995,-1.98627 c 0.786879,-0.15792 1.326598,-0.48495 1.642759,-0.99538 0.171015,-0.27609 0.206051,-0.40304 0.258472,-0.9365 0.03566,-0.36291 0.05108,-3.09047 0.03743,-6.62141 -0.02642,-6.83323 0.03292,-6.1982 -0.603187,-6.45544 l -0.369848,-0.14957 -2.708476,-0.0263 c -2.948862,-0.0286 -2.997525,-0.0332 -3.388173,-0.31912 -0.390843,-0.28605 -0.383204,-0.24314 -0.442366,-2.48489 -0.02988,-1.13224 -0.08323,-2.17574 -0.118561,-2.31889 -0.07213,-0.29229 -0.320164,-0.54884 -0.62454,-0.64598 -0.147129,-0.047 -1.238134,-0.0554 -4.850801,-0.0374 -5.162033,0.0257 -4.958094,0.0129 -5.622554,0.35282 -0.394453,0.2018 -0.724183,0.52423 -0.930005,0.90943 l -0.144043,0.26958 -0.01774,8.77362 c -0.01107,5.47248 0.0054,8.88931 0.04373,9.0811 0.16165,0.80864 0.878406,1.42155 1.882411,1.60967 0.240007,0.045 2.192105,0.0606 7.954192,0.0638 6.583825,0.004 7.68645,-0.006 8.001304,-0.0691 z m -14.603137,-2.7877 c -0.360789,-0.10315 -0.540115,-0.20915 -0.73225,-0.43286 -0.138167,-0.16087 -0.174816,-0.26081 -0.174816,-0.4767 0,-0.70235 0.859841,-1.31825 3.069199,-2.19845 l 0.924737,-0.36841 0.493793,-0.78923 c 0.501266,-0.80117 1.201884,-2.12056 1.463583,-2.7562 l 0.14389,-0.34949 -0.292873,-0.50826 c -0.741506,-1.28684 -0.977387,-2.28932 -0.681873,-2.89789 0.14578,-0.30022 0.491352,-0.58359 0.853435,-0.69983 0.277109,-0.089 0.875541,-0.10361 1.134433,-0.0278 0.28586,0.0837 0.661807,0.38507 0.816772,0.65465 0.286813,0.49894 0.227838,1.72013 -0.137073,2.83835 -0.06745,0.20667 -0.122629,0.41743 -0.122629,0.46834 0,0.10626 0.731574,0.95398 1.249617,1.44801 0.49126,0.46849 1.215183,1.01636 1.342959,1.01636 0.059,0 0.537497,-0.0466 1.063327,-0.10359 1.762754,-0.19101 2.817046,-0.0738 3.383637,0.37617 0.645238,0.51242 0.452639,1.36761 -0.382207,1.69709 -0.361312,0.14259 -1.581849,0.18164 -2.250724,0.072 -0.45378,-0.0744 -1.171802,-0.31573 -1.870529,-0.62875 l -0.358322,-0.16053 -0.405037,0.0644 c -0.733895,0.11675 -3.718265,0.89607 -4.263695,1.1134 -0.108076,0.0431 -0.347653,0.2705 -0.597811,0.56753 -0.888224,1.05464 -1.713211,1.75595 -2.352289,1.99967 -0.379476,0.14472 -0.969345,0.18142 -1.317254,0.082 z m 1.001331,-1.23325 c 0.104961,-0.0663 0.162213,-0.12053 0.127226,-0.12053 -0.03499,0 -0.149491,0.0542 -0.254453,0.12053 -0.104962,0.0663 -0.162214,0.12053 -0.127226,0.12053 0.03499,0 0.149491,-0.0542 0.254453,-0.12053 z m 11.577608,-2.86584 c -0.02208,-0.0275 -0.295572,-0.0469 -0.623984,-0.0441 -0.390627,0.003 -0.531888,0.0179 -0.425635,0.0441 0.238498,0.0588 1.096824,0.0588 1.049619,0 z m -6.20229,-0.31526 c 0.612277,-0.15437 1.152318,-0.29024 1.200092,-0.30193 0.06001,-0.0147 0.01013,-0.0855 -0.161321,-0.22894 -0.136501,-0.11423 -0.470274,-0.42274 -0.741718,-0.68558 -0.271444,-0.26284 -0.503621,-0.47789 -0.515948,-0.47789 -0.01233,0 -0.129871,0.21505 -0.261207,0.47789 -0.131337,0.26284 -0.363302,0.70377 -0.515478,0.97985 -0.304819,0.55299 -0.311883,0.57232 -0.197168,0.53981 0.04373,-0.0124 0.58047,-0.14884 1.192748,-0.30321 z m -0.572519,-5.37014 c 0,-0.48247 -0.08282,-0.74032 -0.207043,-0.64461 -0.143235,0.11037 -4.45e-4,1.17845 0.148117,1.10772 0.03241,-0.0154 0.05893,-0.22383 0.05893,-0.46311 z"
       id="path26"
       inkscape:connector-curvature="0" />
    <path
       style="fill:#f1b19a;stroke-width:0.05583885"
       d="m 64.103053,510.89368 c -0.104961,-0.0107 -0.376908,-0.0657 -0.604325,-0.12204 -1.537508,-0.38122 -2.642706,-1.22739 -3.215261,-2.4617 l -0.219854,-0.47396 v -9.37913 -9.37914 l 0.133727,-0.33601 c 0.521356,-1.31 1.696091,-2.23275 3.403624,-2.67355 l 0.438476,-0.11319 h 5.852418 5.852417 l 0.413486,0.16558 c 0.227417,0.0911 0.650081,0.30757 0.939252,0.48112 0.672389,0.40355 2.721173,1.93171 4.943893,3.68758 1.695474,1.33936 2.430862,2.00249 2.721682,2.45424 l 0.141992,0.22056 v 7.57276 7.57276 l -0.206698,0.38348 c -0.699161,1.29713 -2.21234,2.24821 -3.800935,2.38901 -0.48227,0.0427 -16.382214,0.0538 -16.793894,0.0116 z M 80.22189,508.9663 c 1.083201,-0.10835 1.825361,-0.59088 2.147898,-1.39652 0.11186,-0.27941 0.117189,-0.60257 0.111217,-6.74406 -0.0072,-7.4248 0.05776,-6.71036 -0.635244,-6.98484 l -0.387064,-0.1533 -2.698178,-0.0238 c -2.378859,-0.0209 -2.730078,-0.0339 -2.967724,-0.10951 -0.328361,-0.10447 -0.624062,-0.35362 -0.714135,-0.60171 -0.03807,-0.10484 -0.08874,-1.09571 -0.117268,-2.29311 -0.04908,-2.05964 -0.05362,-2.11388 -0.196404,-2.34114 -0.101834,-0.16208 -0.228004,-0.2696 -0.416,-0.35449 l -0.269835,-0.12184 -3.334106,0.004 c -1.833758,0.002 -4.006815,0.0202 -4.829016,0.0396 -1.472682,0.0348 -1.500587,0.0374 -1.876591,0.17651 -0.488995,0.1809 -0.976596,0.55746 -1.206096,0.93145 -0.146759,0.23916 -0.189903,0.3948 -0.230971,0.83325 -0.06612,0.70586 -0.06577,16.5017 3.81e-4,17.20897 0.03951,0.42249 0.08743,0.60554 0.214526,0.81943 0.34889,0.58719 1.120997,1.02416 1.95688,1.10749 0.583914,0.0582 14.868251,0.0613 15.447735,0.003 z m -14.337666,-2.89874 c -0.317153,-0.0916 -0.531458,-0.23206 -0.707972,-0.46414 -0.144388,-0.18984 -0.162739,-0.25798 -0.131759,-0.48925 0.08918,-0.66581 0.88541,-1.21149 3.017196,-2.06781 l 0.939583,-0.37742 0.236409,-0.3431 c 0.530274,-0.7696 1.894635,-3.32797 1.894635,-3.55272 0,-0.027 -0.155943,-0.33048 -0.34654,-0.67441 -0.557922,-1.00676 -0.689732,-1.40312 -0.69695,-2.09576 -0.0051,-0.48605 0.01446,-0.61796 0.112456,-0.75973 0.35827,-0.51829 1.014651,-0.76283 1.705006,-0.63522 0.468036,0.0865 0.89532,0.41869 1.043395,0.81116 0.143452,0.38021 0.09465,1.56047 -0.09101,2.20127 -0.0703,0.24263 -0.16403,0.56735 -0.208294,0.72161 l -0.08048,0.28047 0.48454,0.55278 c 0.829005,0.94574 1.937785,1.90104 2.205792,1.90045 0.0563,-1.5e-4 0.488818,-0.0441 0.961146,-0.0978 2.276195,-0.25863 3.483807,-0.006 3.758847,0.78636 0.163156,0.47002 -0.119798,0.97173 -0.673605,1.19437 -0.207947,0.0836 -0.396765,0.10546 -1.033093,0.11962 -1.181969,0.0263 -1.786097,-0.10385 -2.945797,-0.63471 -0.393098,-0.17994 -0.477919,-0.20066 -0.714496,-0.17456 -0.591129,0.0652 -3.567536,0.82725 -4.307886,1.10291 -0.320322,0.11926 -0.392856,0.18015 -0.858779,0.72086 -0.880023,1.02129 -1.518454,1.5723 -2.153671,1.85876 -0.245084,0.11053 -0.402762,0.14259 -0.763359,0.15521 -0.249959,0.009 -0.540349,-0.009 -0.645311,-0.0392 z m 1.150643,-1.23677 c 0.206841,-0.1454 0.358034,-0.27877 0.335984,-0.29638 -0.0483,-0.0386 -0.831605,0.41238 -0.867591,0.49948 -0.056,0.13555 0.175912,0.047 0.531607,-0.2031 z m 11.532887,-2.77002 c 0.180584,-0.0881 -0.174077,-0.15156 -0.847287,-0.15156 -0.671255,0 -0.896694,0.0647 -0.433571,0.12433 0.131202,0.0169 0.267175,0.0382 0.302163,0.0474 0.137655,0.036 0.895673,0.0204 0.978695,-0.0201 z m -6.262528,-0.32835 c 0.701909,-0.17811 1.286747,-0.33144 1.299639,-0.34074 0.01289,-0.009 -0.147928,-0.16685 -0.357378,-0.35012 -0.209449,-0.18326 -0.545282,-0.49863 -0.746296,-0.70082 -0.201014,-0.20218 -0.395886,-0.36761 -0.43305,-0.36761 -0.03716,0 -0.123691,0.11029 -0.192285,0.24508 -0.06859,0.13479 -0.30689,0.58573 -0.529547,1.00209 -0.409537,0.76581 -0.439831,0.83595 -0.361057,0.83595 0.02408,0 0.618065,-0.14572 1.319974,-0.32383 z m -0.565466,-5.09783 c 0.05481,-0.39437 0.0046,-0.87894 -0.101162,-0.97718 -0.142444,-0.13224 -0.25183,0.0109 -0.25183,0.32961 0,0.32106 0.170405,0.97172 0.254489,0.97172 0.0294,0 0.07373,-0.14587 0.0985,-0.32415 z"
       id="path24"
       inkscape:connector-curvature="0" />
    <path
       style="fill:#eb8b68;stroke-width:0.05583885"
       d="m 63.975827,510.84734 c -1.84882,-0.3079 -3.155842,-1.28581 -3.790211,-2.83581 -0.116291,-0.28414 -0.120389,-0.60767 -0.121182,-9.56757 l -8.21e-4,-9.27349 0.166553,-0.4069 c 0.468294,-1.14408 1.323996,-1.9393 2.600623,-2.41682 1.097738,-0.41061 0.630821,-0.38376 7.01982,-0.40356 l 5.683941,-0.0176 0.581962,0.22053 c 0.387107,0.14669 0.805603,0.36416 1.2499,0.64951 0.74511,0.47854 5.490793,4.11336 6.249688,4.78677 0.755394,0.67029 1.173685,1.1794 1.253341,1.52546 0.04485,0.19482 0.06695,2.67981 0.06695,7.52741 v 7.23657 l -0.154655,0.35036 c -0.469122,1.06274 -1.340313,1.85094 -2.555046,2.31165 -1.047439,0.39726 -0.266164,0.36632 -9.535846,0.3776 -7.177664,0.009 -8.328523,2.9e-4 -8.715013,-0.0641 z m 14.28117,-1.82438 2.321883,-0.0321 0.37124,-0.13353 c 0.51823,-0.18641 0.849301,-0.40214 1.129185,-0.7358 0.459838,-0.54819 0.440414,-0.22724 0.434411,-7.1778 -0.003,-3.41835 -0.02584,-6.34139 -0.05087,-6.49565 -0.05273,-0.32503 -0.204043,-0.47787 -0.643971,-0.65045 -0.280336,-0.10998 -0.349042,-0.11347 -3.085242,-0.15649 -3.047502,-0.0479 -2.986793,-0.0417 -3.347363,-0.34189 -0.320866,-0.26713 -0.318701,-0.25279 -0.377315,-2.49803 -0.03177,-1.21695 -0.08484,-2.21153 -0.123987,-2.32354 -0.08062,-0.2307 -0.37099,-0.50221 -0.623146,-0.58269 -0.132251,-0.0422 -1.423328,-0.0532 -4.946222,-0.0423 -4.379603,0.0136 -4.790533,0.0219 -5.053515,0.10143 -0.761606,0.23042 -1.355128,0.71578 -1.597285,1.30622 -0.131394,0.32038 -0.131933,0.35672 -0.135076,9.12357 -0.0025,6.92173 0.014,8.85869 0.07715,9.0677 0.190405,0.63018 0.690229,1.10665 1.452943,1.38506 l 0.424912,0.15511 2.035623,0.0267 c 2.975919,0.039 9.06433,0.0414 11.736641,0.004 z m -12.156164,-2.94367 c -0.582208,-0.089 -1.039328,-0.47628 -1.03147,-0.87395 0.0025,-0.12799 0.0496,-0.31566 0.104603,-0.41704 0.254719,-0.46949 1.274632,-1.07252 2.928128,-1.73126 l 0.935966,-0.37288 0.339757,-0.52226 c 0.689086,-1.05925 1.664862,-2.93769 1.735308,-3.34061 0.02271,-0.12987 -0.03308,-0.27684 -0.229631,-0.60492 -0.522351,-0.87193 -0.787138,-1.62785 -0.792493,-2.26243 -0.004,-0.47449 0.09211,-0.70933 0.396956,-0.96986 0.2906,-0.24835 0.649517,-0.37589 1.057845,-0.37589 0.587788,0 1.040393,0.24393 1.314718,0.70856 0.127894,0.21661 0.144572,0.3219 0.143636,0.90677 -0.0011,0.70158 -0.069,1.09763 -0.322576,1.88218 l -0.156847,0.48528 0.21028,0.26094 c 0.510267,0.6332 1.087276,1.20532 1.736997,1.72228 l 0.699746,0.55677 0.795165,-0.0974 c 1.100276,-0.13485 1.790557,-0.16603 2.374078,-0.10724 1.095077,0.11033 1.633556,0.47461 1.633556,1.10509 0,0.65916 -0.483353,0.97739 -1.573967,1.03627 -1.038419,0.0561 -1.776213,-0.0901 -2.897465,-0.57387 -0.585357,-0.25257 -0.718839,-0.29202 -0.891575,-0.26349 -0.794238,0.13118 -3.877163,0.9319 -4.446639,1.15491 -0.18134,0.071 -0.358703,0.23682 -0.767363,0.71736 -1.328283,1.56192 -2.279373,2.13221 -3.296713,1.97674 z m 0.891522,-1.18082 c 0.36945,-0.2369 0.582006,-0.4405 0.45988,-0.4405 -0.102206,0 -0.832753,0.39598 -0.932028,0.50519 -0.247662,0.27244 -8.78e-4,0.23863 0.472148,-0.0647 z m 6.608487,-3.52429 c 0.01363,-0.0315 -0.100519,-0.16112 -0.253662,-0.28803 -0.153143,-0.12691 -0.500703,-0.44651 -0.772354,-0.71021 -0.271652,-0.26369 -0.51825,-0.46786 -0.547996,-0.45369 -0.02975,0.0142 -0.161882,0.24095 -0.293635,0.50396 -0.131754,0.26301 -0.378152,0.72838 -0.547552,1.03416 -0.169399,0.30578 -0.294044,0.57336 -0.276989,0.59462 0.04249,0.053 2.661239,-0.60927 2.692188,-0.68081 z m 5.009454,0.6778 c 0.08554,-0.10664 -0.09738,-0.15196 -0.720177,-0.1784 -0.686169,-0.0291 -1.033183,0.006 -0.920481,0.0926 0.109139,0.0841 0.457011,0.12872 1.045055,0.13405 0.336407,0.003 0.569596,-0.0158 0.595603,-0.0483 z m -6.880461,-5.12176 c 0.02124,-0.0426 0.03861,-0.32516 0.03861,-0.62782 0,-0.58061 -0.07112,-0.76196 -0.275165,-0.70163 -0.161068,0.0476 -0.197689,0.26859 -0.116353,0.70204 0.112672,0.60045 0.247212,0.83963 0.352905,0.62741 z"
       id="path22"
       inkscape:connector-curvature="0" />
    <path
       style="fill:#e7744b;stroke-width:0.05583885"
       d="m 64.103053,510.84674 c -1.863984,-0.30628 -3.271343,-1.30652 -3.841298,-2.73009 l -0.134529,-0.33601 v -9.34743 -9.34744 l 0.181432,-0.41356 c 0.222918,-0.50813 0.390598,-0.76818 0.740756,-1.14879 0.649081,-0.70553 1.598399,-1.19602 2.825052,-1.45965 0.471858,-0.10141 0.611455,-0.10422 6.030461,-0.1217 l 5.547422,-0.0179 0.591255,0.22215 c 0.838241,0.31495 1.446797,0.71574 3.765504,2.47992 3.568823,2.71534 4.832278,3.81995 4.996314,4.36817 0.04169,0.13931 0.06479,2.79764 0.0658,7.57105 0.0016,7.34128 0.0013,7.35699 -0.131962,7.66973 -0.406153,0.95327 -1.27963,1.77154 -2.348405,2.19998 -1.281362,0.51365 -0.82668,0.49151 -10.018077,0.48784 -6.686049,-0.003 -7.889214,-0.0138 -8.269721,-0.0763 z m 16.17148,-1.83037 c 0.880128,-0.0881 1.615136,-0.49751 1.995436,-1.11149 0.177464,-0.2865 0.205378,-0.39289 0.25333,-0.96542 0.06201,-0.74043 0.0656,-9.27693 0.0048,-11.33742 -0.04698,-1.59124 -0.02928,-1.54365 -0.67341,-1.81054 l -0.368858,-0.15283 -2.711725,-0.0236 c -3.027283,-0.0263 -2.982491,-0.0214 -3.390925,-0.37018 -0.166627,-0.14228 -0.244376,-0.26075 -0.270297,-0.41186 -0.02005,-0.11667 -0.05962,-1.12748 -0.08796,-2.24623 -0.04825,-1.90449 -0.05993,-2.0485 -0.183339,-2.25999 -0.07342,-0.12583 -0.238607,-0.28866 -0.37291,-0.36761 l -0.241101,-0.14173 -3.122057,-0.0131 c -1.717131,-0.007 -3.925332,0.004 -4.907113,0.0255 l -1.785057,0.0386 -0.41529,0.15753 c -0.506118,0.19198 -1.014333,0.58965 -1.240916,0.97099 -0.122256,0.20576 -0.176887,0.40791 -0.221907,0.82112 -0.03528,0.32379 -0.05171,4.0391 -0.04015,9.07671 0.01885,8.21546 0.02397,8.53754 0.139476,8.77362 0.368189,0.75254 1.140195,1.24598 2.104629,1.34521 0.545875,0.0562 14.976184,0.0587 15.535347,0.003 z m -14.381578,-3.01271 c -0.45309,-0.12446 -0.804545,-0.4823 -0.803275,-0.81788 9.35e-4,-0.24774 0.274167,-0.64993 0.616284,-0.90716 0.409222,-0.30768 1.311216,-0.75719 2.457762,-1.22482 l 0.943625,-0.38486 0.471445,-0.75973 c 0.484354,-0.78053 1.23652,-2.20382 1.493569,-2.82623 l 0.144957,-0.35099 -0.292792,-0.50676 c -1.145248,-1.9822 -1.066526,-3.2493 0.220184,-3.54406 0.645156,-0.14779 1.218201,0.0208 1.55831,0.45843 0.253206,0.32582 0.30476,0.6177 0.251711,1.42511 -0.03625,0.55176 -0.08534,0.78884 -0.367213,1.77362 -0.07866,0.27481 -0.07768,0.27872 0.139276,0.55488 0.402954,0.51291 1.218639,1.31777 1.810916,1.7869 l 0.587162,0.46508 0.850412,-0.0959 c 0.554753,-0.0625 1.171096,-0.0949 1.772804,-0.093 1.093809,0.003 1.490718,0.0911 1.868223,0.4131 0.549318,0.46849 0.409968,1.22467 -0.279815,1.5184 -0.250412,0.10663 -0.37921,0.12329 -1.079503,0.13961 -1.160327,0.027 -1.807438,-0.11232 -2.879619,-0.62017 -0.23678,-0.11215 -0.510919,-0.20391 -0.609196,-0.20391 -0.382592,0 -3.44211,0.75533 -4.409434,1.08859 l -0.443375,0.15276 -0.525313,0.61694 c -1.442148,1.69371 -2.421424,2.23753 -3.497105,1.94207 z m 1.033525,-1.03458 c 0.39517,-0.22888 0.690143,-0.4915 0.616116,-0.54854 -0.120609,-0.0929 -1.246839,0.60224 -1.157043,0.71419 0.07281,0.0908 0.1267,0.0743 0.540927,-0.16565 z m 11.63268,-2.84569 c 0.175643,-0.0363 0.185838,-0.1441 0.02009,-0.21245 -0.149845,-0.0618 -1.636604,-0.0682 -1.685478,-0.007 -0.05756,0.0718 0.107897,0.14396 0.442754,0.19318 0.371302,0.0546 1.018777,0.0686 1.222638,0.0265 z m -6.235292,-0.3464 c 0.808456,-0.19958 1.351065,-0.35818 1.351781,-0.39511 6.55e-4,-0.0339 -0.149473,-0.18833 -0.333625,-0.3431 -0.184152,-0.15478 -0.531154,-0.47551 -0.771115,-0.71273 -0.262514,-0.25952 -0.474638,-0.42547 -0.532561,-0.41663 -0.05576,0.009 -0.187599,0.19964 -0.31334,0.45426 -0.119389,0.24176 -0.358838,0.69925 -0.532109,1.01665 -0.306442,0.56135 -0.365555,0.72222 -0.267326,0.72751 0.02624,10e-4 0.655473,-0.14747 1.398295,-0.33085 z m -0.525143,-5.42443 c 0.0011,-0.48242 -0.02124,-0.67385 -0.08578,-0.73394 -0.218477,-0.20346 -0.410067,-0.008 -0.402365,0.41053 0.0058,0.31381 0.170702,0.91368 0.278801,1.01404 0.153381,0.1424 0.20781,-0.0372 0.20934,-0.69063 z"
       id="path20"
       inkscape:connector-curvature="0" />
    <path
       style="fill:#e04d17;stroke-width:0.05583885"
       d="m 64.643766,510.87911 c -0.05248,-0.0263 -0.177165,-0.0481 -0.277078,-0.0485 -0.330723,-10e-4 -0.95549,-0.15073 -1.541521,-0.36853 -0.42581,-0.15826 -0.707926,-0.30826 -1.070708,-0.56931 -0.74124,-0.53338 -1.106995,-0.98204 -1.439304,-1.76558 l -0.187929,-0.4431 v -9.2546 -9.2546 l 0.229063,-0.50706 c 0.318403,-0.70482 0.649296,-1.12107 1.260415,-1.58555 0.855018,-0.64985 1.80901,-0.98202 3.058869,-1.06507 1.03111,-0.0685 5.885389,-0.0962 8.587786,-0.0491 l 2.353689,0.0411 0.408367,0.15829 c 0.957751,0.37122 1.810895,0.96066 5.127166,3.54234 2.938944,2.28794 3.523909,2.84426 3.653663,3.47473 0.04281,0.20804 0.06573,2.80549 0.06605,7.48498 l 5.09e-4,7.16639 -0.219854,0.47396 c -0.275357,0.59361 -0.526917,0.91823 -1.05241,1.35803 -0.742244,0.62122 -1.819105,1.05884 -2.881646,1.17108 -0.682083,0.072 -15.935176,0.11006 -16.075097,0.0401 z m 14.853689,-1.80844 c 1.105821,-0.0357 1.159362,-0.0423 1.56326,-0.1911 0.486507,-0.17929 0.985166,-0.54106 1.197665,-0.86891 0.334424,-0.51594 0.322957,-0.26192 0.320792,-7.10625 -0.0011,-3.50454 -0.02583,-6.46681 -0.05493,-6.5828 -0.06339,-0.25263 -0.222496,-0.39297 -0.647655,-0.57127 l -0.317922,-0.13333 -2.779968,-0.0351 c -3.058283,-0.0386 -2.96053,-0.0283 -3.361372,-0.35636 -0.109849,-0.0899 -0.218033,-0.21045 -0.240408,-0.26786 -0.02238,-0.0574 -0.06491,-1.06405 -0.09453,-2.23696 l -0.05384,-2.13257 -0.161301,-0.27147 c -0.11613,-0.19545 -0.23734,-0.31022 -0.432829,-0.40983 l -0.271533,-0.13836 -4.680042,0.017 c -2.632516,0.01 -4.804013,0.0374 -4.963402,0.0637 -0.616502,0.10168 -1.275029,0.45877 -1.629258,0.88348 -0.08255,0.099 -0.214735,0.31953 -0.293748,0.49014 l -0.143661,0.3102 -0.0018,8.87165 -0.0018,8.87164 0.140848,0.34492 c 0.245268,0.60064 0.761105,1.04247 1.523155,1.30462 0.251089,0.0864 0.48434,0.11204 1.262206,0.13887 1.335222,0.0461 12.731436,0.0508 14.122137,0.006 z m -13.645038,-3.09916 c -0.203209,-0.0623 -0.494615,-0.27485 -0.610005,-0.44504 -0.125353,-0.18488 -0.109483,-0.51559 0.03665,-0.76366 0.271557,-0.46101 1.233239,-1.01491 2.873584,-1.6551 l 0.958763,-0.37418 0.43745,-0.70598 c 0.586288,-0.94618 1.065367,-1.83052 1.423592,-2.62786 l 0.29603,-0.65889 -0.286182,-0.49734 c -0.583014,-1.01317 -0.801679,-1.64373 -0.802456,-2.31403 -3.82e-4,-0.33551 0.0286,-0.46434 0.148912,-0.6617 0.178712,-0.29316 0.295524,-0.37907 0.705418,-0.51877 0.612032,-0.2086 1.314534,-0.0335 1.653474,0.41212 0.337639,0.44392 0.337304,1.51527 -8.33e-4,2.65541 -0.08795,0.29654 -0.17674,0.6 -0.197319,0.67436 -0.03035,0.10964 0.03926,0.22516 0.368222,0.61112 0.663433,0.77839 1.878749,1.88286 2.232215,2.02861 0.0786,0.0324 0.4009,0.0141 1.017655,-0.0579 1.08815,-0.12698 2.424908,-0.11568 2.924895,0.0247 0.375704,0.10552 0.790383,0.44092 0.850522,0.68792 0.111124,0.4564 -0.136634,0.91558 -0.581848,1.07837 -0.495921,0.18132 -1.575341,0.19991 -2.411845,0.0415 -0.331287,-0.0627 -1.207677,-0.38421 -1.858109,-0.68162 -0.202456,-0.0926 -0.209078,-0.0924 -0.790974,0.0225 -1.103999,0.21789 -3.960742,0.98995 -4.259388,1.15112 -0.06952,0.0375 -0.379393,0.36322 -0.688611,0.72379 -0.901735,1.05146 -1.605282,1.62334 -2.254058,1.83221 -0.255032,0.0821 -0.942824,0.0927 -1.185756,0.0183 z m 1.081425,-0.96962 c 0.851134,-0.5237 0.958172,-0.88068 0.134903,-0.44991 -0.490599,0.25671 -0.801701,0.52917 -0.705831,0.61818 0.09221,0.0856 0.219103,0.0482 0.570928,-0.16827 z m 11.593512,-2.85018 c 0.25603,-0.0548 0.302153,-0.14079 0.133408,-0.24875 -0.1445,-0.0924 -1.638615,-0.12771 -1.772904,-0.0418 -0.137568,0.088 -0.115797,0.14214 0.0802,0.19956 0.410944,0.12038 1.205358,0.16675 1.559299,0.091 z m -6.178045,-0.34814 c 0.765132,-0.1929 1.391149,-0.37572 1.391149,-0.40627 0,-0.0305 -0.167723,-0.20113 -0.372718,-0.37906 -0.204994,-0.17794 -0.566309,-0.51455 -0.802921,-0.74803 -0.268223,-0.26466 -0.467895,-0.41891 -0.530308,-0.40964 -0.0616,0.009 -0.206423,0.22217 -0.376515,0.55385 -0.152025,0.29646 -0.404313,0.7706 -0.560638,1.05366 -0.289607,0.52439 -0.339398,0.6862 -0.211153,0.6862 0.03958,0 0.697972,-0.15782 1.463104,-0.35071 z m -0.579021,-4.74945 c 0.08016,-0.11542 0.110021,-1.19165 0.03766,-1.35756 -0.07787,-0.17856 -0.267287,-0.22881 -0.419726,-0.11136 -0.158433,0.12208 -0.171939,0.47347 -0.03717,0.9671 0.160584,0.5882 0.269052,0.71804 0.419236,0.50182 z"
       id="path18"
       inkscape:connector-curvature="0" />
    <path
       style="fill:#df4108;stroke-width:0.05583885"
       d="m 68.571883,510.89115 c 2.072996,-0.007 5.465172,-0.007 7.538168,0 2.072996,0.007 0.376908,0.013 -3.769084,0.013 -4.145992,0 -5.84208,-0.006 -3.769084,-0.013 z m -4.500636,-0.13368 c -1.19035,-0.18651 -2.256953,-0.71603 -2.947142,-1.46313 -0.369635,-0.40011 -0.519673,-0.63506 -0.745337,-1.16714 l -0.187928,-0.4431 v -9.25088 -9.25087 l 0.197438,-0.46185 c 0.537927,-1.25834 1.576565,-2.07497 3.191854,-2.50958 l 0.586535,-0.15781 5.640481,-0.0154 5.640482,-0.0154 0.339162,0.1093 c 0.850518,0.27408 1.613439,0.7642 3.958008,2.54275 2.988113,2.26673 4.544694,3.59119 4.89746,4.16715 l 0.135094,0.22056 0.01852,7.3522 c 0.0207,8.21573 0.05563,7.55028 -0.437412,8.33248 -0.464932,0.73761 -1.237014,1.3342 -2.189252,1.69166 -1.049643,0.39403 -0.283371,0.36376 -9.478371,0.37437 -6.589832,0.008 -8.287547,-0.003 -8.619592,-0.0553 z m 16.650645,-1.7309 c 0.988955,-0.24368 1.642858,-0.79716 1.853516,-1.56887 0.08154,-0.29871 0.09473,-12.64798 0.01397,-13.08495 -0.05606,-0.30336 -0.262554,-0.49812 -0.717945,-0.67717 -0.295274,-0.11609 -0.321181,-0.11741 -3.085241,-0.15693 -3.002272,-0.0429 -2.985228,-0.0413 -3.304327,-0.31262 -0.279494,-0.23765 -0.283245,-0.26497 -0.341884,-2.49082 -0.05403,-2.05076 -0.06321,-2.16352 -0.195428,-2.40034 -0.145859,-0.26125 -0.472704,-0.52174 -0.712262,-0.56767 -0.07808,-0.015 -2.303223,-0.0208 -4.944762,-0.013 l -4.802796,0.0143 -0.349873,0.11408 c -0.717818,0.23405 -1.250415,0.65526 -1.560071,1.23382 -0.108329,0.2024 -0.122607,0.46883 -0.173361,3.23496 -0.03042,1.65792 -0.03885,5.70796 -0.01873,9.0001 0.04011,6.56448 0.01834,6.21568 0.422301,6.76416 0.300466,0.40795 0.747012,0.68856 1.416612,0.89019 0.400275,0.12053 2.319334,0.14676 9.646075,0.13184 6.254479,-0.0127 6.469194,-0.0162 6.854208,-0.11108 z M 65.85245,505.92236 c -0.375162,-0.11527 -0.636165,-0.41408 -0.636165,-0.72831 0,-0.62043 0.838919,-1.20425 2.920761,-2.03259 l 0.991453,-0.39449 0.357337,-0.54951 c 0.544925,-0.83798 0.976899,-1.61674 1.432647,-2.58276 l 0.41403,-0.8776 -0.388705,-0.69912 c -0.48155,-0.86611 -0.706198,-1.51738 -0.718605,-2.08327 -0.0081,-0.36843 0.01261,-0.45474 0.167408,-0.69853 0.209379,-0.32974 0.57833,-0.52554 1.057076,-0.56099 0.422526,-0.0313 0.710879,0.056 1.009394,0.30553 0.340819,0.28489 0.415843,0.51362 0.410605,1.25181 -0.0048,0.67498 -0.05852,0.9827 -0.313412,1.79486 l -0.17104,0.54499 0.24238,0.30743 c 0.436229,0.55331 1.186759,1.2889 1.844936,1.80821 l 0.64614,0.5098 0.885312,-0.10782 c 1.11353,-0.13562 2.261238,-0.1476 2.80832,-0.0293 0.68059,0.14714 1.035006,0.46596 1.035006,0.93107 0,0.29579 -0.121623,0.50668 -0.401326,0.69591 -0.277609,0.1878 -0.594158,0.23726 -1.475264,0.23046 -0.969126,-0.007 -1.497524,-0.14068 -2.661132,-0.67082 l -0.43467,-0.19804 -0.487722,0.0873 c -1.307385,0.23399 -4.352165,1.07672 -4.56886,1.26456 -0.06984,0.0605 -0.277941,0.29622 -0.462441,0.52373 -0.760278,0.93751 -1.597957,1.66213 -2.179645,1.88548 -0.259366,0.0996 -0.421262,0.12642 -0.747918,0.12399 -0.229295,-0.002 -0.48845,-0.0251 -0.5759,-0.052 z m 1.096436,-0.86315 c 0.369779,-0.20555 0.748315,-0.53894 0.748315,-0.65908 0,-0.15947 -0.266517,-0.0969 -0.778183,0.18276 -0.556158,0.30396 -0.745846,0.50734 -0.587188,0.62959 0.117928,0.0909 0.226269,0.0639 0.617056,-0.15327 z m 11.769307,-2.91229 c 0.15594,-0.0632 0.138686,-0.22279 -0.03181,-0.29426 -0.192161,-0.0805 -1.553229,-0.11555 -1.785799,-0.0459 -0.220407,0.066 -0.207143,0.19835 0.0286,0.28541 0.379441,0.14012 1.494071,0.17425 1.789009,0.0548 z m -6.345744,-0.30144 c 1.039879,-0.26553 1.404575,-0.37891 1.420228,-0.44153 0.0124,-0.0496 -0.135242,-0.21569 -0.358977,-0.40383 -0.209021,-0.17576 -0.576176,-0.51656 -0.815902,-0.75733 -0.604027,-0.60666 -0.630028,-0.60258 -1.014297,0.15922 -0.166578,0.33024 -0.426618,0.81867 -0.577867,1.08541 -0.322525,0.5688 -0.347556,0.71651 -0.121266,0.7156 0.0379,-1.4e-4 0.69854,-0.16104 1.468081,-0.35754 z m -0.533433,-4.78872 c 0.02419,-0.0674 0.04683,-0.39885 0.05032,-0.73656 0.0072,-0.6968 -0.06052,-0.84976 -0.364112,-0.82245 -0.327834,0.0295 -0.418489,0.44851 -0.231255,1.06887 0.16986,0.5628 0.217539,0.64442 0.366679,0.62773 0.08003,-0.009 0.152184,-0.0646 0.178371,-0.13759 z m -3.966879,-11.11389 c 0.393607,-0.009 1.037691,-0.009 1.431298,0 0.393607,0.009 0.07157,0.0156 -0.715649,0.0156 -0.787213,0 -1.109255,-0.007 -0.715649,-0.0156 z"
       id="path16"
       inkscape:connector-curvature="0" />
    <path
       style="fill:#df3f05;stroke-width:0.05583885"
       d="m 68.598777,510.89115 c 2.052801,-0.007 5.430663,-0.007 7.506361,-10e-6 2.075699,0.007 0.396134,0.0131 -3.732364,0.0131 -4.128499,0 -5.826798,-0.006 -3.773997,-0.013 z m -4.146338,-0.11031 c -0.909879,-0.0848 -1.951884,-0.4556 -2.63762,-0.93849 -0.653599,-0.46027 -1.102934,-1.02937 -1.433873,-1.81607 l -0.190106,-0.45191 v -9.1452 -9.14519 l 0.194447,-0.46366 c 0.58432,-1.39328 1.777844,-2.28648 3.546108,-2.6538 0.478888,-0.0995 0.61263,-0.10163 6.044067,-0.0973 l 5.554344,0.004 0.457107,0.17178 c 0.893497,0.33576 1.738117,0.9147 4.776993,3.27435 2.898464,2.25063 3.692098,2.95697 3.924941,3.49325 0.0692,0.15938 0.08876,1.55217 0.104534,7.445 l 0.01941,7.24894 -0.166379,0.39734 c -0.459948,1.09842 -1.309169,1.85894 -2.620162,2.34647 -0.987261,0.36714 -0.418095,0.34512 -9.239988,0.35751 -4.355916,0.006 -8.106136,-0.006 -8.333821,-0.0275 z m 15.745448,-1.66289 c 1.017562,-0.0759 1.743978,-0.4448 2.163282,-1.0985 0.198337,-0.30921 0.233135,-0.42047 0.286235,-0.91518 0.0705,-0.65679 0.07619,-10.47496 0.0069,-11.95907 -0.05494,-1.17732 -0.05567,-1.17884 -0.695153,-1.43677 l -0.426105,-0.17187 -2.703562,-0.0189 c -2.998579,-0.0209 -2.976778,-0.0187 -3.351096,-0.34716 -0.26005,-0.22824 -0.268632,-0.30042 -0.327531,-2.75523 l -0.04704,-1.96059 -0.156869,-0.21828 c -0.08628,-0.12005 -0.280755,-0.29099 -0.432171,-0.37986 l -0.275304,-0.16159 -3.382459,0.005 c -1.860352,0.003 -4.084458,0.0192 -4.942457,0.0368 l -1.559997,0.0319 -0.443311,0.1682 c -0.555882,0.21093 -1.007337,0.56193 -1.264005,0.98276 -0.172279,0.28247 -0.199925,0.39044 -0.238682,0.93216 -0.0607,0.84842 -0.05889,16.33961 0.002,17.15511 0.04333,0.5803 0.07169,0.69787 0.230554,0.95579 0.390556,0.63406 1.223588,1.0848 2.128609,1.15175 0.691634,0.0512 14.74682,0.0545 15.428163,0.004 z m -14.325641,-3.23588 c -0.326975,-0.11438 -0.656214,-0.4457 -0.65534,-0.65947 0.001,-0.2457 0.273955,-0.62385 0.642299,-0.88985 0.488098,-0.35248 1.016444,-0.6162 2.251325,-1.12373 1.21961,-0.50125 1.03756,-0.34661 1.73213,-1.47136 0.605974,-0.98129 1.480495,-2.74524 1.480495,-2.98624 0,-0.0619 -0.110852,-0.29753 -0.246339,-0.5237 -0.701201,-1.17055 -0.985957,-2.25036 -0.736939,-2.79453 0.219047,-0.47867 0.914034,-0.80006 1.477339,-0.68319 0.330424,0.0686 0.674724,0.29321 0.861468,0.56211 0.128252,0.18467 0.138838,0.26527 0.132567,1.00944 -0.0061,0.7233 -0.02793,0.87836 -0.206743,1.46784 -0.10996,0.3625 -0.199928,0.72166 -0.199928,0.79812 0,0.2679 1.126963,1.46231 2.082001,2.20662 0.629561,0.49065 0.643581,0.49377 1.57576,0.35082 0.641412,-0.0984 2.368774,-0.11835 2.741664,-0.0317 0.96209,0.22347 1.328665,0.94984 0.747791,1.48175 -0.273047,0.25003 -0.493951,0.30913 -1.247531,0.33378 -1.099457,0.036 -1.723896,-0.0981 -2.835014,-0.60873 l -0.593091,-0.27256 -0.456528,0.0837 c -0.70339,0.12902 -3.590735,0.87452 -4.12843,1.06594 l -0.479425,0.17067 -0.539036,0.63086 c -0.642834,0.75233 -0.811426,0.9191 -1.370763,1.3559 -0.731352,0.57115 -1.404714,0.74614 -2.029732,0.5275 z m 1.017634,-0.74188 c 0.402474,-0.2054 0.870934,-0.61476 0.870934,-0.76104 0,-0.19367 -0.271797,-0.14775 -0.804251,0.13586 -0.529721,0.28216 -0.722466,0.44306 -0.722466,0.6031 0,0.22562 0.241077,0.23374 0.655783,0.0221 z m 5.347541,-3.22745 c 0.739202,-0.18676 1.401256,-0.34689 1.47123,-0.35585 0.259442,-0.0332 0.189407,-0.22277 -0.201966,-0.54664 -0.203804,-0.16865 -0.585247,-0.52149 -0.847652,-0.78408 -0.667572,-0.66804 -0.670395,-0.66729 -1.176006,0.31063 -0.216039,0.41785 -0.483519,0.92195 -0.594401,1.12022 -0.254044,0.45425 -0.257181,0.55249 -0.01889,0.59142 0.01302,0.002 0.628482,-0.14893 1.367685,-0.3357 z m 6.555639,0.24452 c 0.162004,-0.1036 0.118253,-0.23825 -0.106673,-0.32831 -0.274641,-0.10997 -1.750869,-0.12849 -1.914412,-0.024 -0.377448,0.24111 0.321118,0.45498 1.400856,0.42889 0.311659,-0.008 0.560272,-0.0382 0.620229,-0.0766 z m -6.916171,-5.08824 c 0.02782,-0.10109 0.05059,-0.46274 0.05059,-0.80365 0,-0.54078 -0.01546,-0.633 -0.121183,-0.72297 -0.255023,-0.21701 -0.572362,-0.0829 -0.646232,0.27299 -0.04515,0.21757 0.09682,0.87543 0.26525,1.22912 0.0786,0.16504 0.130544,0.20831 0.25009,0.20831 0.122959,0 0.160256,-0.034 0.201483,-0.1838 z m -4.004752,-11.12615 c 0.393607,-0.009 1.037691,-0.009 1.431298,0 0.393607,0.009 0.07157,0.0156 -0.715649,0.0156 -0.787213,0 -1.109255,-0.007 -0.715649,-0.0156 z"
       id="path14"
       inkscape:connector-curvature="0" />
  </g>
</svg>
