<?xml version="1.0" encoding="UTF-8" standalone="no"?>
<!-- Created with Inkscape (http://www.inkscape.org/) -->

<svg
   xmlns:dc="http://purl.org/dc/elements/1.1/"
   xmlns:cc="http://creativecommons.org/ns#"
   xmlns:rdf="http://www.w3.org/1999/02/22-rdf-syntax-ns#"
   xmlns:svg="http://www.w3.org/2000/svg"
   xmlns="http://www.w3.org/2000/svg"
   xmlns:sodipodi="http://sodipodi.sourceforge.net/DTD/sodipodi-0.dtd"
   xmlns:inkscape="http://www.inkscape.org/namespaces/inkscape"
   version="1.1"
   id="svg10"
   width="24.999998"
   height="24.999943"
   viewBox="0 0 24.999998 24.999943"
   sodipodi:docname="gmail.svg"
   inkscape:version="0.92.4 (5da689c313, 2019-01-14)">
  <metadata
     id="metadata16">
    <rdf:RDF>
      <cc:Work
         rdf:about="">
        <dc:format>image/svg+xml</dc:format>
        <dc:type
           rdf:resource="http://purl.org/dc/dcmitype/StillImage" />
        <dc:title></dc:title>
      </cc:Work>
    </rdf:RDF>
  </metadata>
  <defs
     id="defs14" />
  <sodipodi:namedview
     pagecolor="#ffffff"
     bordercolor="#666666"
     borderopacity="1"
     objecttolerance="10"
     gridtolerance="10"
     guidetolerance="10"
     inkscape:pageopacity="0"
     inkscape:pageshadow="2"
     inkscape:window-width="1600"
     inkscape:window-height="821"
     id="namedview12"
     showgrid="false"
     inkscape:pagecheckerboard="true"
     fit-margin-top="0"
     fit-margin-left="0"
     fit-margin-right="0"
     fit-margin-bottom="0"
     inkscape:zoom="6.607029"
     inkscape:cx="12.655016"
     inkscape:cy="12.908525"
     inkscape:window-x="-9"
     inkscape:window-y="-9"
     inkscape:window-maximized="1"
     inkscape:current-layer="g20" />
  <g
     id="g20"
     sodipodi:insensitive="true"
     inkscape:groupmode="layer"
     transform="translate(-22.116786,-393.86272)">
    <path
       style="display:inline;fill:#eae6d8;stroke-width:1"
       d="m 23.929177,418.76816 c -0.824365,-0.25845 -1.470028,-1.11434 -1.714927,-2.27331 -0.103165,-0.48822 -0.10531,-0.72987 -0.09131,-10.28643 l 0.01434,-9.78646 0.126069,-0.44854 c 0.241986,-0.86096 0.818669,-1.64286 1.425121,-1.93225 0.374363,-0.17864 1.334637,-0.2415 1.577934,-0.10329 0.158476,0.09 1.63227,0.097 9.60133,0.0456 5.177764,-0.0334 9.630748,-0.0665 9.89552,-0.0735 0.333843,-0.009 0.57158,0.0287 0.775595,0.12242 0.625599,0.28752 1.20476,1.06178 1.451865,1.94096 l 0.12607,0.44854 v 9.97836 9.97835 l -0.171243,0.51876 c -0.329417,0.99793 -0.96425,1.71325 -1.689246,1.90341 -0.178564,0.0468 -0.596828,0.0626 -0.989552,0.0373 -0.374139,-0.0241 -4.712008,-0.0701 -9.63971,-0.10221 -7.156936,-0.0466 -9.007884,-0.0389 -9.20016,0.0386 -0.298389,0.12027 -1.104618,0.11682 -1.4977,-0.006 z"
       id="path34"
       inkscape:connector-curvature="0" />
    <path
       style="display:inline;fill:#eca299;stroke-width:1"
       d="m 23.929177,418.68977 c -0.792424,-0.25282 -1.420464,-1.08098 -1.661072,-2.19033 -0.100784,-0.46468 -0.104075,-0.78523 -0.104075,-10.1375 0,-9.35228 0.0033,-9.67283 0.104075,-10.13751 0.24805,-1.14366 0.917465,-1.99527 1.739908,-2.21344 0.49227,-0.13058 1.103287,-0.10807 1.256883,0.0463 0.0711,0.0715 2.268322,2.64472 4.882719,5.71836 2.614399,3.07364 4.770023,5.58815 4.790276,5.5878 0.02025,-3.8e-4 2.106862,-2.54241 4.636906,-5.64902 2.530044,-3.10662 4.655804,-5.67959 4.723913,-5.71773 0.305354,-0.17098 1.102383,-0.0186 1.530337,0.2926 0.391086,0.28439 0.652893,0.61254 0.882708,1.10639 0.406163,0.87281 0.385196,0.23385 0.367416,11.19651 l -0.01587,9.78646 -0.166371,0.49892 c -0.307887,0.9233 -0.831431,1.5561 -1.489663,1.80053 -0.451144,0.16753 -1.577802,0.16314 -1.810054,-0.007 -0.09415,-0.069 -2.125599,-1.6924 -4.514329,-3.60756 -2.388732,-1.91516 -4.387334,-3.48211 -4.441339,-3.48211 -0.0862,0 -1.909958,1.38861 -7.876399,5.99711 l -1.576899,1.218 -0.482439,-0.006 c -0.265342,-0.004 -0.614826,-0.0487 -0.776631,-0.10029 z m 5.937312,-3.87082 c 2.427077,-1.89147 4.412867,-3.48112 4.412867,-3.53257 0,-0.12151 -8.854029,-10.22833 -8.913935,-10.1752 -0.0531,0.0471 -0.0629,17.02076 -0.0099,17.09686 0.01961,0.0281 0.0497,0.0509 0.06686,0.0506 0.01716,-3.1e-4 2.016992,-1.54818 4.444069,-3.43965 z"
       id="path32"
       inkscape:connector-curvature="0" />
    <path
       style="display:inline;fill:#b7b4b0;stroke-width:1"
       d="m 23.948593,418.64128 c -0.605361,-0.1753 -1.27973,-0.96246 -1.560128,-1.82105 l -0.144201,-0.44156 V 406.36194 396.3452 l 0.144901,-0.44374 c 0.213421,-0.65359 0.658291,-1.28481 1.121379,-1.59111 0.344331,-0.22775 0.442455,-0.256 1.004639,-0.28922 l 0.623036,-0.0368 2.136806,2.51322 c 1.175242,1.38228 3.359439,3.95137 4.853769,5.70909 1.49433,1.75772 2.749329,3.20629 2.788885,3.21904 0.03956,0.0127 2.141263,-2.51354 4.670456,-5.61398 2.529194,-3.10044 4.654566,-5.68019 4.723049,-5.73278 0.08642,-0.0664 0.269264,-0.0822 0.597686,-0.0516 0.638387,0.0593 1.098281,0.358 1.513701,0.98297 0.4225,0.63563 0.563972,1.12334 0.618159,2.13106 0.069,1.28327 0.06072,18.39114 -0.0092,18.93545 -0.133418,1.03911 -0.597776,1.90543 -1.264107,2.35835 l -0.362292,0.24628 h -0.909318 -0.909318 l -4.446211,-3.56783 c -3.803778,-3.05231 -4.433665,-3.58181 -4.359378,-3.66466 0.135082,-0.15064 -0.615247,0.42037 -5.155119,3.92312 -3.687305,2.84494 -4.227909,3.24059 -4.243349,3.10554 -0.0097,-0.0851 -0.0097,-0.16271 0,-0.17242 0.0097,-0.01 1.96738,-1.5324 4.350328,-3.38373 2.382948,-1.85134 4.395526,-3.42827 4.472394,-3.50428 0.07687,-0.076 0.158392,-0.11333 0.181163,-0.0829 0.02277,0.0304 0.03209,0.0147 0.02071,-0.035 -0.04007,-0.17488 -8.990892,-10.3207 -9.067764,-10.27836 -0.06435,0.0354 -0.07484,1.33639 -0.0714,8.85105 l 0.004,8.80952 -0.551009,0.012 c -0.303054,0.007 -0.650587,-0.0168 -0.772294,-0.0521 z"
       id="path30"
       inkscape:connector-curvature="0" />
    <path
       style="display:inline;fill:#e6847b;stroke-width:1"
       d="m 23.948593,418.64128 c -0.605361,-0.1753 -1.27973,-0.96246 -1.560128,-1.82105 l -0.144201,-0.44156 V 406.36194 396.3452 l 0.144901,-0.44374 c 0.213421,-0.65359 0.658291,-1.28481 1.121379,-1.59111 0.344331,-0.22775 0.442455,-0.256 1.004639,-0.28922 l 0.623036,-0.0368 2.136806,2.51322 c 1.175242,1.38228 3.359439,3.95137 4.853769,5.70909 1.49433,1.75772 2.749329,3.20629 2.788885,3.21904 0.03956,0.0127 2.141263,-2.51354 4.670456,-5.61398 2.529194,-3.10044 4.654566,-5.68019 4.723049,-5.73278 0.08642,-0.0664 0.269264,-0.0822 0.597686,-0.0516 0.638387,0.0593 1.098281,0.358 1.513701,0.98297 0.4225,0.63563 0.563972,1.12334 0.618159,2.13106 0.069,1.28327 0.06072,18.39114 -0.0092,18.93545 -0.133418,1.03911 -0.597776,1.90543 -1.264107,2.35835 -0.360817,0.24528 -0.365777,0.24628 -1.218121,0.24628 h -0.855829 l -0.02674,-8.4816 c -0.02047,-6.49299 -0.0417,-8.48161 -0.09051,-8.48161 -0.03507,0 -2.006088,2.15878 -4.380036,4.79729 -2.37395,2.63851 -4.367151,4.83924 -4.429336,4.89051 -0.156998,0.12945 -0.182469,0.12295 -0.316205,-0.0808 -0.295989,-0.45087 -9.042244,-10.34247 -9.111293,-10.30445 -0.06446,0.0355 -0.07493,1.33188 -0.07149,8.8511 l 0.004,8.80952 -0.551009,0.012 c -0.303054,0.007 -0.650587,-0.0168 -0.772294,-0.0521 z"
       id="path28"
       inkscape:connector-curvature="0" />
    <path
       style="display:inline;fill:#f55e52;stroke-width:1"
       d="m 43.787314,418.65668 c -0.05239,-0.0477 -0.06954,-1.87945 -0.08023,-8.56998 -0.009,-5.61861 -0.03188,-8.518 -0.06739,-8.53499 -0.02958,-0.0142 -2.015373,2.15456 -4.412867,4.81935 -2.397495,2.66479 -4.410551,4.89416 -4.473459,4.95415 -0.108442,0.10342 -0.35389,-0.16391 -4.730213,-5.15195 -2.538717,-2.89357 -4.647547,-5.26104 -4.686295,-5.26104 -0.05787,0 -0.07045,1.58465 -0.07045,8.87292 v 8.87291 l -0.708733,-0.0269 c -0.662207,-0.0251 -0.731774,-0.0425 -1.059716,-0.26538 -0.648908,-0.44101 -1.115449,-1.31431 -1.227715,-2.2981 -0.07019,-0.6151 -0.07019,-18.79646 0,-19.41157 0.112254,-0.98369 0.578739,-1.85693 1.227715,-2.29822 0.335075,-0.22785 0.381586,-0.23867 1.026252,-0.23867 h 0.675271 l 4.84446,5.69918 c 2.664452,3.13454 4.866963,5.69917 4.894468,5.69917 0.02751,0 2.153068,-2.57685 4.723472,-5.72634 l 4.673461,-5.72635 0.534893,0.0292 c 0.461183,0.0252 0.583259,0.0618 0.885876,0.26583 0.659257,0.4445 1.121791,1.32317 1.230775,2.3381 0.03321,0.3093 0.04724,4.03519 0.03785,10.0517 l -0.01493,9.56021 -0.201435,0.58483 c -0.331801,0.96332 -0.90636,1.57112 -1.648553,1.74393 -0.403072,0.0938 -1.276689,0.10529 -1.372507,0.018 z"
       id="path26"
       inkscape:connector-curvature="0" />
    <path
       style="display:inline;fill:#fd493c;stroke-width:1"
       d="m 43.760335,418.59922 c -0.02206,-0.0322 -0.04012,-3.90408 -0.04012,-8.60414 0,-7.66174 -0.0086,-8.54556 -0.08278,-8.54556 -0.04553,0 -2.061407,2.1987 -4.479729,4.88601 -2.418322,2.68731 -4.440461,4.90245 -4.493644,4.92253 -0.05632,0.0213 -0.156825,-0.0433 -0.240702,-0.15472 -0.490943,-0.65201 -9.017036,-10.26788 -9.104201,-10.26788 -0.10538,0 -0.106239,0.0718 -0.106239,8.8731 v 8.87309 l -0.681989,-0.0281 c -0.603736,-0.0249 -0.717295,-0.0517 -0.989693,-0.23383 -0.613259,-0.40996 -1.095324,-1.28255 -1.215934,-2.20096 -0.07435,-0.56615 -0.07435,-18.94745 0,-19.5136 0.12063,-0.91856 0.602921,-1.79145 1.215934,-2.20069 0.268465,-0.17922 0.390016,-0.20901 0.953157,-0.23362 l 0.645451,-0.0282 4.863946,5.72799 c 2.802225,3.30002 4.900925,5.71896 4.951186,5.70668 0.04798,-0.0117 2.173768,-2.5773 4.723971,-5.70129 l 4.636734,-5.67999 0.544724,0.001 c 0.477325,10e-4 0.582796,0.0268 0.852428,0.20693 0.617362,0.41249 1.097794,1.2865 1.217018,2.21402 0.03609,0.28077 0.04999,3.73192 0.04065,10.09514 l -0.01419,9.66852 -0.173373,0.50533 c -0.216392,0.63072 -0.593123,1.14799 -1.071679,1.47148 -0.342984,0.23185 -0.395519,0.24439 -1.135221,0.27106 -0.426578,0.0154 -0.793648,0.002 -0.815712,-0.0306 z"
       id="path24"
       inkscape:connector-curvature="0" />
    <path
       style="display:inline;fill:#be2b1f;stroke-width:1"
       d="m 43.760335,418.59922 c -0.02206,-0.0322 -0.04012,-3.91844 -0.04012,-8.63605 v -8.57749 l 1.579149,-1.75267 c 0.868532,-0.96397 1.603051,-1.76437 1.632265,-1.77866 0.03502,-0.0171 0.04827,3.13436 0.0389,9.25081 l -0.01422,9.27681 -0.173373,0.50533 c -0.216392,0.63071 -0.593125,1.14799 -1.071679,1.47147 -0.342984,0.23185 -0.395519,0.24439 -1.135221,0.27106 -0.426578,0.0154 -0.793648,0.002 -0.815712,-0.0306 z"
       id="path22"
       inkscape:connector-curvature="0" />
  </g>
</svg>
