<?xml version="1.0" encoding="UTF-8" standalone="no"?>
<!-- Created with Inkscape (http://www.inkscape.org/) -->

<svg
   xmlns:dc="http://purl.org/dc/elements/1.1/"
   xmlns:cc="http://creativecommons.org/ns#"
   xmlns:rdf="http://www.w3.org/1999/02/22-rdf-syntax-ns#"
   xmlns:svg="http://www.w3.org/2000/svg"
   xmlns="http://www.w3.org/2000/svg"
   xmlns:sodipodi="http://sodipodi.sourceforge.net/DTD/sodipodi-0.dtd"
   xmlns:inkscape="http://www.inkscape.org/namespaces/inkscape"
   version="1.1"
   id="svg2"
   width="24.99999"
   height="25.000025"
   viewBox="0 0 24.999991 25.000024"
   sodipodi:docname="LI-Logo.svg"
   inkscape:version="0.92.4 (5da689c313, 2019-01-14)">
  <metadata
     id="metadata8">
    <rdf:RDF>
      <cc:Work
         rdf:about="">
        <dc:format>image/svg+xml</dc:format>
        <dc:type
           rdf:resource="http://purl.org/dc/dcmitype/StillImage" />
        <dc:title></dc:title>
      </cc:Work>
    </rdf:RDF>
  </metadata>
  <defs
     id="defs6" />
  <sodipodi:namedview
     pagecolor="#ffffff"
     bordercolor="#666666"
     borderopacity="1"
     objecttolerance="10"
     gridtolerance="10"
     guidetolerance="10"
     inkscape:pageopacity="0"
     inkscape:pageshadow="2"
     inkscape:window-width="1600"
     inkscape:window-height="821"
     id="namedview4"
     showgrid="false"
     inkscape:pagecheckerboard="true"
     fit-margin-top="0"
     fit-margin-left="0"
     fit-margin-right="0"
     fit-margin-bottom="0"
     inkscape:zoom="5.033844"
     inkscape:cx="77.108856"
     inkscape:cy="6.6484219"
     inkscape:window-x="-9"
     inkscape:window-y="-9"
     inkscape:window-maximized="1"
     inkscape:current-layer="g3715" />
  <g
     id="g3715"
     transform="translate(0,-147.72052)">
    <path
       style="display:inline;fill:#c8d8ea;stroke-width:0.02288097"
       d="m 24.474135,172.66503 c -0.131871,-0.0978 -0.246425,-0.51725 -0.297882,-1.09069 -0.02813,-0.31345 -0.02527,-0.8836 0.0061,-1.21717 0.03245,-0.34502 0.128546,-0.77527 0.209296,-0.93709 0.11288,-0.2262 0.267113,-0.23304 0.376539,-0.0167 0.06207,0.12272 0.150389,0.44572 0.185494,0.67837 0.01358,0.09 0.03082,0.32743 0.03903,0.53746 0.01879,0.48073 1.06e-4,1.04563 -0.04344,1.31348 -0.06914,0.42525 -0.150169,0.65357 -0.260712,0.73463 -0.09737,0.0714 -0.115328,0.0712 -0.214436,-0.002 z m 0.262872,-0.38857 c 0.07424,-0.15789 0.122833,-0.36457 0.159647,-0.67896 0.08207,-0.70093 0.01284,-1.50325 -0.162788,-1.88641 -0.06942,-0.15146 -0.229956,-0.15054 -0.299798,0.002 -0.07769,0.16938 -0.132357,0.40282 -0.165791,0.70797 -0.02702,0.24658 -0.03047,0.32871 -0.02679,0.63727 0.0052,0.43846 0.03749,0.72257 0.11409,1.00464 0.07282,0.26818 0.128193,0.34478 0.240108,0.33217 0.06931,-0.008 0.102334,-0.0355 0.141322,-0.1184 z m -0.311515,-0.3446 c -0.0031,-0.0326 -0.0042,-0.46498 -0.0025,-0.96088 l 0.0031,-0.90162 0.115316,-0.0132 c 0.173429,-0.0198 0.230662,0.11916 0.232305,0.56408 8.69e-4,0.23474 -0.02372,0.42244 -0.06558,0.50054 -0.01522,0.0284 -0.02767,0.0703 -0.02767,0.0931 0,0.0228 0.02035,0.16416 0.04522,0.31418 0.0582,0.35102 0.0595,0.46307 0.0054,0.46307 -0.03752,0 -0.04344,-0.0227 -0.102464,-0.39361 -0.043,-0.27017 -0.06951,-0.39361 -0.08454,-0.39361 -0.01966,0 -0.0219,0.0345 -0.0219,0.33804 0,0.20118 -0.0055,0.36054 -0.01357,0.39361 -0.01801,0.0738 -0.07612,0.0712 -0.08314,-0.004 z m 0.19802,-1.08187 c 0.0443,-0.0363 0.06548,-0.18903 0.04643,-0.33486 -0.01091,-0.0835 -0.0231,-0.0985 -0.0803,-0.0985 h -0.06744 v 0.20067 c 0,0.11036 0.0034,0.21455 0.0075,0.23153 0.0095,0.039 0.04699,0.0395 0.09378,0.001 z m -6.466086,1.66898 c -0.169048,-0.18608 -0.302801,-0.81994 -0.328884,-1.55859 -0.01489,-0.42178 -0.01367,-21.32482 0.0013,-21.70198 0.01558,-0.39337 0.06068,-0.75955 0.127079,-1.03189 0.0635,-0.26044 0.103221,-0.35225 0.188595,-0.43591 0.09541,-0.0935 5.33112,-0.0934 5.440226,9e-5 0.128882,0.11045 0.237847,0.51117 0.294065,1.08142 l 0.02623,0.26637 0.003,10.85905 c 0.0021,7.64145 -6.22e-4,10.93073 -0.0092,11.10098 -0.03252,0.64422 -0.157652,1.20545 -0.312423,1.40126 -0.07311,0.0925 -0.09783,0.0933 -2.720961,0.0903 -2.291216,-0.003 -2.655497,-0.0122 -2.708994,-0.0711 z m 1.452418,-9.58093 v -5.83472 h -0.423966 -0.423966 l -0.0029,5.78841 c -0.0016,3.18362 -4.63e-4,5.81471 0.0025,5.84686 0.0043,0.0459 0.09577,0.0558 0.426874,0.0463 l 0.421442,-0.0121 z m 1.464194,2.88262 c 1.06e-4,-2.98428 0.0077,-3.79303 0.04073,-4.31516 0.0673,-1.06476 0.239318,-1.60159 0.512703,-1.60004 0.25504,0.001 0.39204,0.44466 0.460412,1.48945 0.01693,0.25875 0.0199,0.70514 0.0255,3.83534 l 0.0063,3.5425 h 0.429619 0.429619 l -4.73e-4,-3.77404 c -4.17e-4,-3.28985 -0.0029,-3.84575 -0.01964,-4.33301 -0.0627,-1.82881 -0.21075,-2.86394 -0.489142,-3.41995 -0.216249,-0.43191 -0.602421,-0.57423 -0.829872,-0.30585 -0.21126,0.24926 -0.398,0.79783 -0.520671,1.52949 -0.0326,0.19446 -0.04408,0.23042 -0.06371,0.19956 -0.01131,-0.0178 -0.01563,-0.20864 -0.01798,-0.79451 l -0.0031,-0.77112 h -0.407007 -0.407008 l -0.0029,5.78841 c -0.0016,3.18362 -4.87e-4,5.81446 0.0025,5.84629 0.0042,0.0449 0.10065,0.0579 0.4297,0.0579 h 0.424321 l 1.06e-4,-2.97525 z m -1.671239,-10.69687 c 0.375531,-0.76018 0.378771,-2.93304 0.0055,-3.68571 -0.25555,-0.51529 -0.553827,-0.0743 -0.678441,1.00305 -0.03371,0.29147 -0.03578,0.34002 -0.03578,0.84184 0,0.50311 0.002,0.54983 0.0362,0.84551 0.04503,0.38941 0.130548,0.76543 0.216991,0.95414 0.09009,0.19668 0.135701,0.23539 0.262494,0.22277 0.09977,-0.01 0.115585,-0.0248 0.193041,-0.1816 z m -7.524305,14.01623 c -0.543522,-0.34628 -0.961394,-1.53846 -1.183755,-3.37724 -0.121101,-1.00142 -0.163566,-1.8509 -0.153938,-3.07943 0.01335,-1.70413 0.138579,-2.96979 0.40614,-4.10492 0.303086,-1.28585 0.718127,-1.9643 1.206753,-1.97262 0.202361,-0.003 0.313459,0.0601 0.479071,0.27402 0.372491,0.48116 0.663339,1.65992 0.80354,3.25662 0.08081,0.92031 0.111205,1.811 0.105878,3.10259 l -0.0035,0.85668 -1.032898,0.0118 -1.032898,0.0118 0.0077,0.1734 c 0.0042,0.0954 0.02563,0.32686 0.04751,0.51441 0.04979,0.42672 0.169854,0.93753 0.27157,1.15539 0.08717,0.18669 0.223716,0.33275 0.311091,0.33275 0.222052,0 0.459032,-0.4635 0.592351,-1.15855 0.02922,-0.15234 0.05693,-0.27698 0.06158,-0.27698 0.0096,0 0.08022,0.20591 0.403702,1.17751 0.17233,0.51759 0.228946,0.7118 0.228962,0.7854 0,0.14937 -0.202715,0.93232 -0.334228,1.29069 -0.194208,0.52921 -0.412226,0.88064 -0.638088,1.02857 -0.132506,0.0868 -0.408817,0.0858 -0.546538,-0.002 z m 0.734048,-7.72372 c 0.0098,-0.10449 -0.02762,-0.67626 -0.06056,-0.92565 -0.08031,-0.60801 -0.238825,-1.02824 -0.412072,-1.09243 -0.281475,-0.10429 -0.498305,0.36074 -0.614105,1.31707 -0.02159,0.17828 -0.04246,0.42313 -0.04639,0.54411 l -0.0071,0.21996 h 0.567179 c 0.468127,0 0.568211,-0.011 0.573087,-0.0631 z m 2.384551,7.7472 c -0.537976,-0.29598 -0.955583,-1.68048 -1.134864,-3.76245 -0.06903,-0.80169 -0.08481,-1.23906 -0.08552,-2.3704 -5.54e-4,-0.88352 0.0028,-1.08778 0.0251,-1.53868 0.141878,-2.86679 0.620811,-4.76198 1.239306,-4.90407 0.235967,-0.0542 0.502085,0.13779 0.680076,0.49066 0.09811,0.1945 0.254755,0.66896 0.276951,0.83883 0.0077,0.0586 0.01706,0.0819 0.0231,0.0572 0.0058,-0.0237 0.01143,-1.4584 0.01308,-3.32751 l 0.0029,-3.28582 h 0.457884 0.457883 l 0.0029,8.72403 c 0.0021,6.40979 -5.2e-4,8.74068 -0.0099,8.7868 -0.01748,0.0863 -0.812028,0.0932 -0.833011,0.007 -0.0093,-0.038 -0.01357,-0.26447 -0.01357,-0.71776 0,-0.36421 -0.0014,-0.6622 -0.0032,-0.6622 -0.0017,0 -0.04117,0.15227 -0.08762,0.33838 -0.147379,0.59048 -0.342791,1.04548 -0.531525,1.23762 -0.110777,0.11277 -0.35408,0.15748 -0.480003,0.0882 z m 0.653787,-3.48786 c 0.213188,-0.29632 0.346818,-0.87006 0.416512,-1.7883 0.02274,-0.29967 0.02624,-0.43941 0.02551,-1.01876 -7.56e-4,-0.59726 -0.0042,-0.7128 -0.03097,-1.04555 -0.09451,-1.17376 -0.342493,-1.87181 -0.664955,-1.87181 -0.36101,0 -0.622498,0.88734 -0.683506,2.31943 -0.0598,1.40373 0.07682,2.70962 0.338926,3.23958 0.127185,0.25716 0.209386,0.32403 0.374315,0.30449 0.110075,-0.013 0.152364,-0.0393 0.224168,-0.13908 z M 0.01356691,168.87926 C 0.00311095,168.83643 0,166.82444 0,160.10492 v -8.71878 l 0.02543796,-0.0253 c 0.01399088,-0.0139 0.22894168,-0.0195 0.47766846,-0.0125 l 0.45223046,0.0129 0.005653,6.94609 0.005653,6.94609 0.85923782,0.0231 0.859238,0.0232 0.00296,1.75425 c 0.00212,1.25633 -6.773e-4,1.77222 -0.00986,1.81756 -0.017762,0.0877 -2.64327784,0.0953 -2.66465167,0.008 z m 3.06806079,-0.0172 c -0.015964,-0.0654 -0.017766,-0.66801 -0.017766,-5.94122 0,-4.50261 0.00316,-5.88139 0.013567,-5.92402 0.019483,-0.0798 0.8917612,-0.0798 0.9112442,0 0.010409,0.0426 0.013567,1.42141 0.013567,5.92402 0,5.27321 -0.0018,5.87583 -0.017766,5.94122 -0.015534,0.0636 -0.072264,0.0728 -0.4514231,0.0728 -0.379159,0 -0.4358893,-0.009 -0.4514231,-0.0728 z m 1.3982806,0.0421 c -0.011203,-0.0185 -0.014132,-1.25502 -0.014132,-5.96503 0,-5.3753 0.0017,-5.94435 0.017883,-5.96977 0.00984,-0.0155 0.2028011,-0.0281 0.4288114,-0.0281 0.3584968,0 0.4131948,0.009 0.4286943,0.0728 0.014519,0.0595 0.017766,0.19559 0.017766,0.7447 v 0.67193 l 0.061589,-0.31636 c 0.1348427,-0.69264 0.3366153,-1.19683 0.5512724,-1.37753 0.1096493,-0.0923 0.3291358,-0.0951 0.4724922,-0.006 0.4811651,0.29883 0.7284588,1.39662 0.8212187,3.64556 0.017438,0.42279 0.020186,0.93706 0.023797,4.4528 0.00308,2.99565 8.126e-4,3.99094 -0.00919,4.0403 -0.018632,0.092 -0.8829775,0.0981 -0.901556,0.006 -0.0081,-0.04 -0.013421,-1.18181 -0.016455,-3.53093 -0.004,-3.10065 -0.0066,-3.50898 -0.024254,-3.81915 -0.062346,-1.09519 -0.197211,-1.52376 -0.4627678,-1.47059 -0.2028434,0.0406 -0.3193772,0.32694 -0.3974018,0.97642 -0.078253,0.65138 -0.077285,0.59951 -0.081833,4.38194 -0.00281,2.33227 -0.00791,3.42038 -0.016232,3.46147 -0.00957,0.0472 -0.1044921,0.0591 -0.4488554,0.0563 -0.240193,-0.002 -0.4430734,-0.0142 -0.4508462,-0.027 z m 3.2441883,-0.0249 c -0.019739,-0.0808 -0.019739,-17.40477 0,-17.48562 0.019483,-0.0798 0.8917614,-0.0798 0.9112444,0 0.010386,0.0425 0.013567,1.24267 0.013567,5.11968 0,3.16618 0.004,5.05399 0.010679,5.03709 0.00587,-0.0149 0.2182319,-1.01113 0.4719074,-2.21391 0.2536755,-1.20278 0.4725413,-2.23395 0.4863682,-2.2915 l 0.02514,-0.10463 0.5515624,0.012 c 0.502482,0.011 0.551562,0.0188 0.551562,0.088 0,0.0418 -0.25438,1.25871 -0.565288,2.70432 -0.3109089,1.44561 -0.569566,2.66404 -0.5747938,2.70763 -0.0074,0.0617 0.1158932,0.77175 0.5578998,3.21269 0.358436,1.97944 0.565037,3.15872 0.560976,3.20207 -0.0056,0.0596 -0.08127,0.067 -0.574858,0.0566 l -0.5684298,-0.012 -0.4635362,-2.84195 -0.4635362,-2.84195 -0.00291,2.79133 c -0.00206,1.96794 -0.00663,2.80969 -0.015517,2.85353 -0.017399,0.0859 -0.8911356,0.0922 -0.9120322,0.007 z m -4.325273,-13.46843 c -0.081703,-0.0839 -0.1976439,-0.37096 -0.2567104,-0.63567 -0.2462481,-1.10358 -0.172164,-2.80548 0.1505607,-3.45877 0.2094336,-0.42396 0.439877,-0.28335 0.6072446,0.37053 0.2755935,1.07669 0.2033013,2.90231 -0.1414856,3.57296 -0.079518,0.15468 -0.096512,0.17007 -0.2013383,0.18241 -0.06297,0.007 -0.1341915,-0.007 -0.158271,-0.0315 z"
       id="path3729"
       inkscape:connector-curvature="0" />
    <path
       style="display:inline;fill:#b3c9e3;stroke-width:0.02288097"
       d="m 24.460016,172.64509 c -0.106462,-0.1155 -0.205568,-0.47219 -0.258908,-0.93183 -0.03105,-0.26759 -0.03492,-0.34725 -0.03481,-0.71776 1.06e-4,-0.35363 0.0047,-0.45687 0.03024,-0.68155 0.08391,-0.73758 0.272283,-1.15392 0.458504,-1.01338 0.04058,0.0306 0.09415,0.0983 0.119049,0.15027 0.06539,0.13664 0.146152,0.46306 0.184254,0.74475 0.03138,0.23196 0.03303,0.27214 0.03298,0.79991 -1.06e-4,0.64066 -0.0131,0.78813 -0.105343,1.19203 -0.08186,0.35846 -0.143146,0.46403 -0.278992,0.48058 -0.06218,0.008 -0.12832,-0.003 -0.146975,-0.023 z m 0.250779,-0.29065 c 0.0887,-0.13592 0.17237,-0.48076 0.206487,-0.85099 0.06373,-0.6916 -0.01423,-1.48442 -0.17846,-1.81475 -0.05379,-0.10819 -0.07842,-0.12872 -0.154443,-0.12872 -0.07622,0 -0.100606,0.0204 -0.155051,0.12994 -0.07925,0.15939 -0.14738,0.46649 -0.178092,0.8027 -0.105893,1.15925 0.175118,2.29772 0.459559,1.86182 z m -0.276459,-1.3212 0.0031,-0.91758 0.115685,-0.0132 c 0.08883,-0.0101 0.123812,0.004 0.150692,0.061 0.03533,0.0748 0.06714,0.30488 0.06714,0.48557 0,0.15699 -0.03188,0.36295 -0.06802,0.43951 -0.01855,0.0393 -0.03373,0.0924 -0.03373,0.11801 0,0.0256 0.02266,0.18492 0.05035,0.354 0.0277,0.16909 0.04774,0.32473 0.04456,0.34585 -0.0032,0.0211 -0.02058,0.0384 -0.03865,0.0384 -0.02866,0 -0.04017,-0.0467 -0.09019,-0.36615 -0.03154,-0.20139 -0.06479,-0.37786 -0.07389,-0.39216 -0.03856,-0.0606 -0.04947,0.018 -0.05283,0.38051 l -0.0033,0.35465 -0.03699,0.0146 -0.03698,0.0146 z m 0.224273,-0.20144 c 0.0151,-0.0331 0.02187,-0.0971 0.02187,-0.20676 0,-0.20255 -0.02629,-0.26407 -0.104917,-0.24548 l -0.05902,0.0139 -0.0034,0.24311 -0.0034,0.24311 h 0.06352 c 0.03493,0 0.07336,-0.0216 0.08538,-0.0479 z m -6.509628,1.64801 c -0.119833,-0.15389 -0.219031,-0.52311 -0.278364,-1.03607 l -0.03578,-0.30932 v -10.99797 c 0,-10.42995 0.001,-11.00874 0.0201,-11.20636 0.05354,-0.55515 0.161634,-0.97436 0.288364,-1.1183 0.07243,-0.0823 0.181364,-0.0857 2.726893,-0.0851 2.242972,4.7e-4 2.660653,0.0106 2.711211,0.0657 0.122139,0.13317 0.221069,0.49291 0.281928,1.02519 l 0.03139,0.27461 v 11.04525 11.04526 l -0.03656,0.30417 c -0.04463,0.37128 -0.135588,0.73789 -0.226272,0.91195 l -0.06504,0.12484 -2.685118,0.009 c -2.198252,0.007 -2.693758,-0.002 -2.732762,-0.0525 z m 1.463734,-3.67588 c 0.01127,-0.0293 0.01359,-1.23382 0.01131,-5.86874 l -0.0029,-5.83187 h -0.435272 -0.435272 l -0.0029,5.83187 c -0.0023,4.63492 0,5.83944 0.01131,5.86874 0.0078,0.0203 0.199874,0.0369 0.426837,0.0369 0.226963,0 0.419039,-0.0166 0.426836,-0.0369 z m 1.454648,0.0102 c 0.01606,-0.0252 0.01789,-0.34696 0.01791,-3.16047 0,-3.29849 0.0049,-3.70747 0.05075,-4.30134 0.04786,-0.61942 0.122053,-0.97966 0.253762,-1.2321 0.066,-0.1265 0.08778,-0.14357 0.205054,-0.1607 0.151171,-0.0221 0.222114,0.0406 0.307091,0.2711 0.09499,0.25772 0.149689,0.66433 0.186663,1.38769 0.01481,0.28975 0.01886,0.91519 0.02444,3.77404 l 0.0067,3.42674 h 0.429619 0.429619 v -3.98243 c 0,-3.92515 -3.6e-4,-3.99063 -0.02535,-4.55334 -0.05132,-1.15582 -0.131445,-1.87528 -0.274743,-2.46698 -0.143897,-0.59418 -0.32447,-0.89775 -0.604284,-1.01591 -0.397753,-0.16797 -0.711607,0.32825 -0.929063,1.46889 -0.04104,0.21528 -0.07889,0.37392 -0.08411,0.35255 -0.0052,-0.0214 -0.01089,-0.37178 -0.01261,-0.77869 l -0.0031,-0.73983 h -0.418313 -0.418314 l -0.0029,5.8066 c -0.0021,4.25266 5.29e-4,5.82342 0.0099,5.86945 0.01029,0.0508 0.09132,0.0628 0.423085,0.0628 0.225692,0 0.418398,-0.0126 0.428234,-0.0281 z m -1.751865,-13.51828 c 0.09504,-0.1014 0.166624,-0.27556 0.236388,-0.57513 0.107424,-0.4613 0.149036,-0.9337 0.139922,-1.58847 -0.0049,-0.35311 -0.01154,-0.45884 -0.04736,-0.75569 -0.05405,-0.44794 -0.128811,-0.75226 -0.24019,-0.97773 -0.08579,-0.17366 -0.08929,-0.1765 -0.217793,-0.1765 -0.123492,0 -0.134764,0.008 -0.207013,0.14825 -0.08598,0.16682 -0.188427,0.53753 -0.231244,0.83679 -0.04206,0.29396 -0.07109,0.72146 -0.07109,1.04688 0,1.38407 0.313858,2.38781 0.638379,2.0416 z m -7.301081,13.86722 c -0.623454,-0.1813 -1.14602,-1.64665 -1.359109,-3.81114 -0.07395,-0.75113 -0.09708,-1.24363 -0.103876,-2.21203 -0.0071,-1.00812 0.0091,-1.53409 0.07048,-2.29267 0.20829,-2.57362 0.813719,-4.2328 1.543086,-4.22882 0.696048,0.004 1.191624,1.70421 1.333875,4.57677 0.03314,0.66913 0.05944,2.58141 0.03857,2.80417 -0.0062,0.066 -0.107887,0.0733 -1.034832,0.0733 -0.871035,0 -1.028897,0.01 -1.034047,0.0649 -0.0097,0.10388 0.04481,0.68536 0.09104,0.97066 0.08774,0.54143 0.245268,0.9907 0.401893,1.14622 0.08385,0.0833 0.249241,0.0719 0.339173,-0.0233 0.15843,-0.16768 0.312114,-0.56679 0.403153,-1.04697 0.02899,-0.15289 0.05739,-0.27798 0.06311,-0.27798 0.01572,0 0.611871,1.80113 0.622924,1.88203 0.0072,0.0529 -0.01798,0.18141 -0.101696,0.51868 -0.34045,1.37159 -0.772946,2.00186 -1.273748,1.85623 z m 0.603959,-7.69526 c 0.0098,-0.4929 -0.06931,-1.21968 -0.171747,-1.57884 -0.06088,-0.21345 -0.141328,-0.38497 -0.219843,-0.46873 -0.08526,-0.091 -0.241778,-0.091 -0.327001,-9e-5 -0.146333,0.15611 -0.293017,0.60962 -0.365417,1.12976 -0.03922,0.28179 -0.07686,0.79295 -0.06651,0.90338 0.006,0.0643 0.07041,0.0724 0.578078,0.0724 0.448889,0 0.571542,-0.0124 0.572442,-0.0579 z m 2.390023,7.66933 c -0.655674,-0.39889 -1.091667,-2.14723 -1.205239,-4.83301 -0.02625,-0.62064 -0.03143,-1.80209 -0.01048,-2.38761 0.08088,-2.26027 0.371538,-4.02414 0.797984,-4.84266 0.319112,-0.61251 0.787926,-0.61028 1.109344,0.005 0.118047,0.22607 0.183338,0.41131 0.265613,0.75357 l 0.06595,0.27434 v -3.28807 c 0,-1.80844 0.0031,-3.32103 0.0069,-3.36131 0.0061,-0.0651 0.05704,-0.0733 0.457913,-0.0733 h 0.45105 l -0.0029,8.74049 -0.0029,8.7405 h -0.41266 -0.41266 l -0.0031,-0.72934 c -0.0017,-0.40114 -0.0052,-0.72934 -0.0077,-0.72934 -0.0025,0 -0.04689,0.17288 -0.09864,0.38418 -0.152585,0.62309 -0.318685,1.01525 -0.527369,1.24509 -0.06619,0.0729 -0.128357,0.0987 -0.262015,0.10868 -0.09638,0.007 -0.190502,0.004 -0.209157,-0.008 z m 0.622724,-3.40108 c 0.165585,-0.20756 0.287546,-0.58274 0.369514,-1.13673 0.104234,-0.70449 0.134343,-1.69 0.07975,-2.61056 -0.05832,-0.98346 -0.236079,-1.7179 -0.47844,-1.97673 -0.114949,-0.12275 -0.319638,-0.10358 -0.437098,0.0409 -0.226231,0.27836 -0.383973,0.95789 -0.445989,1.92125 -0.03215,0.49944 -0.03238,1.33223 -4.98e-4,1.82717 0.05683,0.88216 0.197565,1.55394 0.3886,1.85489 0.15177,0.23909 0.370486,0.27237 0.52415,0.0798 z m -15.61981724,-5.5999 v -8.75278 l 0.4663627,0.0121 0.46636266,0.0121 0.005653,6.92294 0.005653,6.92293 0.85923788,0.0239 c 0.4725809,0.0131 0.8605703,0.0288 0.8621987,0.0347 0.00163,0.006 0.00163,0.80792 0,1.7821 l -0.00296,1.77126 -1.3312535,0.0118 -1.33125343,0.0118 z m 3.06912794,8.69504 c -0.00299,-0.0321 -0.00412,-2.70488 -0.00252,-5.93944 l 0.00291,-5.88102 H 3.533054 3.9852844 v 5.92733 5.92733 l -0.4497089,0.0121 c -0.3537245,0.01 -0.4508677,-4.3e-4 -0.4551383,-0.0463 z m 1.3990383,0.002 c -0.021501,-0.0881 -0.019763,-11.72134 0.00176,-11.79451 0.011066,-0.0376 0.1355501,-0.0491 0.4380983,-0.0404 l 0.4226401,0.0121 0.00311,0.72934 c 0.00171,0.40114 0.0068,0.72918 0.011306,0.72897 0.00451,-1.8e-4 0.036119,-0.14707 0.070251,-0.32638 0.1095182,-0.57535 0.2792777,-1.0439 0.4693124,-1.29536 0.1094984,-0.14489 0.4128132,-0.18302 0.5698234,-0.0716 0.4975941,0.35299 0.7406956,1.58696 0.8035051,4.07857 0.00879,0.34851 0.011757,1.69395 0.00941,4.26026 l -0.00343,3.75089 H 6.8286792 6.3821016 l -0.00668,-3.42674 c -0.0065,-3.33011 -0.00959,-3.61803 -0.044509,-4.14926 -0.055124,-0.83849 -0.2013047,-1.28863 -0.4192833,-1.29112 -0.2435943,-0.003 -0.4056599,0.46058 -0.4775504,1.36535 -0.042899,0.53989 -0.044362,0.65672 -0.051314,4.09819 l -0.00688,3.40358 -0.4413611,0.0121 c -0.3338488,0.009 -0.4446972,-0.002 -0.4550569,-0.044 z m 3.2476372,-0.002 c -0.00298,-0.0321 -0.00412,-3.96559 -0.00252,-8.74103 l 0.0029,-8.68261 h 0.4522305 0.4522304 l 0.00288,5.13232 c 0.00158,2.82278 0.00715,5.12541 0.012378,5.11695 0.00522,-0.008 0.2246046,-1.03644 0.487513,-2.28442 0.2629085,-1.24798 0.4860464,-2.2953 0.4958626,-2.32738 0.02495,-0.0815 1.1042393,-0.0619 1.1042393,0.0201 0,0.0299 -0.255865,1.24433 -0.568589,2.69867 -0.312724,1.45435 -0.5711928,2.67205 -0.5743746,2.70602 -0.00319,0.034 0.1482545,0.91232 0.3371254,1.95521 0.1886012,1.04139 0.4419822,2.44103 0.5630692,3.1103 0.121086,0.66926 0.220157,1.24231 0.220157,1.27344 0,0.0437 -0.128409,0.0593 -0.562381,0.0686 l -0.5623824,0.012 -0.4664428,-2.87016 c -0.2565433,-1.57859 -0.4702194,-2.87076 -0.4748356,-2.87148 -0.00462,-7.3e-4 -0.0097,1.28544 -0.011306,2.85815 l -0.00291,2.85947 -0.449709,0.0121 c -0.3537276,0.01 -0.4508663,-4.3e-4 -0.4551311,-0.0463 z M 3.4539103,155.41259 C 3.2504858,155.27921 3.0959874,154.73984 3.029602,153.93128 3.00882,153.67816 3.00567,153.55636 3.0098,153.16564 c 0.00441,-0.41765 0.00908,-0.50015 0.046125,-0.81561 0.1572565,-1.33916 0.5681002,-1.66272 0.8334705,-0.65642 0.124222,0.47106 0.175842,0.99996 0.1667882,1.70893 -0.00449,0.35183 -0.011623,0.48018 -0.040918,0.7366 -0.046049,0.40305 -0.092602,0.63939 -0.1747083,0.88696 -0.1036071,0.3124 -0.2604837,0.46921 -0.3866471,0.38649 z"
       id="path3727"
       inkscape:connector-curvature="0" />
    <path
       style="display:inline;fill:#93b2d7;stroke-width:0.02288097"
       d="m 24.452602,172.62377 c -0.113305,-0.17288 -0.188186,-0.44209 -0.244081,-0.87749 -0.02805,-0.21851 -0.031,-0.28751 -0.03107,-0.72763 -1.06e-4,-0.43056 0.0034,-0.51642 0.03011,-0.75001 0.03851,-0.33651 0.117202,-0.65882 0.199359,-0.81655 0.05634,-0.10817 0.07856,-0.12365 0.17746,-0.12365 0.0989,0 0.121124,0.0155 0.177461,0.12365 0.08216,0.15773 0.160848,0.48004 0.199358,0.81655 0.02641,0.23075 0.03019,0.32178 0.03019,0.72686 0,0.4043 -0.0038,0.4954 -0.02968,0.71776 -0.04202,0.36056 -0.09875,0.60712 -0.181442,0.78864 -0.06464,0.14189 -0.08185,0.15833 -0.178925,0.17096 -0.07071,0.009 -0.121525,-0.008 -0.148736,-0.0491 z m 0.270084,-0.26487 c 0.237382,-0.4169 0.29639,-1.65352 0.114457,-2.3987 -0.07027,-0.28782 -0.15352,-0.42917 -0.252764,-0.42917 -0.275154,0 -0.447005,1.19237 -0.315012,2.18568 0.0867,0.65246 0.286393,0.93535 0.453319,0.64219 z m -0.282921,-0.44302 c -0.0044,-0.018 -0.008,-0.42305 -0.008,-0.89999 0,-0.99585 -0.0092,-0.92352 0.116809,-0.92312 0.153137,4.3e-4 0.211058,0.14925 0.211058,0.54208 0,0.20852 -0.02718,0.37071 -0.08405,0.50157 -0.01947,0.0448 -0.01705,0.0726 0.03343,0.38351 0.03839,0.23648 0.05089,0.3497 0.04242,0.38439 -0.02507,0.10268 -0.05596,0.005 -0.115281,-0.36471 -0.05267,-0.32822 -0.06578,-0.38203 -0.09306,-0.38203 -0.03654,0 -0.04171,0.0544 -0.04623,0.48622 -0.0025,0.23973 -0.0061,0.2797 -0.02599,0.29138 -0.01269,0.007 -0.02668,-0.001 -0.03109,-0.0193 z m 0.229232,-1.10496 c 0.05216,-0.19336 0.01481,-0.42686 -0.07528,-0.47057 -0.04371,-0.0212 -0.06013,-0.01 -0.07504,0.0511 -0.02249,0.0921 -0.02561,0.39605 -0.005,0.48302 0.02046,0.0862 0.126615,0.0428 0.155279,-0.0635 z m -6.500364,1.66164 c -0.125432,-0.13806 -0.228571,-0.48537 -0.288723,-0.97224 l -0.03376,-0.27328 v -11.09059 -11.09059 l 0.02565,-0.22785 c 0.05475,-0.4863 0.155126,-0.85139 0.276661,-1.00632 0.0645,-0.0822 0.171159,-0.0856 2.714505,-0.085 2.234189,4.7e-4 2.656656,0.0107 2.706881,0.0654 0.161351,0.17593 0.286861,0.74302 0.318217,1.43779 0.01656,0.36679 0.01745,21.43377 9.26e-4,21.79064 -0.03451,0.74527 -0.170106,1.3195 -0.348121,1.47421 -0.04344,0.0377 -0.781867,0.0512 -2.685119,0.049 -2.273678,-0.003 -2.633496,-0.0122 -2.687115,-0.0712 z m 1.452517,-9.53452 v -5.88102 h -0.435272 -0.435272 l -0.0029,5.83471 c -0.0016,3.20909 -4.62e-4,5.86101 0.0025,5.89315 0.0043,0.0459 0.09803,0.0558 0.43818,0.0463 l 0.432748,-0.0121 z m 1.469533,5.79998 c 0.0032,-0.0573 0.0073,-1.6358 0.0091,-3.50777 0.0032,-3.37837 0.0034,-3.40611 0.02863,-3.74405 0.01398,-0.18725 0.03599,-0.42537 0.04892,-0.52914 0.03512,-0.28195 0.125922,-0.65034 0.193912,-0.7867 0.131318,-0.26336 0.343426,-0.28879 0.469893,-0.0563 0.116697,0.21451 0.184309,0.58502 0.230817,1.26489 0.02361,0.34518 0.02446,0.45439 0.03039,3.89763 l 0.0061,3.54251 h 0.440924 0.440925 l 0.0034,-3.35728 c 0.0044,-4.31035 -0.0074,-5.0683 -0.09542,-6.15886 -0.110565,-1.3693 -0.31052,-2.1073 -0.659836,-2.43537 -0.04042,-0.038 -0.15508,-0.0814 -0.254804,-0.0965 -0.14638,-0.0222 -0.19975,-0.0122 -0.276991,0.0518 -0.231173,0.19154 -0.43483,0.71873 -0.573428,1.48439 -0.02766,0.15282 -0.05613,0.27785 -0.06326,0.27785 -0.009,0 -0.0147,-0.23376 -0.01862,-0.76407 l -0.0057,-0.76407 h -0.418313 -0.418314 l -0.0029,5.83471 c -0.0016,3.20909 -4.88e-4,5.86076 0.0025,5.8926 0.0042,0.0449 0.102868,0.0579 0.440792,0.0579 h 0.43541 z m -1.736131,-13.47117 c 0.130524,-0.18253 0.233328,-0.55816 0.294655,-1.07662 0.150453,-1.27192 -0.04322,-2.76594 -0.388962,-3.00061 -0.269473,-0.18289 -0.544141,0.65727 -0.582148,1.78069 -0.05318,1.57192 0.310852,2.8078 0.676455,2.29654 z m -7.426973,13.84961 c -0.619967,-0.32197 -1.115881,-1.88334 -1.29315,-4.07144 -0.05707,-0.7044 -0.07616,-1.14125 -0.08297,-1.8986 -0.01024,-1.1397 0.03626,-2.08758 0.148923,-3.03552 0.218926,-1.84199 0.644627,-3.05722 1.184629,-3.3817 0.188825,-0.11347 0.49318,-0.0721 0.647421,0.0879 0.372672,0.38667 0.654745,1.31026 0.822841,2.69422 0.131521,1.08284 0.182574,2.17356 0.175564,3.75089 l -0.0035,0.78722 -1.033132,0.0118 -1.03313,0.0118 0.0063,0.19374 c 0.0084,0.25751 0.08639,0.88755 0.142824,1.15433 0.0249,0.11772 0.0799,0.31092 0.122204,0.42932 0.21144,0.59174 0.478014,0.64829 0.726497,0.15413 0.07877,-0.15664 0.115251,-0.2692 0.202285,-0.62407 0.06899,-0.2813 0.112044,-0.42375 0.122912,-0.40667 0.0318,0.05 0.592822,1.7547 0.598931,1.81992 0.0084,0.0893 -0.171939,0.82482 -0.28108,1.14669 -0.193205,0.56977 -0.459733,1.01562 -0.689722,1.15375 -0.126699,0.0761 -0.36037,0.0868 -0.484697,0.0223 z m 0.697042,-7.6621 c 0.01131,-0.12077 -0.01897,-0.62819 -0.0549,-0.91966 -0.143129,-1.16133 -0.508132,-1.56296 -0.814794,-0.89656 -0.08054,0.17503 -0.198195,0.67573 -0.238157,1.01357 -0.03279,0.2772 -0.06687,0.77143 -0.05748,0.83364 0.0033,0.0222 0.26541,0.0403 0.582364,0.0403 0.508446,0 0.577068,-0.008 0.582963,-0.0713 z m 2.403734,7.66746 c -0.243271,-0.11439 -0.464885,-0.44651 -0.653738,-0.97973 -0.09605,-0.2712 -0.266125,-0.97468 -0.330673,-1.36777 -0.109267,-0.66543 -0.196763,-1.56618 -0.236694,-2.43671 -0.03062,-0.66755 -0.02743,-2.11495 0.0062,-2.80062 0.06578,-1.34226 0.196679,-2.43858 0.393489,-3.29548 0.114649,-0.49918 0.211059,-0.79116 0.360567,-1.09201 0.211727,-0.42604 0.433385,-0.58499 0.686847,-0.49252 0.313524,0.11437 0.564034,0.54269 0.718284,1.22811 0.02647,0.11761 0.05308,0.21384 0.05912,0.21384 0.007,0 0.01205,-1.21654 0.0139,-3.3457 l 0.0029,-3.3457 h 0.446577 0.446578 v 8.70577 8.70576 h -0.41266 -0.412661 l -0.0031,-0.73668 -0.0031,-0.73668 -0.104282,0.4181 c -0.164917,0.66122 -0.322072,1.03263 -0.528118,1.24813 -0.120798,0.12634 -0.313928,0.17357 -0.449364,0.10989 z m 0.556638,-3.31294 c 0.163442,-0.14055 0.318098,-0.56558 0.408276,-1.12205 0.02343,-0.14458 0.05768,-0.44091 0.07612,-0.65853 0.04294,-0.50682 0.05419,-1.34658 0.02548,-1.90064 -0.07522,-1.45131 -0.356409,-2.28992 -0.741122,-2.21029 -0.274302,0.0568 -0.476549,0.55833 -0.583176,1.44622 -0.06147,0.51184 -0.0783,0.84033 -0.0783,1.52814 0,0.69285 0.01669,1.014 0.08043,1.54788 0.08011,0.67096 0.249487,1.20247 0.436096,1.36847 0.09483,0.0844 0.278591,0.0847 0.376202,8.6e-4 z M 0.01130576,160.13645 v -8.75207 h 0.46353626 c 0.25494492,0 0.46476671,0.005 0.46627062,0.0116 0.001504,0.006 0.00532,3.13732 0.008479,6.95767 l 0.005745,6.94609 0.85923796,0.0231 0.8592379,0.0232 0.00297,1.70792 c 0.00212,1.22208 -6.829e-4,1.72595 -0.00986,1.77126 -0.010725,0.0529 -0.2303666,0.0633 -1.3342268,0.0633 H 0.01130576 Z m 7.72711024,8.69473 c -0.00298,-0.0321 -0.00412,-3.9656 -0.00252,-8.74104 l 0.0029,-8.68261 h 0.4409247 0.4409247 l 0.00565,5.12468 c 0.00311,2.81857 0.00894,5.13813 0.012954,5.15457 0.00402,0.0164 0.2297776,-1.02399 0.5016932,-2.31208 0.2830429,-1.3408 0.5046627,-2.35218 0.5184168,-2.36583 0.049922,-0.0496 1.0621526,3.2e-4 1.0664016,0.0526 0.0023,0.0279 -0.253136,1.24694 -0.567567,2.70898 -0.42,1.95292 -0.5705973,2.68282 -0.5675699,2.75086 0.00226,0.0509 0.2546217,1.4753 0.5607899,3.16526 0.328011,1.81052 0.55418,3.0992 0.550609,3.13731 -0.0051,0.0541 -0.0952,0.0647 -0.552773,0.0647 H 9.6025333 l -0.023192,-0.10419 c -0.012756,-0.0573 -0.2276733,-1.36173 -0.4775949,-2.89872 -0.2499213,-1.53699 -0.4578664,-2.78035 -0.4621001,-2.76302 -0.00423,0.0173 -0.010241,1.31653 -0.01335,2.88714 l -0.00565,2.85564 -0.4384021,0.0121 c -0.3446791,0.01 -0.4395613,-4.3e-4 -0.4438254,-0.0463 z m -4.6491595,-5.90472 0.00287,-5.91575 h 0.4409246 0.4409247 l 0.00287,5.91575 0.00287,5.91575 H 3.5330505 3.0863871 Z m 1.3878254,0.0121 v -5.90471 h 0.4296189 0.429619 l 1.766e-4,0.68303 c 1.413e-4,0.58737 0.00947,0.87921 0.02548,0.79746 0.00235,-0.012 0.027384,-0.14684 0.055633,-0.29965 0.1225241,-0.66279 0.303754,-1.15347 0.5122655,-1.38696 0.1518512,-0.17004 0.4532186,-0.13867 0.6505649,0.0677 0.3361274,0.35151 0.5464965,1.2806 0.6371408,2.8139 0.055839,0.94454 0.05768,1.11194 0.05768,5.24305 v 3.86666 H 6.8286842 6.3821066 l -0.00617,-3.51935 c -0.00599,-3.41331 -0.0069,-3.53003 -0.030353,-3.87379 -0.046933,-0.68799 -0.1144376,-1.06699 -0.2284103,-1.2824 -0.050455,-0.0954 -0.085156,-0.12276 -0.1749997,-0.13816 -0.2435933,-0.0418 -0.3956971,0.2851 -0.483098,1.03814 -0.070124,0.60417 -0.069918,0.59251 -0.076854,4.34882 l -0.00633,3.42674 -0.449404,0.0121 -0.449404,0.0121 z m -1.0825193,-7.59701 c -0.090315,-0.0996 -0.1481847,-0.23852 -0.2246243,-0.53916 -0.2132215,-0.83862 -0.2158061,-2.18879 -0.00584,-3.04877 0.231044,-0.94629 0.6208526,-0.78834 0.8023868,0.32512 0.1691218,1.03734 0.087927,2.42885 -0.1790589,3.06869 -0.1050591,0.25178 -0.2677151,0.33215 -0.3928675,0.19412 z"
       id="path3725"
       inkscape:connector-curvature="0" />
    <path
       style="display:inline;fill:#6994c8;stroke-width:0.02288097"
       d="m 24.441842,172.579 c -0.115106,-0.19812 -0.184434,-0.46669 -0.234885,-0.90993 -0.02458,-0.21591 -0.02926,-0.32332 -0.02941,-0.67454 -1.41e-4,-0.37961 0.0032,-0.44601 0.03705,-0.72749 0.133608,-1.11162 0.505184,-1.27591 0.69234,-0.30613 0.165349,0.85679 0.08924,2.10903 -0.156649,2.5775 -0.09213,0.17552 -0.220257,0.19238 -0.308451,0.0406 z m 0.302937,-0.23232 c 0.07204,-0.15067 0.132074,-0.39724 0.171135,-0.70288 0.02461,-0.19256 0.02965,-0.29389 0.02992,-0.60199 4.17e-4,-0.47428 -0.02543,-0.75612 -0.09832,-1.07177 -0.07663,-0.33188 -0.147421,-0.45402 -0.263138,-0.45402 -0.115837,0 -0.186488,0.12207 -0.263378,0.45506 -0.192142,0.83213 -0.105481,2.12151 0.167279,2.48882 0.01555,0.0209 0.06642,0.0316 0.113058,0.0238 0.06463,-0.0109 0.09874,-0.0435 0.143441,-0.13697 z m -0.301722,-1.3248 v -0.88306 h 0.108523 c 0.132118,0 0.178238,0.0715 0.197087,0.30539 0.02261,0.28056 -0.0029,0.4905 -0.08394,0.69021 -0.0166,0.0409 -0.01283,0.0825 0.0324,0.35743 0.02815,0.17112 0.05119,0.33261 0.05119,0.35888 0,0.0263 -0.01155,0.0478 -0.02566,0.0478 -0.01961,0 -0.03729,-0.0772 -0.07492,-0.32691 -0.05405,-0.35877 -0.08958,-0.4839 -0.12452,-0.43848 -0.01973,0.0256 -0.02313,0.0762 -0.02599,0.38587 -0.003,0.32954 -0.0052,0.35748 -0.02873,0.37117 l -0.02544,0.0148 z m 0.2236,-0.16793 c 0.01764,-0.0506 0.02513,-0.11929 0.02513,-0.23047 0,-0.22416 -0.03497,-0.30844 -0.120463,-0.2903 l -0.06608,0.014 -0.0035,0.22565 c -0.0019,0.12411 -8.13e-4,0.25435 0.0025,0.28942 0.0086,0.0918 0.129734,0.0855 0.162449,-0.008 z m -6.528497,1.55719 c -0.121151,-0.17906 -0.19882,-0.47385 -0.257075,-0.97572 l -0.03494,-0.301 -0.0029,-10.87921 c -0.0032,-11.88311 -0.007,-11.15746 0.0604,-11.62842 0.05827,-0.40727 0.177921,-0.75317 0.29609,-0.85599 0.03517,-0.0306 0.9606,-0.0422 2.704663,-0.034 l 2.651158,0.0125 0.07432,0.14896 c 0.09071,0.18182 0.180428,0.5549 0.223067,0.92756 l 0.03048,0.26639 0.0029,10.92692 c 0.0026,9.87108 0.0012,10.95168 -0.01505,11.1832 -0.03542,0.50514 -0.123793,0.92813 -0.240892,1.15302 l -0.06354,0.12202 -2.685118,0.0101 c -2.595784,0.01 -2.687064,0.007 -2.743583,-0.0763 z m 1.480915,-3.5805 c 0.01792,-0.054 0.01901,-0.44957 0.01629,-5.91576 l -0.0029,-5.85786 H 19.185887 18.73931 l -0.0029,5.85786 c -0.0027,5.46619 -0.0016,5.86174 0.01629,5.91576 0.01454,0.0438 0.119785,0.0579 0.433197,0.0579 0.313413,0 0.418657,-0.0141 0.433198,-0.0579 z m 1.459593,0.0298 c 0.01607,-0.0252 0.01789,-0.349 0.01791,-3.18362 0,-3.33717 0.0047,-3.72675 0.05183,-4.33947 0.04555,-0.59211 0.123137,-0.95458 0.259048,-1.21028 0.05041,-0.0948 0.07366,-0.10636 0.21481,-0.10636 0.142523,0 0.164211,0.011 0.217863,0.1103 0.0782,0.14476 0.162955,0.52456 0.195005,0.87388 0.05755,0.62727 0.05837,0.68293 0.06432,4.36431 0.0041,2.52761 0.009,3.45898 0.01857,3.48391 0.01803,0.0472 0.846164,0.043 0.864391,-0.004 0.01202,-0.0312 0.01394,-0.7868 0.01033,-4.06275 -0.0043,-3.89166 -0.0052,-4.04173 -0.02888,-4.54989 -0.05355,-1.15106 -0.129109,-1.82023 -0.273207,-2.41944 -0.08096,-0.33668 -0.113017,-0.43352 -0.203503,-0.61483 -0.129252,-0.25897 -0.233525,-0.37214 -0.412575,-0.44775 -0.238307,-0.10063 -0.437259,0.0264 -0.614685,0.39232 -0.132928,0.27418 -0.261331,0.72029 -0.337476,1.17248 -0.02251,0.13371 -0.04505,0.24311 -0.05008,0.24311 -0.005,0 -0.01055,-0.33862 -0.01225,-0.75249 l -0.0031,-0.75249 -0.423212,-0.0121 c -0.331062,-0.01 -0.425186,5.8e-4 -0.432273,0.0463 -0.005,0.0322 -0.0091,2.66696 -0.0092,5.85513 -1.41e-4,5.20857 0.0016,5.80406 0.01759,5.86944 0.01551,0.0635 0.07071,0.0728 0.434347,0.0728 0.22912,0 0.424628,-0.0127 0.434464,-0.0281 z m -1.76317,-13.51829 c 0.140991,-0.15041 0.263265,-0.5453 0.329719,-1.06484 0.04916,-0.38435 0.06487,-0.70017 0.05782,-1.16274 -0.01311,-0.86061 -0.151984,-1.58309 -0.359491,-1.8702 -0.05994,-0.0829 -0.09195,-0.0977 -0.180282,-0.0831 -0.09237,0.0152 -0.118396,0.0388 -0.185903,0.1685 -0.102905,0.19769 -0.169048,0.42502 -0.222835,0.76587 -0.259789,1.64633 0.101426,3.73682 0.56097,3.24655 z m -7.298887,13.77626 c -0.402083,-0.12108 -0.773666,-0.78229 -1.033232,-1.83857 -0.193331,-0.78674 -0.316858,-1.68435 -0.385317,-2.7999 -0.04044,-0.65892 -0.05107,-1.96596 -0.02182,-2.68295 0.02255,-0.55287 0.07824,-1.28302 0.130513,-1.71127 0.100234,-0.82114 0.28685,-1.70631 0.465303,-2.20705 0.498373,-1.39845 1.227152,-1.60684 1.697882,-0.48552 0.317924,0.75732 0.530305,2.05993 0.617157,3.78524 0.02479,0.49253 0.04966,1.89957 0.04378,2.47744 l -0.0035,0.3473 -1.030711,0.0232 c -0.566891,0.0127 -1.03469,0.0394 -1.039551,0.0594 -0.02566,0.10514 0.05743,0.89088 0.134737,1.27412 0.132092,0.65484 0.313957,0.99829 0.527958,0.99705 0.131292,-7.2e-4 0.222704,-0.0912 0.350478,-0.3468 0.07959,-0.15921 0.113934,-0.26639 0.199938,-0.624 l 0.103839,-0.43177 0.29745,0.89241 c 0.163598,0.49082 0.299081,0.92706 0.301073,0.96942 0.0022,0.046 -0.0297,0.215 -0.07908,0.41945 -0.330387,1.36804 -0.780818,2.03225 -1.276868,1.88287 z m 0.607681,-7.60205 c 0.01302,-0.0863 0.0054,-0.38451 -0.01767,-0.68753 -0.05406,-0.7115 -0.197982,-1.26088 -0.381628,-1.45681 -0.08299,-0.0885 -0.240453,-0.0886 -0.323384,-1.4e-4 -0.213173,0.22743 -0.392623,0.96578 -0.438415,1.80388 -0.02361,0.43208 -0.07577,0.39622 0.576418,0.39622 0.436449,0 0.578319,-0.0135 0.584677,-0.0556 z m 2.35019,7.55207 c -0.61216,-0.3643 -1.050009,-2.162 -1.160054,-4.7629 -0.02883,-0.68138 -0.03109,-1.90907 -0.0046,-2.52514 0.04156,-0.96845 0.112033,-1.78961 0.214485,-2.49939 0.07119,-0.49318 0.135617,-0.82386 0.240194,-1.23277 0.228437,-0.8932 0.475929,-1.31955 0.796498,-1.37211 0.388747,-0.0637 0.705333,0.36117 0.900593,1.20873 0.033,0.14323 0.06476,0.26042 0.07059,0.26042 0.0065,0 0.01172,-1.30501 0.01349,-3.3457 l 0.0029,-3.3457 0.44378,-0.0121 0.443781,-0.0121 -0.0029,8.69472 -0.0029,8.69473 H 16.528985 16.12763 l -0.0029,-0.69461 c -0.0016,-0.38204 -0.0056,-0.72394 -0.0088,-0.7598 -0.004,-0.044 -0.03705,0.0643 -0.101905,0.33351 -0.23287,0.96678 -0.503006,1.42731 -0.830379,1.41564 -0.07773,-0.003 -0.171847,-0.0232 -0.209157,-0.0454 z m 0.640777,-3.26111 c 0.179736,-0.18995 0.340337,-0.71315 0.418778,-1.36427 0.06012,-0.49904 0.08045,-0.89108 0.08045,-1.55129 0,-0.65967 -0.0203,-1.05162 -0.08035,-1.55129 -0.07999,-0.6656 -0.237478,-1.16631 -0.432187,-1.37408 -0.099,-0.10564 -0.307768,-0.10579 -0.407008,-2.7e-4 -0.324926,0.34541 -0.510678,1.40957 -0.510678,2.92566 0,1.61858 0.200606,2.67876 0.561554,2.96776 0.09678,0.0775 0.269871,0.053 0.369439,-0.0522 z m -15.60395701,-5.68242 -3.77e-6,-8.71734 0.4635032,0.0126 0.46350322,0.0126 0.002863,6.93351 0.002863,6.9335 0.85923786,0.0231 0.8592379,0.0232 0.00296,1.74809 0.00296,1.7481 H 1.3398688 0.01130576 Z m 3.08043851,8.66 c -0.00299,-0.0321 -0.00412,-2.68405 -0.00252,-5.89314 l 0.00291,-5.83471 h 0.4409246 0.4409247 v 5.88102 5.88102 l -0.4384018,0.0121 c -0.3446761,0.01 -0.4395632,-4.4e-4 -0.4438329,-0.0463 z m 1.3906088,0 c -0.00299,-0.0321 -0.00412,-2.68405 -0.00252,-5.89314 l 0.00291,-5.83471 h 0.423966 0.4239661 l 0.00311,0.75249 c 0.00328,0.7944 0.011236,0.89362 0.050066,0.62438 0.060861,-0.42206 0.2279928,-1.01534 0.3655323,-1.2976 0.150095,-0.30803 0.2137616,-0.35712 0.4631381,-0.35712 0.1797142,0 0.2446754,0.0176 0.3165613,0.0856 0.4496923,0.42535 0.6745727,1.66514 0.7286259,4.01701 0.00916,0.39841 0.012138,1.70278 0.00973,4.2559 l -0.00348,3.68143 H 6.8286796 6.3934078 l -0.00707,-3.42674 c -0.00754,-3.65232 -0.00938,-3.77426 -0.066036,-4.38746 -0.034238,-0.37053 -0.1161759,-0.72596 -0.2062425,-0.89464 -0.065018,-0.12177 -0.082302,-0.13332 -0.2011461,-0.13449 -0.14887,-0.001 -0.2190908,0.0721 -0.3109084,0.32575 -0.069568,0.19218 -0.11044,0.39937 -0.152701,0.77408 -0.070916,0.62879 -0.072083,0.6938 -0.078702,4.38622 l -0.00602,3.35728 -0.4384021,0.0121 c -0.344676,0.01 -0.4395631,-4.4e-4 -0.4438328,-0.0463 z m 3.2560667,0 c -0.00298,-0.0321 -0.00412,-3.94476 -0.00252,-8.69473 l 0.0029,-8.6363 h 0.4409247 0.4409247 l 0.00565,5.1401 c 0.00311,2.82706 0.00997,5.14011 0.015241,5.14011 0.00527,0 0.2317402,-1.05233 0.5032601,-2.33852 l 0.4936757,-2.33851 0.5396968,-0.012 c 0.373514,-0.008 0.539695,0.003 0.539695,0.0369 0,0.0269 -0.255651,1.2383 -0.568113,2.69195 -0.3124638,1.45365 -0.569737,2.67121 -0.571719,2.70568 -0.00198,0.0345 0.2485095,1.45413 0.556648,3.1548 0.308139,1.70066 0.560324,3.11815 0.560413,3.14999 1.41e-4,0.0455 -0.11768,0.0579 -0.551787,0.0579 H 9.5913558 l -0.4721862,-2.89952 c -0.2825575,-1.73508 -0.476305,-2.88265 -0.4824419,-2.85752 -0.00585,0.024 -0.011508,1.26455 -0.01317,2.88795 l -0.00291,2.84594 -0.4384021,0.0121 c -0.3446791,0.01 -0.4395613,-4.4e-4 -0.4438253,-0.0463 z M 3.45423,155.36505 c -0.1820695,-0.12897 -0.3141498,-0.54374 -0.3930423,-1.23427 -0.069206,-0.60574 -0.054502,-1.4226 0.035922,-1.99563 0.148806,-0.94301 0.4297735,-1.24658 0.6772078,-0.73169 0.3084392,0.64183 0.367864,2.40124 0.1147499,3.39742 -0.1113331,0.43818 -0.2883979,0.6679 -0.4348374,0.56417 z"
       id="path3723"
       inkscape:connector-curvature="0" />
    <path
       style="display:inline;fill:#5788c2;stroke-width:0.02288097"
       d="m 24.451416,172.5695 c -0.123172,-0.20432 -0.203553,-0.52876 -0.246982,-0.9969 -0.02965,-0.31964 -0.02877,-0.84038 0.002,-1.1772 0.03098,-0.33912 0.117738,-0.72468 0.200557,-0.89126 0.0574,-0.11546 0.0765,-0.12939 0.177388,-0.12939 0.100883,0 0.119985,0.0139 0.177389,0.12939 0.07987,0.16065 0.169872,0.55334 0.195696,0.85385 0.01043,0.12141 0.0236,0.25693 0.02927,0.30116 0.02,0.15609 0.01101,0.55836 -0.01992,0.89106 -0.04235,0.45552 -0.135789,0.83823 -0.247003,1.0117 -0.09927,0.15482 -0.178286,0.15706 -0.268393,0.008 z m 0.287774,-0.19252 c 0.130366,-0.23963 0.216395,-0.7915 0.216395,-1.38816 0,-0.83432 -0.165912,-1.5086 -0.371206,-1.5086 -0.1468,0 -0.268237,0.31681 -0.335295,0.87473 -0.104075,0.86589 0.02083,1.90014 0.258935,2.14408 0.0627,0.0642 0.156873,0.0145 0.231171,-0.12205 z m -0.291112,-0.538 c -0.0031,-0.0327 -0.0042,-0.42345 -0.0025,-0.86826 l 0.0031,-0.80875 0.07349,-0.0146 c 0.162028,-0.0322 0.226115,0.0969 0.226115,0.45545 0,0.25023 -0.01604,0.363 -0.06309,0.44352 -0.02126,0.0364 -0.03866,0.0922 -0.03866,0.12392 0,0.0318 0.02307,0.19858 0.05126,0.37069 0.04202,0.25655 0.04804,0.31799 0.03343,0.34096 -0.02225,0.035 -0.02112,0.0399 -0.09,-0.39061 -0.04702,-0.29386 -0.06298,-0.35963 -0.09034,-0.37244 -0.04759,-0.0223 -0.06262,0.0892 -0.06262,0.46432 0,0.25227 -0.0035,0.3153 -0.01731,0.3153 -0.0095,0 -0.01982,-0.0268 -0.02289,-0.0595 z m 0.210187,-0.93694 c 0.03583,-0.0759 0.0515,-0.23364 0.0391,-0.39365 -0.0155,-0.20005 -0.15327,-0.31374 -0.191322,-0.15788 -0.02026,0.083 -0.02383,0.39629 -0.0061,0.53227 0.01476,0.11299 0.108636,0.12442 0.158281,0.0193 z m -6.489632,1.52446 c -0.123529,-0.13646 -0.224716,-0.49029 -0.281104,-0.98297 l -0.03008,-0.2628 V 160.1133 149.04586 l 0.03185,-0.26571 c 0.04216,-0.35179 0.118121,-0.65477 0.216073,-0.86187 l 0.07994,-0.16902 h 2.679466 2.679465 l 0.07888,0.15882 c 0.139435,0.28074 0.227591,0.7489 0.254882,1.35358 0.0075,0.16602 0.01037,3.94142 0.0084,11.03938 l -0.003,10.78708 -0.02458,0.24558 c -0.04747,0.47427 -0.13884,0.84851 -0.254632,1.04295 l -0.05996,0.10068 -2.656854,0.009 c -2.312233,0.008 -2.664885,-9e-5 -2.718762,-0.0596 z m 1.466692,-9.46247 c 0.0023,-4.69048 0,-5.90889 -0.01131,-5.93819 -0.0164,-0.0427 -0.845672,-0.0523 -0.872488,-0.0102 -0.01618,0.0254 -0.01788,0.59005 -0.01788,5.91961 0,3.24033 0.0035,5.90564 0.0077,5.92291 0.0042,0.0173 0.206449,0.0259 0.449404,0.0193 l 0.441738,-0.0121 z m 1.460829,5.83492 c 0.0077,-0.0593 0.0117,-1.18424 0.0117,-3.32806 0,-2.65218 0.003,-3.30968 0.01674,-3.63173 0.03951,-0.92795 0.128454,-1.43777 0.298182,-1.70911 0.05191,-0.083 0.08807,-0.10269 0.193835,-0.10555 0.0734,-0.002 0.149998,0.0214 0.175908,0.0536 0.115968,0.14438 0.207193,0.54274 0.251959,1.10024 0.04175,0.51997 0.04691,0.99668 0.04694,4.33752 0,1.77438 0.0031,3.25911 0.0069,3.29939 0.0061,0.0651 0.05644,0.0733 0.45102,0.0733 0.394585,0 0.444925,-0.008 0.451021,-0.0733 0.01186,-0.12653 0.0075,-6.96308 -0.0048,-7.59545 -0.02766,-1.41813 -0.0928,-2.32304 -0.219654,-3.05116 -0.131542,-0.75504 -0.33604,-1.22218 -0.61098,-1.39568 -0.158146,-0.0998 -0.421001,-0.0647 -0.534932,0.0714 -0.187455,0.22399 -0.373115,0.73439 -0.488239,1.34223 -0.0342,0.18057 -0.066,0.32847 -0.07066,0.32868 -0.0047,1.8e-4 -0.0085,-0.33082 -0.0085,-0.7356 0,-0.62838 -0.0026,-0.74007 -0.01788,-0.76407 -0.02335,-0.0367 -0.811428,-0.0367 -0.834777,0 -0.01618,0.0254 -0.01788,0.59005 -0.01788,5.91961 0,3.24033 0.0034,5.9054 0.0075,5.92238 0.0041,0.017 0.204926,0.0309 0.44618,0.0309 0.422102,0 0.439084,-0.003 0.450346,-0.0896 z m -1.831136,-13.38717 c 0.268815,-0.17169 0.476598,-1.25576 0.44696,-2.33193 -0.03424,-1.24319 -0.321575,-2.1524 -0.610475,-1.9317 -0.221588,0.16928 -0.398293,0.90255 -0.435557,1.80744 -0.05083,1.2343 0.186926,2.40201 0.508626,2.49806 0.0093,0.003 0.05003,-0.0161 0.09045,-0.0419 z m -7.360051,13.64152 c -0.700776,-0.41508 -1.187895,-2.23106 -1.318959,-4.91711 -0.02777,-0.56909 -0.02799,-1.91553 -4.06e-4,-2.48004 0.09205,-1.88397 0.368822,-3.37376 0.784521,-4.22295 0.229481,-0.46877 0.441519,-0.67807 0.721389,-0.71204 0.297137,-0.0361 0.478549,0.10097 0.694674,0.52479 0.307505,0.60302 0.5214,1.63744 0.639324,3.09187 0.07108,0.8767 0.09618,1.62727 0.09618,2.87624 v 0.8122 h -1.033535 c -0.816746,0 -1.034535,0.0121 -1.038304,0.0579 -0.0079,0.0963 0.02265,0.502 0.06194,0.82161 0.04318,0.35123 0.167655,0.89247 0.250502,1.08919 0.148642,0.35296 0.343082,0.47888 0.511889,0.33149 0.162577,-0.14195 0.341149,-0.57969 0.43495,-1.06621 0.02718,-0.14099 0.05455,-0.2575 0.06083,-0.25892 0.01493,-0.003 0.597806,1.74711 0.603361,1.812 0.0077,0.0902 -0.205613,0.89131 -0.321508,1.2073 -0.175743,0.47916 -0.338071,0.76146 -0.553294,0.96224 -0.134045,0.12505 -0.440068,0.16137 -0.593554,0.0705 z m 0.731537,-7.55881 c 0.01251,-0.13356 -0.01523,-0.63868 -0.05279,-0.961 -0.103937,-0.892 -0.34986,-1.3882 -0.613738,-1.23833 -0.198532,0.11275 -0.382542,0.65087 -0.464115,1.35724 -0.0421,0.36458 -0.07109,0.7917 -0.05911,0.87107 0.0049,0.0328 0.197625,0.0485 0.594905,0.0485 0.538902,0 0.58819,-0.006 0.594846,-0.0775 z m 2.43973,7.59771 c -0.357666,-0.14753 -0.642878,-0.67039 -0.865867,-1.58733 -0.258557,-1.06319 -0.395279,-2.4433 -0.413424,-4.17322 -0.02899,-2.76414 0.28701,-5.22862 0.793281,-6.1867 0.26133,-0.49454 0.60413,-0.59797 0.91418,-0.27583 0.193037,0.20057 0.332165,0.51653 0.455583,1.03463 0.03878,0.16279 0.07584,0.28249 0.08235,0.266 0.0081,-0.0204 0.01184,-1.09667 0.01184,-3.38507 v -3.35508 l 0.438098,0.0121 0.438099,0.0121 0.0029,8.67162 0.0029,8.67162 -0.40421,-0.0122 -0.404211,-0.0121 -0.0031,-0.72934 c -0.0024,-0.55625 -0.0066,-0.72934 -0.01763,-0.72934 -0.008,0 -0.03872,0.11485 -0.06831,0.25522 -0.138898,0.65897 -0.349126,1.17512 -0.573117,1.40712 -0.09286,0.0962 -0.292688,0.15563 -0.389265,0.11579 z m 0.530132,-3.25866 c 0.234495,-0.24565 0.401782,-0.88429 0.478512,-1.8268 0.028,-0.34387 0.03046,-0.43394 0.03046,-1.11501 0,-0.68107 -0.0025,-0.77113 -0.03046,-1.115 -0.09868,-1.21217 -0.349402,-1.91476 -0.684198,-1.91732 -0.349897,-0.003 -0.610407,0.77663 -0.698688,2.0901 -0.02767,0.4116 -0.03315,1.2068 -0.01145,1.66089 0.0537,1.12403 0.236988,1.94327 0.497315,2.22283 0.112998,0.12134 0.302844,0.12148 0.418514,2.9e-4 z m -15.59506563,-5.70942 -5.39e-6,-8.71659 0.46071519,0.0231 0.46071519,0.0232 0.002863,6.93451 c 0.001575,3.81398 0.004119,6.93939 0.005653,6.94536 0.001534,0.006 0.38944664,0.0216 0.86202754,0.0347 l 0.8592379,0.0239 0.00297,1.66161 c 0.00213,1.19339 -6.67e-4,1.67955 -0.00994,1.72531 -0.010824,0.0534 -0.2254115,0.0635 -1.3285715,0.0626 l -1.31566196,-0.001 z m 7.74081793,8.68777 c -0.00422,-0.0173 -0.00767,-3.93512 -0.00767,-8.70631 v -8.6749 h 0.4352718 0.4352718 l 1.767e-4,5.10538 c 1.059e-4,3.16717 0.00428,5.13174 0.010984,5.17484 0.00771,0.0495 0.015457,0.0562 0.027005,0.0231 0.00891,-0.0255 0.2310004,-1.06738 0.493541,-2.31536 0.2625407,-1.24798 0.4853122,-2.29511 0.4950479,-2.32694 0.013586,-0.0444 0.1392566,-0.0579 0.5405915,-0.0579 0.287589,0 0.525376,0.0165 0.528416,0.0366 0.003,0.0201 -0.253783,1.24286 -0.570717,2.71715 -0.3169344,1.47429 -0.5740596,2.70384 -0.57139,2.73234 0.00267,0.0285 0.2570997,1.44479 0.5654,3.14733 0.308301,1.70254 0.557852,3.11338 0.554558,3.13521 -0.0065,0.0431 -1.0549308,0.0564 -1.0820661,0.0137 -0.00909,-0.0143 -0.226671,-1.31745 -0.4835237,-2.89594 -0.3250357,-1.99751 -0.4723798,-2.86574 -0.4846858,-2.85604 -0.015738,0.0124 -0.018302,0.32942 -0.023334,2.88436 l -0.00565,2.87043 -0.4247745,0.0121 c -0.2336258,0.007 -0.4282262,-0.002 -0.4324453,-0.0193 z m -4.6515564,-5.88543 0.00287,-5.86944 h 0.4296188 0.4296189 l 0.00287,5.86944 0.00287,5.86945 H 3.5330505 3.0976922 Z m 1.3878258,0.0121 v -5.85842 H 4.9067008 5.325014 v 0.69082 c 0,0.37995 0.00309,0.72378 0.00686,0.76407 0.00691,0.0738 0.038361,0.10428 0.038361,0.0372 0,-0.0922 0.1400911,-0.7411 0.2084884,-0.96575 0.090158,-0.29612 0.2535724,-0.6326 0.3567996,-0.73468 0.1752157,-0.17325 0.4731091,-0.12965 0.6642612,0.0972 0.3724754,0.44211 0.565417,1.48929 0.6433,3.49149 0.016297,0.41896 0.019542,1.02916 0.023458,4.41077 l 0.00454,3.92454 H 6.8300098 6.3889314 l -0.00421,-3.50778 c -0.00382,-3.18866 -0.00605,-3.53726 -0.024507,-3.83192 -0.05885,-0.93963 -0.1733897,-1.39682 -0.3756417,-1.49941 -0.080642,-0.0409 -0.2053596,0.001 -0.2744353,0.0925 -0.1508482,0.19955 -0.253402,0.70228 -0.3091546,1.51552 -0.023582,0.34397 -0.024478,0.45564 -0.030351,3.78118 l -0.00605,3.42673 -0.4380983,0.0121 -0.4380982,0.0121 z m -1.0853534,-7.63477 c -0.2529476,-0.28204 -0.4157268,-1.29804 -0.3760751,-2.3473 0.053311,-1.41071 0.4187244,-2.182 0.7338423,-1.54895 0.2526968,0.50765 0.3530432,1.7425 0.2276595,2.80155 -0.102174,0.86301 -0.3603139,1.34571 -0.5854267,1.0947 z"
       id="path3721"
       inkscape:connector-curvature="0" />
    <path
       style="display:inline;fill:#487dbc;stroke-width:0.02288097"
       d="m 24.510892,172.64075 c -0.0093,-0.0217 -0.04144,-0.0748 -0.07136,-0.11796 -0.217279,-0.31334 -0.318108,-1.38649 -0.212681,-2.26364 0.04165,-0.34656 0.103817,-0.59286 0.192234,-0.76165 0.05374,-0.1026 0.07923,-0.1213 0.16529,-0.1213 0.08606,0 0.111549,0.0187 0.165291,0.1213 0.03495,0.0667 0.08437,0.19837 0.10982,0.29256 0.0461,0.1706 0.114938,0.65959 0.114938,0.81649 0,0.0454 0.0051,0.0954 0.01131,0.11111 0.01414,0.0358 0.01489,0.45953 10e-4,0.56789 -0.0057,0.0442 -0.01866,0.17781 -0.02887,0.29686 -0.03756,0.43778 -0.12331,0.78902 -0.230194,0.94285 -0.02906,0.0418 -0.06168,0.095 -0.07248,0.11825 -0.02439,0.0524 -0.121413,0.0506 -0.144302,-0.003 z m 0.228852,-0.24461 c 0.0799,-0.14983 0.14962,-0.43518 0.187788,-0.76864 0.02481,-0.21672 0.02984,-0.32503 0.02938,-0.632 -6.79e-4,-0.4525 -0.02544,-0.70539 -0.101817,-1.03983 -0.07884,-0.34524 -0.157993,-0.48788 -0.27072,-0.48788 -0.07597,0 -0.100695,0.0206 -0.154478,0.12858 -0.170488,0.34235 -0.258471,1.10186 -0.208768,1.80215 0.06542,0.92179 0.309088,1.39051 0.518611,0.99762 z m -0.291312,-0.55338 c -0.0033,-0.0349 -0.0045,-0.41692 -0.0028,-0.84896 l 0.0031,-0.78552 0.116353,-0.0132 c 0.115666,-0.0131 0.11655,-0.0124 0.149801,0.12378 0.04603,0.18851 0.04618,0.42326 3.96e-4,0.61076 -0.01818,0.0745 -0.04052,0.13536 -0.04967,0.13536 -0.03401,0 -0.02717,0.13613 0.02188,0.43561 0.02775,0.16942 0.04725,0.32927 0.04333,0.35522 -0.01115,0.0739 -0.03394,-0.0271 -0.09155,-0.40567 l -0.05228,-0.34357 -0.04652,0.0139 -0.04652,0.0139 -0.0057,0.36681 c -0.0036,0.23465 -0.01074,0.37367 -0.01978,0.38588 -0.0078,0.0105 -0.0168,-0.009 -0.02007,-0.0444 z m 0.224868,-0.96639 c 0.02161,-0.0696 0.02979,-0.13865 0.02979,-0.25133 0,-0.2302 -0.04168,-0.3473 -0.123628,-0.3473 -0.03523,0 -0.07015,0.025 -0.07761,0.0556 -0.01413,0.0579 -0.01864,0.43842 -0.0067,0.56579 0.01104,0.11786 0.139611,0.10146 0.178157,-0.0227 z m -6.529099,1.5054 c -0.121161,-0.15314 -0.22668,-0.59135 -0.268732,-1.11603 l -0.02367,-0.29534 1.41e-4,-10.82335 c 1.41e-4,-11.71929 -0.0033,-11.06787 0.06014,-11.50703 0.01557,-0.10788 0.04781,-0.27264 0.07164,-0.36612 0.04349,-0.17061 0.141637,-0.40887 0.168429,-0.40887 0.0079,0 0.01645,-0.026 0.01904,-0.0579 0.0063,-0.0768 5.374882,-0.086 5.387609,-0.009 0.0044,0.0268 0.03251,0.0862 0.06239,0.13215 0.07934,0.1219 0.178147,0.5165 0.218134,0.87117 l 0.03279,0.29091 v 11.04525 11.04526 l -0.03674,0.3057 c -0.04356,0.36242 -0.11452,0.64697 -0.204352,0.81945 l -0.06416,0.1232 -2.685118,0.008 c -2.301268,0.007 -2.692614,-0.001 -2.737542,-0.0578 z m 1.498351,-3.5665 c 0.0038,-0.0403 0.0069,-2.693 0.0069,-5.89491 0,-4.46622 -0.0032,-5.8346 -0.01357,-5.87724 -0.01948,-0.0798 -0.88046,-0.0798 -0.899938,0 -0.01041,0.0426 -0.01357,1.41102 -0.01357,5.87724 0,3.20191 0.0031,5.85463 0.0069,5.89491 0.0061,0.0651 0.05693,0.0733 0.456674,0.0733 0.39974,0 0.450576,-0.008 0.456674,-0.0733 z m 1.466046,-3.39979 c 0.0054,-2.93931 0.0091,-3.49444 0.02443,-3.75089 0.03595,-0.59993 0.09842,-1.03995 0.182943,-1.28857 0.09787,-0.28788 0.266731,-0.42665 0.406398,-0.33398 0.187928,0.1247 0.294403,0.58781 0.342839,1.49117 0.01548,0.28865 0.01925,0.86566 0.02506,3.83596 l 0.0068,3.4962 h 0.45223 0.452231 v -3.93612 c 0,-3.53669 -0.002,-3.98838 -0.01996,-4.45113 -0.05313,-1.37172 -0.138434,-2.14003 -0.311541,-2.80627 -0.09677,-0.37245 -0.241098,-0.6793 -0.386371,-0.82146 -0.136981,-0.13404 -0.370584,-0.19954 -0.499053,-0.13994 -0.269687,0.12514 -0.501418,0.67799 -0.679041,1.62002 l -0.03056,0.16207 -5.3e-4,-0.70051 c -4.06e-4,-0.53388 -0.0042,-0.71302 -0.01599,-0.75307 -0.01107,-0.0376 -0.13555,-0.0491 -0.438098,-0.0404 l -0.422639,0.0121 -0.0029,5.88102 c -0.0016,3.23456 -4.63e-4,5.90731 0.0025,5.93944 0.0043,0.046 0.101414,0.0558 0.455138,0.0463 l 0.449721,-0.0121 z M 19.355464,155.3369 c 0.08978,-0.12065 0.189927,-0.41846 0.250428,-0.74474 0.16345,-0.88151 0.144339,-2.06134 -0.04602,-2.84103 -0.252332,-1.03353 -0.669845,-0.78317 -0.840919,0.50425 -0.163569,1.23094 0.0081,2.78795 0.346353,3.14113 0.0741,0.0774 0.208804,0.0497 0.290158,-0.0596 z m -7.379819,13.7369 c -0.657252,-0.28356 -1.162307,-1.8671 -1.34149,-4.2061 -0.11741,-1.53264 -0.08609,-3.37425 0.08087,-4.7544 0.255912,-2.11555 0.803236,-3.40359 1.446279,-3.40359 0.713008,0 1.202821,1.74449 1.327878,4.7293 0.01889,0.45091 0.02431,0.78486 0.02543,1.56849 l 0.0014,0.9956 -1.034478,0.0232 -1.034477,0.0231 0.0026,0.18523 c 0.004,0.28433 0.09294,0.97879 0.164518,1.28392 0.134656,0.57402 0.271157,0.82177 0.471682,0.85613 0.15919,0.0273 0.247311,-0.0464 0.384396,-0.32146 0.07869,-0.15789 0.115052,-0.27075 0.200743,-0.62311 l 0.104644,-0.4303 0.279751,0.8389 c 0.153864,0.46139 0.288481,0.87007 0.299148,0.90817 0.01808,0.0646 0.01667,0.0829 -0.02097,0.27102 -0.05287,0.26428 -0.204154,0.78665 -0.303684,1.0486 -0.174645,0.45964 -0.382792,0.79796 -0.576594,0.93718 -0.125699,0.0903 -0.353387,0.12372 -0.477652,0.0701 z m 0.651704,-7.49784 c 0.012,-0.0311 0.01431,-0.11531 0.0097,-0.35199 -0.01268,-0.64702 -0.14111,-1.40129 -0.291886,-1.71423 -0.11801,-0.24494 -0.296332,-0.3197 -0.437462,-0.18341 -0.221622,0.21402 -0.413281,1.00915 -0.4567,1.89469 -0.02098,0.42781 -0.06614,0.39736 0.588217,0.39655 0.314811,-3.7e-4 0.579481,-0.0191 0.588155,-0.0416 z m 2.369744,7.46959 c -0.31024,-0.17764 -0.589963,-0.7322 -0.791403,-1.56898 -0.393914,-1.63632 -0.517216,-4.40497 -0.30989,-6.95831 0.118175,-1.45537 0.365406,-2.6803 0.666021,-3.29985 0.172055,-0.3546 0.343147,-0.50885 0.563943,-0.50842 0.357034,6.8e-4 0.617114,0.36171 0.810562,1.12516 0.05108,0.20158 0.09722,0.36944 0.102535,0.37303 0.0053,0.004 0.01221,-1.51468 0.01532,-3.37391 l 0.0057,-3.38043 h 0.435272 0.435272 v 8.65946 8.65945 l -0.398529,0.0122 -0.398528,0.0122 v -0.69141 c 0,-0.67973 -0.0044,-0.83791 -0.0232,-0.83791 -0.0052,0 -0.03138,0.0977 -0.05815,0.21711 -0.171178,0.76356 -0.350118,1.21948 -0.580043,1.47786 -0.06581,0.074 -0.391196,0.1307 -0.474842,0.0828 z m 0.614601,-3.19473 c 0.245588,-0.25534 0.420605,-0.98649 0.489321,-2.0442 0.03255,-0.50101 0.03249,-1.32961 -1.41e-4,-1.8318 -0.04733,-0.72862 -0.163215,-1.39615 -0.298508,-1.71944 -0.133894,-0.31995 -0.320926,-0.46603 -0.50097,-0.39129 -0.253055,0.10506 -0.454764,0.66833 -0.553563,1.54581 -0.05082,0.45139 -0.07297,0.9011 -0.07297,1.48183 0,1.6828 0.227958,2.81662 0.610511,3.03658 0.08031,0.0462 0.244973,0.007 0.326304,-0.0775 z m -15.6003888,-5.72445 5.6e-7,-8.69269 0.45505694,0.0101 0.4550569,0.0101 0.002864,6.89522 c 0.002077,5.00259 0.006337,6.91236 0.0155166,6.95766 0.0104105,0.0514 0.1636861,0.0624 0.8648535,0.0624 H 2.656854 v 1.71299 1.71299 l -1.3227746,0.0119 -1.32277476,0.012 z m 3.0864736,2.81167 v -5.85787 h 0.4352717 0.4352718 v 5.85787 5.85787 H 3.5330505 3.0977788 Z m 1.3906089,0 v -5.85787 h 0.4180397 0.4180397 l 0.0031,0.77183 c 0.0021,0.52279 0.00723,0.77746 0.015887,0.78925 0.00703,0.01 0.035672,-0.11374 0.063642,-0.27403 0.119457,-0.6846 0.2992872,-1.20058 0.5058173,-1.45131 0.2488493,-0.30212 0.667861,-0.11393 0.8875023,0.39859 0.1780119,0.41538 0.295135,1.04221 0.3715379,1.98842 0.086883,1.076 0.09991,1.92649 0.095397,6.22832 l -0.0034,3.24151 H 6.8286803 6.3934085 l -0.00627,-3.5425 c -0.00688,-3.88764 -0.00545,-3.80628 -0.077248,-4.38884 -0.086797,-0.70427 -0.272189,-1.03641 -0.4988749,-0.89378 -0.2146466,0.13507 -0.3456598,0.6304 -0.4063372,1.5363 -0.037378,0.55804 -0.045218,1.31745 -0.045491,4.4062 l -2.473e-4,2.90578 H 4.9236687 4.4883968 Z m 3.258856,-2.81317 0.00285,-8.67103 h 0.429619 0.4296189 l 0.00565,5.1594 c 0.0042,3.83538 0.009,5.16397 0.018682,5.17719 0.00717,0.01 0.2376524,-1.04603 0.5121923,-2.34624 l 0.4991722,-2.36402 h 0.5307639 c 0.291921,0 0.530764,0.0114 0.530764,0.0253 0,0.0139 -0.255651,1.21411 -0.568114,2.66712 -0.312463,1.45301 -0.5697147,2.67014 -0.5716706,2.70473 -0.00196,0.0346 0.246638,1.44359 0.5524316,3.13111 0.305793,1.68752 0.55852,3.09525 0.561616,3.1283 0.0046,0.0488 -0.09678,0.0578 -0.541125,0.0481 l -0.546755,-0.012 -0.4691891,-2.87105 c -0.2724325,-1.66706 -0.4763008,-2.87105 -0.4861478,-2.87105 -0.014861,0 -0.017319,0.35647 -0.019871,2.88263 l -0.00291,2.88262 H 8.1796036 7.7443876 Z m -4.3158301,-4.81249 c -0.2612716,-0.20407 -0.4419856,-1.26567 -0.4006417,-2.35356 0.041113,-1.08181 0.2639709,-1.81369 0.5325642,-1.74896 0.1571437,0.0379 0.2816855,0.30473 0.373706,0.80077 0.073474,0.39607 0.092845,0.66058 0.093175,1.27234 2.827e-4,0.50478 -0.00161,0.54892 -0.036061,0.84685 -0.071122,0.61501 -0.2128691,1.06985 -0.369909,1.18695 -0.077402,0.0577 -0.1143861,0.0569 -0.192833,-0.004 z"
       id="path3719"
       inkscape:connector-curvature="0" />
    <path
       style="display:inline;fill:#2766b1;stroke-width:0.02288097"
       d="m 24.553491,172.65216 c 0.02032,-0.0103 0.05085,-0.0101 0.06783,4.3e-4 0.01699,0.0106 3.6e-4,0.019 -0.03695,0.0187 -0.03731,-2.9e-4 -0.05121,-0.009 -0.03089,-0.0192 z m -0.121616,-0.16145 c -0.122406,-0.19245 -0.240315,-0.84143 -0.236215,-1.30014 0.0011,-0.1201 0.0031,-0.10621 0.0104,0.072 0.02664,0.64858 0.154757,1.17334 0.313103,1.28244 0.04727,0.0326 0.04904,0.0375 0.01434,0.0402 -0.02176,0.002 -0.0675,-0.0409 -0.101628,-0.0945 z m 0.217722,0.0543 c 0.156509,-0.10783 0.286624,-0.64499 0.313518,-1.29431 0.0073,-0.17689 0.0089,-0.18612 0.01,-0.0602 0.0055,0.6197 -0.189797,1.41977 -0.341094,1.39708 -0.02932,-0.004 -0.02593,-0.0126 0.01759,-0.0426 z m -6.481238,-0.16405 C 18.04343,172.24527 17.933305,171.83 17.886572,171.3184 l -0.02365,-0.25894 0.0029,-11.0068 0.0029,-11.0068 0.03308,-0.26754 c 0.01819,-0.14715 0.05769,-0.36182 0.08776,-0.47705 0.05567,-0.21327 0.154818,-0.4344 0.195722,-0.4365 0.01653,-8.5e-4 0.0186,-0.0116 0.0077,-0.0399 -0.0096,-0.025 0.0065,-0.0493 0.04522,-0.0683 0.07825,-0.0385 5.190456,-0.0395 5.258961,-0.001 0.02871,0.0161 0.04947,0.0474 0.04613,0.0695 -0.0033,0.0221 0.0022,0.0402 0.01227,0.0402 0.01008,0 0.04563,0.0529 0.07899,0.11755 0.07983,0.15468 0.176439,0.58221 0.211139,0.93433 l 0.0264,0.26787 0.003,10.78758 c 0.002,7.13605 -9.04e-4,10.87345 -0.0085,11.04126 -0.01669,0.36985 -0.05285,0.64267 -0.123962,0.93523 -0.04299,0.17685 -0.08433,0.29409 -0.13064,0.37045 l -0.06775,0.11173 -2.656854,0.009 c -2.297271,0.008 -2.66527,-4.4e-4 -2.719036,-0.0588 z m 1.478272,-9.41698 c 0.0023,-4.72753 0,-5.9552 -0.01131,-5.9845 -0.0164,-0.0427 -0.868278,-0.0523 -0.8951,-0.0102 -0.01618,0.0254 -0.01788,0.59413 -0.01788,5.96591 0,3.2658 0.0034,5.95194 0.0077,5.9692 0.0042,0.0173 0.211534,0.0259 0.46071,0.0193 l 0.45301,-0.0121 z m 1.461507,5.85202 c 0.0068,-0.0731 0.01108,-1.37888 0.01117,-3.39201 1.41e-4,-3.01648 0.0018,-3.30616 0.02131,-3.69315 0.0486,-0.96458 0.163847,-1.4861 0.362484,-1.64039 0.124865,-0.097 0.268897,-0.0361 0.357173,0.15095 0.05013,0.10624 0.126999,0.46609 0.153357,0.71795 0.05955,0.56902 0.05884,0.52258 0.06574,4.31715 0.0035,1.94838 0.01055,3.56856 0.01558,3.60039 0.0071,0.0447 0.110664,0.0579 0.454659,0.0579 0.428895,0 0.445949,-0.003 0.457216,-0.0896 0.01561,-0.11946 0.0157,-6.75279 1.06e-4,-7.59744 -0.02126,-1.15126 -0.06218,-1.86443 -0.148097,-2.58068 -0.162001,-1.35056 -0.464931,-1.99972 -0.934615,-2.00282 -0.216514,-0.001 -0.367867,0.16002 -0.538028,0.57392 -0.0785,0.19093 -0.210834,0.68115 -0.276104,1.02276 l -0.03539,0.18523 -3.85e-4,-0.72438 c -3.18e-4,-0.61689 -0.003,-0.72856 -0.01826,-0.75249 -0.03201,-0.0503 -0.829861,-0.0318 -0.853403,0.0198 -0.02144,0.047 -0.02187,0.1621 -0.02187,5.94123 0,4.52192 0.0032,5.90621 0.01357,5.94885 0.01009,0.0413 0.12744,0.0556 0.458163,0.0556 h 0.444596 l 0.01103,-0.11878 z M 19.3272,155.40437 c 0.235515,-0.23984 0.422539,-1.33399 0.396106,-2.31736 -0.03161,-1.17599 -0.25823,-2.0093 -0.543081,-1.99696 -0.1183,0.005 -0.197597,0.10386 -0.294074,0.36615 -0.166473,0.45259 -0.259241,1.30558 -0.231015,2.12414 0.04505,1.3063 0.35483,2.14708 0.672064,1.82403 z m 5.127163,15.61428 v -0.83353 l 0.08762,2.9e-4 c 0.154045,4.4e-4 0.195024,0.0928 0.195024,0.43966 0,0.23159 -0.01564,0.3307 -0.06209,0.3935 -0.05121,0.0692 -0.05038,0.14206 0.0056,0.48634 0.02483,0.15281 0.04517,0.29347 0.04519,0.31257 1.06e-4,0.0999 -0.02244,0.001 -0.06654,-0.29159 -0.06325,-0.41981 -0.07404,-0.4609 -0.121059,-0.4609 -0.04798,0 -0.06109,0.11003 -0.06109,0.5124 0,0.15234 -0.005,0.27483 -0.01131,0.27483 -0.0071,0 -0.01131,-0.30872 -0.01131,-0.83354 z m 0.234228,-0.16013 c 0.03304,-0.15734 0.03274,-0.31105 -9.15e-4,-0.47133 -0.02432,-0.1158 -0.03391,-0.1275 -0.106455,-0.12993 -0.04385,-0.001 -0.08388,0.0143 -0.08895,0.0351 -0.0051,0.0208 -0.0093,0.17256 -0.0094,0.33734 -2.47e-4,0.3687 0.009,0.40094 0.106833,0.37277 0.06165,-0.0177 0.07717,-0.0403 0.09893,-0.14392 z m 0.300376,0.13698 c 1.06e-4,-0.12734 0.0023,-0.17394 0.0049,-0.10355 0.0026,0.0704 0.0025,0.17458 -1.41e-4,0.23153 -0.0027,0.057 -0.0048,-5.8e-4 -0.0047,-0.12798 z m -0.790047,-0.26207 c 0.01082,-0.62944 0.168545,-1.26221 0.327454,-1.31368 l 0.058,-0.0188 -0.05962,0.0446 c -0.160437,0.1199 -0.290436,0.64497 -0.319909,1.29213 l -0.0096,0.21155 z m 0.766825,0.0537 c 0,-0.0891 0.0023,-0.12561 0.0052,-0.081 0.0028,0.0446 0.0028,0.11751 0,0.16208 -0.0028,0.0446 -0.0052,0.008 -0.0052,-0.081 z m -0.03031,-0.406 c -0.04582,-0.45569 -0.166147,-0.84198 -0.29143,-0.93561 l -0.05963,-0.0446 0.05801,0.0188 c 0.07754,0.0251 0.157015,0.18444 0.219346,0.43974 0.04827,0.1977 0.106624,0.60962 0.09914,0.69979 -0.0019,0.0225 -0.01332,-0.0576 -0.02544,-0.17816 z m -13.013508,-1.35734 c -0.124857,-0.0697 -0.3062,-0.26195 -0.417698,-0.44272 -0.483548,-0.78391 -0.7968,-2.31082 -0.907127,-4.42168 -0.02809,-0.5374 -0.02821,-1.93108 -2.12e-4,-2.50323 0.120444,-2.46191 0.550427,-4.18943 1.186317,-4.76621 0.14888,-0.13504 0.493724,-0.17315 0.637714,-0.0705 0.489816,0.34926 0.835334,1.57058 0.992451,3.50809 0.0728,0.89777 0.09679,1.59821 0.09693,2.83045 l 1.06e-4,0.82195 h -1.028262 c -1.163616,0 -1.061362,-0.0382 -1.033996,0.38667 0.06121,0.95045 0.255653,1.72279 0.497495,1.97614 0.171748,0.17991 0.341375,0.0939 0.524483,-0.2661 0.0918,-0.18047 0.121599,-0.27021 0.206853,-0.62309 l 0.0996,-0.41225 0.287869,0.8636 c 0.158328,0.47497 0.290899,0.88367 0.294602,0.90821 0.0098,0.0647 -0.168274,0.75674 -0.275263,1.07001 -0.171157,0.50116 -0.379349,0.87239 -0.602207,1.0738 -0.101598,0.0918 -0.442126,0.13249 -0.559635,0.0668 z m 0.725888,-7.48301 c 0.01244,-0.13283 -0.01822,-0.71052 -0.05402,-1.01779 -0.149798,-1.28558 -0.579669,-1.7054 -0.887979,-0.8672 -0.126079,0.34278 -0.233087,0.98496 -0.263085,1.57885 -0.02113,0.41837 -0.07538,0.38365 0.59947,0.38365 0.549068,0 0.598949,-0.006 0.605614,-0.0775 z m 2.371891,7.48336 c -0.592021,-0.28801 -1.033836,-1.92155 -1.17001,-4.32592 -0.07434,-1.31254 -0.05439,-2.89971 0.05224,-4.15729 0.08657,-1.02097 0.208822,-1.81071 0.385192,-2.4883 0.164051,-0.63026 0.351294,-1.03152 0.574298,-1.23073 0.135804,-0.12132 0.414837,-0.10993 0.570065,0.0233 0.228617,0.19616 0.39953,0.55833 0.523912,1.11019 0.11287,0.50078 0.104003,0.75771 0.107334,-3.11013 l 0.0029,-3.36822 h 0.429544 0.429546 v 8.63631 8.6363 h -0.395421 -0.395423 l -0.0031,-0.74868 c -0.0021,-0.5169 -0.0072,-0.75422 -0.01623,-0.76655 -0.0072,-0.01 -0.03265,0.0718 -0.05653,0.18142 -0.169027,0.77593 -0.37365,1.30062 -0.592231,1.5186 -0.112714,0.1124 -0.315602,0.15322 -0.446085,0.0897 z m 0.641923,-3.20836 c 0.218794,-0.30522 0.358743,-0.88915 0.43444,-1.81267 0.02759,-0.33661 0.03042,-0.43603 0.03098,-1.08822 5.44e-4,-0.62609 -0.0027,-0.76211 -0.02574,-1.06506 -0.0728,-0.95919 -0.229495,-1.61111 -0.458583,-1.90796 -0.04154,-0.0538 -0.118815,-0.0999 -0.193988,-0.11556 -0.387041,-0.0809 -0.664232,0.70828 -0.759557,2.16244 -0.02743,0.41843 -0.02665,1.43362 0.0014,1.8515 0.05847,0.87026 0.183015,1.49321 0.370307,1.85219 0.11514,0.22069 0.197256,0.27941 0.365795,0.26157 0.122809,-0.013 0.161434,-0.0357 0.234916,-0.13823 z M 0.01684193,160.13645 c 0,-4.80091 0.0013241,-6.76491 0.0029425,-4.36446 0.0016184,2.40045 0.0016184,6.32847 0,8.72892 -0.0016183,2.40045 -0.0029425,0.43644 -0.0029425,-4.36446 z m 0.01707536,1.9e-4 v -8.65965 H 0.4804949 0.92707248 v 6.94114 c 0,6.28668 0.001686,6.94378 0.0178833,6.96924 0.009836,0.0155 0.39910012,0.0281 0.86503182,0.0281 h 0.8471485 l -0.00297,1.67863 -0.00297,1.67864 -1.3086419,0.0118 -1.30864198,0.0118 z m 7.72183541,-1.9e-4 v -8.65946 h 0.4239661 0.423966 v 5.06763 c 0,3.28701 0.004,5.11069 0.011375,5.19018 0.00626,0.0674 0.017399,0.11432 0.024761,0.10427 0.00736,-0.01 0.2376549,-1.07971 0.5117613,-2.37701 l 0.4983757,-2.35874 0.5236262,-0.012 c 0.325927,-0.007 0.52219,0.005 0.51982,0.0318 -0.0021,0.0241 -0.18224,0.87348 -0.400327,1.88749 -0.6993003,3.25143 -0.7397082,3.44174 -0.7397082,3.48383 0,0.0228 0.2518358,1.43154 0.5596352,3.13063 0.307799,1.69908 0.559635,3.10761 0.559635,3.13006 0,0.023 -0.232347,0.0408 -0.531481,0.0408 -0.4922149,0 -0.532727,-0.006 -0.5483367,-0.081 -0.00927,-0.0446 -0.224171,-1.35145 -0.4775575,-2.90417 -0.2533868,-1.55272 -0.4670311,-2.83075 -0.4747656,-2.84008 -0.033064,-0.0399 -0.036813,0.26836 -0.036813,3.02671 v 2.79858 H 8.1797188 7.7557527 Z m -4.6466682,2.77843 v -5.83471 h 0.423966 0.423966 v 5.83471 5.83472 h -0.423966 -0.423966 z m 1.3906089,0.0232 v -5.81156 h 0.4070074 0.4070074 v 0.66844 c 0,0.6385 0.00962,0.906 0.032577,0.906 0.00579,0 0.029684,-0.10922 0.0531,-0.24273 0.2285579,-1.30305 0.5581028,-1.82901 1.005329,-1.60453 0.5309741,0.26652 0.7831816,1.52745 0.8418553,4.20893 0.00677,0.3095 0.011669,2.03077 0.011691,4.10977 l 3.53e-5,3.57724 H 6.8293268 6.4003583 l -0.00434,-3.48462 c -0.00392,-3.15207 -0.00626,-3.51556 -0.024462,-3.80877 -0.032099,-0.51706 -0.07779,-0.86463 -0.1484284,-1.12906 -0.08187,-0.30648 -0.1681397,-0.42224 -0.3146839,-0.42224 -0.2825762,0 -0.4392532,0.50142 -0.5188274,1.66042 -0.023691,0.34506 -0.024395,0.43967 -0.028034,3.76911 l -0.00373,3.41516 H 4.9287718 4.4996934 Z M 3.4115606,155.2703 c -0.072537,-0.07 -0.1786015,-0.31786 -0.2351181,-0.54934 -0.061578,-0.25222 -0.1050818,-0.57462 -0.1296338,-0.96071 -0.088679,-1.3945 0.2060802,-2.7198 0.5593607,-2.51501 0.333726,0.19346 0.5242962,1.69278 0.3740476,2.94285 -0.1000539,0.83244 -0.3448497,1.29831 -0.5686564,1.08221 z"
       id="path3717"
       inkscape:connector-curvature="0" />
  </g>
</svg>
