<?xml version="1.0" encoding="UTF-8" standalone="no"?>
<!-- Created with Inkscape (http://www.inkscape.org/) -->

<svg
   xmlns:dc="http://purl.org/dc/elements/1.1/"
   xmlns:cc="http://creativecommons.org/ns#"
   xmlns:rdf="http://www.w3.org/1999/02/22-rdf-syntax-ns#"
   xmlns:svg="http://www.w3.org/2000/svg"
   xmlns="http://www.w3.org/2000/svg"
   xmlns:sodipodi="http://sodipodi.sourceforge.net/DTD/sodipodi-0.dtd"
   xmlns:inkscape="http://www.inkscape.org/namespaces/inkscape"
   version="1.1"
   id="svg2"
   width="25.000004"
   height="25.000145"
   viewBox="0 0 25.000004 25.000145"
   sodipodi:docname="microsoftword.svg"
   inkscape:version="0.92.4 (5da689c313, 2019-01-14)">
  <metadata
     id="metadata8">
    <rdf:RDF>
      <cc:Work
         rdf:about="">
        <dc:format>image/svg+xml</dc:format>
        <dc:type
           rdf:resource="http://purl.org/dc/dcmitype/StillImage" />
        <dc:title></dc:title>
      </cc:Work>
    </rdf:RDF>
  </metadata>
  <defs
     id="defs6" />
  <sodipodi:namedview
     pagecolor="#ffffff"
     bordercolor="#666666"
     borderopacity="1"
     objecttolerance="10"
     gridtolerance="10"
     guidetolerance="10"
     inkscape:pageopacity="0"
     inkscape:pageshadow="2"
     inkscape:window-width="1600"
     inkscape:window-height="821"
     id="namedview4"
     showgrid="false"
     inkscape:pagecheckerboard="true"
     fit-margin-top="0"
     fit-margin-left="0"
     fit-margin-right="0"
     fit-margin-bottom="0"
     inkscape:zoom="6.2945624"
     inkscape:cx="19.355389"
     inkscape:cy="5.2594222"
     inkscape:window-x="-9"
     inkscape:window-y="-9"
     inkscape:window-maximized="1"
     inkscape:current-layer="g12" />
  <g
     id="g12"
     transform="translate(-63.497816,-438.89838)">
    <path
       style="display:inline;fill:#a2a5aa;stroke-width:0.06406192"
       d="m 77.490595,463.53489 c -1.201318,-0.19589 -4.761115,-0.77237 -7.910659,-1.28107 -5.399678,-0.87211 -5.736589,-0.93383 -5.904208,-1.08148 l -0.177763,-0.15658 v -9.60359 c 0,-10.33348 -0.01824,-9.81387 0.348749,-9.93677 0.242437,-0.0812 15.471671,-2.52899 15.96461,-2.56599 0.342396,-0.0257 0.437517,-0.0108 0.580182,0.091 0.16869,0.12031 0.171189,0.13569 0.218456,1.34471 0.0263,0.67265 0.04663,1.78056 0.04518,2.46202 l -0.0026,1.23902 0.219319,0.0386 c 0.120579,0.0213 1.870786,0.0386 3.889302,0.0386 3.013532,0 3.676338,0.0145 3.705301,0.081 0.04384,0.10064 -0.0052,0.76722 -0.06004,0.81554 -0.0221,0.0195 -1.765388,0.049 -3.873973,0.0655 l -3.833791,0.0301 v 0.78163 0.78162 l 3.837343,0.0155 c 4.37724,0.0177 3.996396,-0.0392 3.919854,0.58572 l -0.04419,0.36075 -3.856505,0.0313 c -2.121078,0.0172 -3.865075,0.0375 -3.875551,0.0451 -0.01047,0.008 -0.01047,0.37227 0,0.81043 l 0.01905,0.79666 3.837343,0.0155 c 4.37724,0.0177 3.996396,-0.0392 3.919854,0.58572 l -0.04419,0.36075 -3.856505,0.0313 c -2.121078,0.0172 -3.865075,0.0375 -3.875551,0.0451 -0.01047,0.008 -0.01047,0.37228 0,0.81044 l 0.01905,0.79665 3.837343,0.0155 c 4.37724,0.0177 3.996396,-0.0392 3.919854,0.58572 l -0.04419,0.36075 -3.856505,0.0313 c -2.121078,0.0172 -3.865101,0.0375 -3.875609,0.0451 -0.01051,0.008 -0.01051,0.35875 0,0.78037 l 0.0191,0.76659 0.40954,0.0386 c 0.225248,0.0212 1.965068,0.0415 3.866267,0.0451 2.829596,0.005 3.463125,0.0212 3.491999,0.0875 0.04384,0.10063 -0.0052,0.76721 -0.06003,0.81554 -0.0221,0.0195 -1.765385,0.049 -3.873974,0.0655 l -3.833799,0.0301 v 0.78163 0.78162 l 3.841962,0.0301 c 3.113441,0.0244 3.852697,0.0454 3.898572,0.11079 0.06101,0.087 0.03404,0.78693 -0.03258,0.84568 -0.02219,0.0196 -1.765562,0.0491 -3.874152,0.0657 l -3.833799,0.0301 3.42e-4,1.05218 c 2.04e-4,0.57871 0.0053,1.22806 0.01146,1.443 0.01855,0.65189 -0.08968,2.78836 -0.147198,2.90563 -0.06852,0.13971 -0.315464,0.22273 -0.636938,0.21415 -0.138336,-0.004 -1.234416,-0.16699 -2.435735,-0.36288 z m -2.397159,-9.50592 c 1.135732,-4.99945 1.745833,-7.82765 1.697078,-7.86702 -0.04776,-0.0386 -1.602139,0.0427 -1.763999,0.0923 -0.0413,0.0126 -0.09376,0.1539 -0.116562,0.31392 -0.02281,0.16001 -0.271971,1.6708 -0.553698,3.35731 -0.281728,1.6865 -0.543208,3.30682 -0.581069,3.60072 -0.105913,0.82215 -0.176102,0.80147 -0.312001,-0.0919 -0.15688,-1.03131 -1.32321,-6.92337 -1.380182,-6.97239 -0.06141,-0.0528 -1.667032,0.0553 -1.740003,0.1172 -0.05518,0.0468 -1.298766,6.07425 -1.41612,6.86368 -0.04179,0.28109 -0.09235,0.55165 -0.112371,0.60125 -0.06968,0.17266 -0.231417,-0.12748 -0.231417,-0.42944 0,-0.37077 -1.009857,-6.79922 -1.075977,-6.84934 -0.05504,-0.0417 -1.447838,0.0423 -1.502735,0.0906 -0.03453,0.0304 1.791542,9.10017 1.840958,9.1437 0.01485,0.0131 0.398459,0.0423 0.852463,0.0649 0.772706,0.0385 0.82798,0.0338 0.864861,-0.0728 0.04982,-0.14397 1.315704,-6.03228 1.375224,-6.39691 0.102499,-0.62794 0.199221,-0.61064 0.30636,0.0548 0.123694,0.76825 1.369999,6.58654 1.420327,6.63069 0.04844,0.0425 0.532354,0.0757 1.414075,0.0971 l 0.478686,0.0116 z"
       id="path26"
       inkscape:connector-curvature="0" />
    <path
       style="display:inline;fill:#6688ba;stroke-width:0.06406192"
       d="m 76.97867,463.36082 c -2.162751,-0.35653 -11.516439,-1.875 -12.657178,-2.05476 -0.261809,-0.0412 -0.460989,-0.11307 -0.563118,-0.20303 l -0.158023,-0.1392 v -9.56654 c 0,-6.36512 0.02321,-9.60476 0.06937,-9.68073 0.03815,-0.0628 0.184053,-0.14234 0.32422,-0.17676 0.140166,-0.0344 2.189927,-0.37252 4.555022,-0.75133 2.365096,-0.37881 5.802169,-0.93331 7.637941,-1.23222 1.835771,-0.29891 3.496218,-0.54347 3.689881,-0.54347 0.617687,0 0.575076,-0.17791 0.626446,2.61543 0.03096,1.6837 0.06912,2.47912 0.120382,2.50929 0.04128,0.0243 1.802797,0.0446 3.914489,0.0451 l 3.839441,9.2e-4 v 0.39081 0.39081 l -3.771184,8.3e-4 c -2.074151,4.8e-4 -3.841115,0.0173 -3.926584,0.0375 -0.15357,0.0362 -0.155179,0.0467 -0.136514,0.88602 l 0.01889,0.84935 3.890633,0.0301 3.890634,0.0301 v 0.39081 0.39081 l -3.890634,0.0301 -3.890633,0.0301 v 0.87181 0.87181 l 3.890633,0.0301 3.890634,0.0301 v 0.39081 0.39081 l -3.890634,0.0301 -3.890633,0.0301 v 0.87181 0.87181 l 3.890633,0.0301 3.890634,0.0301 v 0.39081 0.39082 l -3.890634,0.0301 -3.890633,0.0301 -0.01889,0.84935 c -0.01866,0.83934 -0.01706,0.84978 0.136514,0.88602 0.08547,0.0202 1.853898,0.037 3.929841,0.0375 l 3.774441,8.1e-4 -0.02032,0.37578 -0.02032,0.37578 -3.890634,0.0313 c -2.139848,0.0172 -3.898312,0.0375 -3.907697,0.0451 -0.0094,0.008 -0.01706,0.40272 -0.01706,0.87809 v 0.86429 l 0.213302,0.0376 c 0.117316,0.0207 1.884924,0.0376 3.928019,0.0376 h 3.714716 l -0.02032,0.37578 -0.02032,0.37578 -3.890634,0.0313 c -2.139848,0.0172 -3.898312,0.0375 -3.907697,0.0451 -0.0094,0.008 -0.01706,1.21177 -0.01706,2.67597 0,3.11106 0.03865,2.93321 -0.635245,2.92308 -0.232505,-0.003 -1.543852,-0.19117 -2.914105,-0.41706 z m -2.416272,-6.89771 c 0.06267,-0.0369 0.634748,-2.51664 2.157312,-9.35133 0.125317,-0.56254 0.186456,-0.97122 0.149952,-1.00235 -0.08674,-0.074 -1.818107,0.0509 -1.913493,0.13804 -0.06857,0.0626 -0.316397,1.4611 -1.059316,5.97775 -0.121024,0.73578 -0.242313,1.33778 -0.269532,1.33778 -0.02722,0 -0.07036,-0.11499 -0.09587,-0.25553 -0.417103,-2.29789 -1.357666,-6.87749 -1.419908,-6.91354 -0.04482,-0.026 -0.188989,-0.0345 -0.320383,-0.019 -0.131394,0.0155 -0.52323,0.0458 -0.870746,0.0672 -0.347517,0.0214 -0.644493,0.057 -0.659947,0.079 -0.01545,0.022 -0.353827,1.6206 -0.751939,3.55238 -0.398113,1.93178 -0.736989,3.5239 -0.753059,3.53806 -0.03863,0.034 -0.08177,-0.15728 -0.166842,-0.74001 -0.372113,-2.54885 -0.982292,-6.13722 -1.049891,-6.17426 -0.04503,-0.0247 -0.189383,-0.0329 -0.320777,-0.0183 -0.131394,0.0146 -0.476944,0.0431 -0.767888,0.0633 -0.484452,0.0337 -0.528904,0.0478 -0.52797,0.167 0.0016,0.20838 1.809309,9.11015 1.858853,9.15379 0.02468,0.0217 0.422306,0.0626 0.883622,0.0909 0.63632,0.0389 0.857497,0.0336 0.916403,-0.0222 0.06696,-0.0634 0.601171,-2.45764 1.254793,-5.6237 0.188062,-0.91095 0.2406,-1.06956 0.300388,-0.90686 0.01693,0.0461 0.339558,1.56997 0.716953,3.38644 0.377395,1.81647 0.71006,3.32372 0.739256,3.34944 0.0292,0.0257 0.421427,0.0711 0.871623,0.10087 0.450196,0.0298 0.864612,0.0575 0.920924,0.0617 0.05631,0.004 0.13618,-0.0123 0.177484,-0.0366 z"
       id="path24"
       inkscape:connector-curvature="0" />
    <path
       style="display:inline;fill:#4479c8;stroke-width:0.06406192"
       d="m 79.947149,463.72313 c -0.02358,-0.0336 -0.07133,-0.0456 -0.106123,-0.0267 -0.03479,0.0189 -1.069314,-0.12835 -2.298948,-0.32731 -1.229634,-0.19895 -3.556466,-0.56688 -5.170738,-0.81761 -4.63679,-0.72019 -8.171927,-1.29105 -8.406606,-1.35751 -0.118689,-0.0336 -0.233872,-0.10259 -0.255963,-0.1533 -0.02209,-0.0507 -0.04016,-4.41567 -0.04016,-9.6999 0,-8.28966 0.01349,-9.61757 0.09831,-9.67958 0.09513,-0.0695 1.018513,-0.22357 5.567003,-0.92862 1.182548,-0.18331 3.989899,-0.63309 6.238557,-0.99951 2.248659,-0.36643 4.131199,-0.65179 4.183423,-0.63414 0.05222,0.0177 0.152157,6.3e-4 0.222073,-0.0378 0.101065,-0.0556 0.163465,-0.049 0.304456,0.0324 l 0.177338,0.10235 v 2.43156 c 0,2.34247 0.0048,2.43384 0.132026,2.4938 0.08651,0.0408 1.452478,0.0622 3.962148,0.0622 h 3.83012 l -0.02032,0.37578 -0.02032,0.37578 -3.870202,0.0301 c -2.637438,0.0205 -3.893673,0.0507 -3.943888,0.095 -0.04743,0.0418 -0.06687,0.35243 -0.05456,0.87181 l 0.01913,0.80687 3.924762,0.0313 c 2.158619,0.0172 3.932441,0.0375 3.941826,0.0451 0.0094,0.008 0.01706,0.17325 0.01706,0.36812 0,0.26763 -0.02642,0.36325 -0.107967,0.39081 -0.05939,0.0201 -1.804034,0.0365 -3.876993,0.0365 -2.840446,0 -3.789193,0.0178 -3.850922,0.0722 -0.08613,0.0759 -0.120208,1.45347 -0.04048,1.63649 0.0371,0.0851 0.440131,0.0951 3.850922,0.0951 2.095221,0 3.858078,0.0164 3.91746,0.0365 0.08124,0.0275 0.107967,0.12262 0.107967,0.38438 0,0.26176 -0.02673,0.35692 -0.107967,0.38438 -0.05938,0.0201 -1.804021,0.0365 -3.87698,0.0365 -2.840446,0 -3.789193,0.0178 -3.850922,0.0722 -0.121638,0.10715 -0.113072,1.57384 0.0097,1.66361 0.06438,0.0471 1.236547,0.0716 3.941826,0.0825 l 3.850202,0.0155 0.02079,0.35518 c 0.01425,0.24344 -0.0072,0.37082 -0.06826,0.40492 -0.04898,0.0274 -1.795295,0.0502 -3.880709,0.0507 -2.856874,6.9e-4 -3.811855,0.0187 -3.873569,0.0731 -0.09972,0.0878 -0.112742,1.47526 -0.01512,1.61135 0.05605,0.0781 0.585719,0.0924 3.961059,0.10666 l 3.896363,0.0165 -0.02028,0.37433 -0.02028,0.37434 -3.876085,0.0301 c -2.81167,0.0218 -3.889452,0.049 -3.924762,0.0991 -0.02677,0.038 -0.03938,0.43428 -0.02801,0.88066 0.0198,0.77771 0.02693,0.81309 0.170642,0.84704 0.08248,0.0195 1.848471,0.0358 3.924414,0.0362 l 3.774441,8.2e-4 -0.02032,0.37578 -0.02032,0.37578 -3.890634,0.0313 c -2.139848,0.0172 -3.89378,0.0375 -3.897627,0.0451 -0.0038,0.008 -0.02868,1.23808 -0.05519,2.73444 -0.04276,2.41397 -0.06076,2.72912 -0.15963,2.79581 -0.134591,0.0908 -0.33435,0.0979 -0.393188,0.0141 z m -5.304172,-7.22904 c 0.0385,-0.0413 0.302359,-1.10329 0.586345,-2.3599 0.956054,-4.23045 1.749348,-7.84035 1.749348,-7.96045 0,-0.0656 -0.02904,-0.13506 -0.06454,-0.15439 -0.110791,-0.0603 -1.943706,0.0908 -2.026418,0.16712 -0.06604,0.0609 -1.05234,5.71743 -1.165863,6.68632 -0.04995,0.42628 -0.126748,0.46716 -0.182475,0.0971 -0.157213,-1.04394 -1.285785,-6.54095 -1.355509,-6.60237 -0.107232,-0.0944 -1.81604,0.0124 -1.938711,0.12128 -0.04317,0.0383 -0.389461,1.58318 -0.769545,3.43308 -0.380083,1.84989 -0.701986,3.37306 -0.715339,3.38482 -0.03518,0.031 -0.05255,-0.0714 -0.589256,-3.47146 -0.315951,-2.00159 -0.519969,-3.11835 -0.577002,-3.15842 -0.10169,-0.0715 -1.601382,0.01 -1.697861,0.0917 -0.05883,0.0501 1.680994,8.99008 1.797949,9.23865 0.05451,0.11587 0.130825,0.13337 0.730893,0.16764 0.368513,0.021 0.76217,0.0503 0.874794,0.065 0.112623,0.0147 0.247444,0.003 0.299602,-0.026 0.06283,-0.035 0.309696,-1.06442 0.731505,-3.05035 0.785331,-3.69742 0.743103,-3.52129 0.797961,-3.3282 0.02349,0.0827 0.337347,1.58349 0.697465,3.33516 0.360118,1.75167 0.670904,3.19917 0.690636,3.21668 0.01973,0.0175 0.455772,0.062 0.96898,0.0988 0.513208,0.0368 0.967739,0.0707 1.010069,0.0752 0.04233,0.005 0.108467,-0.0256 0.146971,-0.067 z m 5.315937,-10.52186 c -0.01893,-0.0413 -0.03443,-0.008 -0.03443,0.0752 0,0.0827 0.01549,0.11649 0.03443,0.0752 0.01894,-0.0413 0.01894,-0.10898 0,-0.15032 z m 0.0014,-2.58161 c -0.02179,-0.048 -0.03796,-0.0337 -0.04124,0.0363 -0.003,0.0634 0.01317,0.0989 0.03585,0.0789 0.02268,-0.02 0.0251,-0.0718 0.0054,-0.11524 z m 4.09e-4,-0.51482 c -0.01717,-0.0579 -0.03122,-0.0105 -0.03122,0.10522 0,0.11574 0.01405,0.16309 0.03122,0.10522 0.01717,-0.0579 0.01717,-0.15257 0,-0.21044 z m 0.004,-2.82219 c -0.01143,-0.48979 -0.02085,-0.10589 -0.02089,0.8531 -3.3e-5,0.95899 0.0094,1.35973 0.02088,0.89052 0.01152,-0.46921 0.01154,-1.25384 5.8e-5,-1.74362 z"
       id="path22"
       inkscape:connector-curvature="0" />
    <path
       style="display:inline;fill:#4c71a7;stroke-width:0.06406192"
       d="m 79.981719,463.75417 c -1.36e-4,-0.0165 -3.41e-4,-5.58328 -4.78e-4,-12.37055 -1.36e-4,-8.48462 0.02192,-12.347 0.07069,-12.36132 0.03902,-0.0115 0.146742,0.0229 0.239392,0.0764 l 0.168439,0.0972 v 2.43156 c 0,2.34247 0.0048,2.43384 0.132026,2.4938 0.08651,0.0408 1.452478,0.0622 3.962148,0.0622 h 3.83012 l -0.02032,0.37578 -0.02032,0.37578 -3.870202,0.0301 c -2.637438,0.0205 -3.893673,0.0507 -3.943888,0.095 -0.04743,0.0418 -0.06687,0.35243 -0.05456,0.87181 l 0.01913,0.80687 3.924762,0.0313 c 2.158619,0.0172 3.932441,0.0375 3.941826,0.0451 0.0094,0.008 0.01706,0.17325 0.01706,0.36812 0,0.26763 -0.02642,0.36325 -0.107967,0.39081 -0.05938,0.0201 -1.804025,0.0365 -3.876984,0.0365 -2.840446,0 -3.789193,0.0178 -3.850922,0.0722 -0.08613,0.0759 -0.120208,1.45347 -0.04048,1.63649 0.0371,0.0851 0.440131,0.0951 3.850922,0.0951 2.095221,0 3.858078,0.0164 3.91746,0.0365 0.08124,0.0275 0.107967,0.12262 0.107967,0.38438 0,0.26176 -0.02673,0.35692 -0.107967,0.38438 -0.05938,0.0201 -1.804021,0.0365 -3.87698,0.0365 -2.840446,0 -3.789193,0.0178 -3.850922,0.0722 -0.121638,0.10715 -0.113072,1.57384 0.0097,1.66361 0.06438,0.0471 1.236547,0.0716 3.941826,0.0825 l 3.850202,0.0155 0.02079,0.35518 c 0.01425,0.24344 -0.0072,0.37082 -0.06826,0.40492 -0.04898,0.0274 -1.795295,0.0502 -3.880709,0.0507 -2.856874,6.9e-4 -3.811855,0.0187 -3.873569,0.0731 -0.09972,0.0878 -0.112742,1.47526 -0.01512,1.61135 0.05605,0.0781 0.585719,0.0924 3.961059,0.10666 l 3.896363,0.0165 -0.02028,0.37433 -0.02028,0.37434 -3.876085,0.0301 c -2.81167,0.0218 -3.889452,0.049 -3.924762,0.0991 -0.02677,0.038 -0.03938,0.43428 -0.02801,0.88066 0.0198,0.77771 0.02693,0.81309 0.170642,0.84704 0.08248,0.0195 1.848471,0.0358 3.924414,0.0362 l 3.774441,8.2e-4 -0.02032,0.37578 -0.02032,0.37578 -3.890634,0.0313 c -2.139848,0.0172 -3.89378,0.0375 -3.897627,0.0451 -0.0038,0.008 -0.02868,1.23808 -0.05519,2.73444 -0.04276,2.41397 -0.06076,2.72912 -0.15963,2.79581 -0.108909,0.0735 -0.358128,0.10479 -0.358618,0.0451 z m -5.357907,-0.87451 c -0.778801,-0.0758 -10.280249,-1.57835 -10.659078,-1.68563 -0.118689,-0.0336 -0.233872,-0.10259 -0.255963,-0.1533 -0.02209,-0.0507 -0.04016,-4.41567 -0.04016,-9.6999 0,-8.2958 0.01344,-9.61754 0.09844,-9.67968 0.100762,-0.0737 1.002954,-0.2268 4.065219,-0.69004 1.741221,-0.2634 2.597624,-0.35767 2.579843,-0.28399 -0.0233,0.0966 0.104034,0.61521 0.158302,0.64475 0.03321,0.0181 0.06038,0.11607 0.06038,0.21776 0,0.10168 0.02925,0.28271 0.065,0.40229 0.03575,0.11958 0.115679,0.47445 0.177621,0.7886 0.06194,0.31415 0.153848,0.70647 0.204233,0.87181 0.05038,0.16534 0.187484,0.76058 0.304666,1.32275 0.269995,1.29528 0.24664,1.23256 0.458951,1.23256 0.416916,0 0.02965,0.0815 -0.741303,0.15591 -0.458186,0.0442 -0.85367,0.10168 -0.878853,0.12762 -0.02518,0.0259 -0.345408,1.52172 -0.711613,3.32396 -0.366203,1.80225 -0.688754,3.34445 -0.716779,3.42712 -0.04856,0.14325 -0.05288,0.14043 -0.09194,-0.0601 -0.02254,-0.11574 -0.260933,-1.60383 -0.529758,-3.30687 -0.315951,-2.00159 -0.519969,-3.11835 -0.577002,-3.15842 -0.10169,-0.0715 -1.601382,0.01 -1.697861,0.0917 -0.05883,0.0501 1.680994,8.99008 1.797949,9.23865 0.05451,0.11587 0.130825,0.13337 0.730893,0.16764 0.368513,0.021 0.76217,0.0503 0.874794,0.065 0.112623,0.0147 0.247444,0.003 0.299602,-0.026 0.06283,-0.035 0.309696,-1.06442 0.731505,-3.05035 0.785331,-3.69742 0.743103,-3.52129 0.797961,-3.3282 0.02349,0.0827 0.337347,1.58349 0.697465,3.33516 0.360118,1.75167 0.670997,3.19917 0.690842,3.21668 0.01985,0.0175 0.486601,0.0626 1.037237,0.1003 0.748709,0.0512 1.021405,0.0512 1.081462,0 0.04417,-0.0377 0.343659,-1.23188 0.665534,-2.65383 0.540355,-2.38714 0.700511,-3.03407 0.715813,-2.89144 0.0032,0.0301 -0.180193,0.96352 -0.4076,2.07431 -0.227407,1.11079 -0.486782,2.3803 -0.57639,2.82112 -0.08961,0.44083 -0.198923,0.83971 -0.242924,0.88641 -0.044,0.0467 -0.200866,0.11358 -0.34859,0.14862 -0.147725,0.035 -0.28499,0.10135 -0.305034,0.14736 -0.02004,0.046 0.02761,0.30678 0.1059,0.57949 0.07829,0.2727 0.142343,0.55704 0.142343,0.63186 0,0.0748 0.02753,0.19819 0.06118,0.27415 0.03365,0.076 0.09643,0.3275 0.139527,0.55898 0.04309,0.23148 0.105391,0.51557 0.138442,0.63131 0.07325,0.25651 0.255282,1.05313 0.343478,1.50313 0.03565,0.18187 0.12649,0.57419 0.201874,0.87181 0.07538,0.29762 0.137576,0.61553 0.138207,0.70646 0.0013,0.18493 0.02761,0.18149 -0.783806,0.10252 z M 73.344767,451.9214 c -0.140357,-0.73402 -0.410244,-2.11921 -0.59975,-3.0782 -0.36983,-1.87152 -0.459527,-2.46397 -0.350469,-2.31481 0.03627,0.0496 0.299961,1.26713 0.585982,2.70562 0.61817,3.10896 0.583871,2.954 0.646293,2.92001 0.02743,-0.0149 0.139524,-0.50375 0.249087,-1.08626 0.22118,-1.17593 0.297931,-1.32545 0.135764,-0.26449 -0.05762,0.37698 -0.155181,1.06421 -0.216799,1.52717 -0.06162,0.46296 -0.130681,0.8606 -0.153474,0.88365 -0.02279,0.023 -0.156277,-0.55867 -0.296634,-1.29269 z m 2.653625,-1.15421 c 0.02161,-0.0496 0.05136,-0.0902 0.06612,-0.0902 0.01475,0 0.02682,0.0406 0.02682,0.0902 0,0.0496 -0.02975,0.0902 -0.06611,0.0902 -0.03636,0 -0.04843,-0.0406 -0.02683,-0.0902 z"
       id="path20"
       inkscape:connector-curvature="0" />
    <path
       style="display:inline;fill:#3768b1;stroke-width:0.06406192"
       d="m 80.052783,459.16965 c 0.0032,-5.68894 0.128134,-17.56813 0.196184,-18.65375 l 0.05088,-0.81169 0.02135,0.69144 c 0.01174,0.38029 0.04004,1.38137 0.06289,2.22462 l 0.04154,1.53319 3.958891,0.0301 3.95889,0.0301 v 0.36075 0.36075 l -3.95889,0.0313 c -2.17739,0.0172 -3.967413,0.0375 -3.977829,0.0451 -0.01042,0.008 -0.01042,0.39817 0,0.86795 0.01893,0.85388 0.01899,0.85416 0.18958,0.89588 0.09385,0.023 1.884566,0.0444 3.979361,0.0477 l 3.808719,0.006 -0.02047,0.34572 -0.02047,0.34572 -3.904336,0.0301 c -2.659906,0.0205 -3.927801,0.0508 -3.977957,0.095 -0.04752,0.0419 -0.06686,0.36074 -0.05455,0.89924 0.01903,0.83272 0.0194,0.83443 0.189708,0.87608 0.09385,0.0229 1.884566,0.0444 3.979361,0.0477 l 3.808719,0.006 -0.02047,0.34572 -0.02047,0.34572 -3.910223,0.0301 c -3.376199,0.026 -3.919057,0.0424 -3.974909,0.12025 -0.08424,0.11745 -0.08424,1.56605 2e-6,1.6835 0.05604,0.0781 0.590254,0.0925 3.995301,0.10755 l 3.930612,0.0174 -0.02039,0.34339 -0.02039,0.34338 -3.924762,0.0323 c -2.158619,0.0177 -3.932441,0.038 -3.941826,0.0451 -0.0094,0.007 -0.01706,0.40515 -0.01706,0.88464 0,0.4795 0.0077,0.87802 0.01706,0.88561 0.0094,0.008 1.783207,0.0279 3.941826,0.0451 l 3.924762,0.0313 v 0.36075 0.36075 l -3.924762,0.0301 -3.924762,0.0301 -0.01889,0.88685 c -0.01039,0.48776 -0.01039,0.89305 0,0.90064 0.01039,0.008 1.785032,0.0279 3.943651,0.0451 l 3.924762,0.0313 v 0.36075 0.36075 l -3.924762,0.0301 -3.924762,0.0301 -0.03413,2.70562 c -0.01877,1.48809 -0.05898,2.73944 -0.08935,2.78078 -0.03037,0.0413 -0.114839,0.0752 -0.187706,0.0752 -0.129999,0 -0.132437,-0.0855 -0.129924,-4.55446 z m -5.155944,3.72976 c -0.112623,-0.0138 -2.40093,-0.37382 -5.085126,-0.80009 -2.684196,-0.42627 -5.103412,-0.80727 -5.376037,-0.84667 -0.808886,-0.11691 -0.729673,0.23038 -0.755111,-3.31068 -0.01219,-1.69746 -7.48e-4,-6.0441 0.02544,-9.65922 l 0.04761,-6.57294 0.145207,-0.0485 c 0.135337,-0.0452 5.596032,-0.91303 6.237403,-0.99123 0.159707,-0.0195 0.284988,-0.0148 0.278403,0.0104 -0.02584,0.0989 0.09888,0.6204 0.155794,0.65138 0.03321,0.0181 0.06038,0.11607 0.06038,0.21776 0,0.10168 0.02925,0.28271 0.065,0.40229 0.03575,0.11958 0.115679,0.47445 0.177621,0.7886 0.06194,0.31415 0.153848,0.70647 0.204233,0.87181 0.05038,0.16534 0.187484,0.76058 0.304666,1.32275 0.269995,1.29528 0.24664,1.23256 0.458951,1.23256 0.428024,0 0.01959,0.0847 -0.738201,0.15318 -0.454544,0.041 -0.857957,0.10238 -0.896474,0.13631 -0.03852,0.0339 -0.371991,1.51454 -0.741054,3.29025 -0.601965,2.8963 -0.74061,3.49098 -0.748233,3.20936 -0.0093,-0.34325 -1.011321,-6.26302 -1.068683,-6.31355 -0.09404,-0.0828 -1.615711,-0.006 -1.763313,0.0893 -0.09256,0.0596 0.003,0.60833 0.817269,4.69323 0.522976,2.62356 0.959626,4.65822 1.008824,4.70083 0.11982,0.10378 1.925074,0.18583 1.991931,0.0905 0.03938,-0.0561 1.326707,-5.97775 1.341615,-6.17135 0.01785,-0.23184 0.202317,0.56645 0.750228,3.24674 0.412703,2.01888 0.659959,3.0898 0.723803,3.13496 0.05333,0.0377 0.502665,0.0911 0.998518,0.11858 0.892304,0.0495 1.135325,0.0478 1.198924,-0.008 0.01803,-0.0159 0.255775,-1.00961 0.528327,-2.20829 0.272551,-1.19868 0.497434,-2.13884 0.499742,-2.08923 0.01004,0.21593 -0.881682,4.40676 -0.954005,4.48352 -0.0441,0.0468 -0.201051,0.11377 -0.348775,0.14881 -0.147725,0.035 -0.28499,0.10135 -0.305034,0.14736 -0.02004,0.046 0.02761,0.30678 0.1059,0.57949 0.07829,0.2727 0.142343,0.55704 0.142343,0.63186 0,0.0748 0.02753,0.19819 0.06118,0.27415 0.03365,0.076 0.09643,0.3275 0.139527,0.55898 0.04309,0.23148 0.105391,0.51557 0.138442,0.63131 0.07325,0.25651 0.255282,1.05313 0.343478,1.50313 0.03565,0.18187 0.12649,0.57419 0.201874,0.87181 0.07538,0.29762 0.137576,0.61553 0.138207,0.70646 0.0012,0.17516 -0.02579,0.18163 -0.510779,0.12227 z m -1.909491,-13.01944 c -0.682404,-3.46567 -0.684868,-3.47961 -0.592162,-3.35158 0.03592,0.0496 0.299323,1.26713 0.585344,2.70562 0.61817,3.10896 0.583871,2.954 0.646293,2.92001 0.02743,-0.0149 0.138991,-0.50092 0.247903,-1.07996 0.108913,-0.57905 0.210566,-1.04177 0.225897,-1.02827 0.03767,0.0332 -0.413107,2.81395 -0.465321,2.87048 -0.02271,0.0246 -0.314288,-1.34175 -0.647954,-3.0363 z m 2.773478,2.11979 c 0,-0.0827 0.01549,-0.1165 0.03443,-0.0752 0.01893,0.0413 0.01893,0.10898 0,0.15031 -0.01894,0.0413 -0.03443,0.008 -0.03443,-0.0752 z m 0.06826,-0.30063 c 0,-0.0827 0.01549,-0.11649 0.03443,-0.0752 0.01893,0.0413 0.01893,0.10898 0,0.15032 -0.01893,0.0413 -0.03443,0.008 -0.03443,-0.0752 z m 0.06826,-0.30062 c 0,-0.0827 0.01549,-0.1165 0.03443,-0.0752 0.01894,0.0413 0.01894,0.10898 0,0.15031 -0.01893,0.0413 -0.03443,0.008 -0.03443,-0.0752 z m 0.06287,-0.3357 c 0.0033,-0.07 0.01945,-0.0843 0.04124,-0.0363 0.01972,0.0434 0.01729,0.0953 -0.0054,0.11524 -0.02268,0.02 -0.03881,-0.0155 -0.03585,-0.0789 z m 0.06826,-0.30063 c 0.0033,-0.07 0.01945,-0.0843 0.04124,-0.0363 0.01972,0.0434 0.01729,0.0953 -0.0054,0.11524 -0.02268,0.02 -0.03881,-0.0155 -0.03585,-0.0789 z m 4.230843,-11.30614 c -0.0024,-0.0703 -0.05006,-0.16135 -0.10596,-0.20222 -0.119302,-0.0872 -0.07315,-0.19008 0.06441,-0.14358 0.135895,0.0459 0.179097,0.18175 0.107631,0.33837 -0.06061,0.13283 -0.06184,0.13296 -0.06609,0.007 z"
       id="path18"
       inkscape:connector-curvature="0" />
    <path
       style="display:inline;fill:#275191;stroke-width:0.06406192"
       d="m 80.052783,459.16965 c 0.0032,-5.68894 0.128134,-17.56813 0.196184,-18.65375 l 0.05088,-0.81169 0.02135,0.69144 c 0.01174,0.38029 0.04004,1.38137 0.06289,2.22462 l 0.04154,1.53319 3.958891,0.0301 3.95889,0.0301 v 0.36075 0.36075 l -3.95889,0.0313 c -2.17739,0.0172 -3.967413,0.0375 -3.977829,0.0451 -0.01042,0.008 -0.01042,0.39817 0,0.86795 0.01893,0.85388 0.01899,0.85416 0.18958,0.89588 0.09385,0.023 1.884566,0.0444 3.979361,0.0477 l 3.808719,0.006 -0.02047,0.34572 -0.02047,0.34572 -3.904336,0.0301 c -2.659906,0.0205 -3.927801,0.0508 -3.977957,0.095 -0.04752,0.0419 -0.06686,0.36074 -0.05455,0.89924 0.01903,0.83272 0.0194,0.83443 0.189708,0.87608 0.09385,0.0229 1.884566,0.0444 3.979361,0.0477 l 3.808719,0.006 -0.02047,0.34572 -0.02047,0.34572 -3.910223,0.0301 c -3.376199,0.026 -3.919057,0.0424 -3.974909,0.12025 -0.08424,0.11745 -0.08424,1.56605 2e-6,1.6835 0.05604,0.0781 0.590254,0.0925 3.995301,0.10755 l 3.930612,0.0174 -0.02039,0.34339 -0.02039,0.34338 -3.924762,0.0323 c -2.158619,0.0177 -3.932441,0.038 -3.941826,0.0451 -0.0094,0.007 -0.01706,0.40515 -0.01706,0.88464 0,0.4795 0.0077,0.87802 0.01706,0.88561 0.0094,0.008 1.783207,0.0279 3.941826,0.0451 l 3.924762,0.0313 v 0.36075 0.36075 l -3.924762,0.0301 -3.924762,0.0301 -0.01889,0.88685 c -0.01039,0.48776 -0.01039,0.89305 0,0.90064 0.01039,0.008 1.785032,0.0279 3.943651,0.0451 l 3.924762,0.0313 v 0.36075 0.36075 l -3.924762,0.0301 -3.924762,0.0301 -0.03413,2.70562 c -0.01877,1.48809 -0.05898,2.73944 -0.08935,2.78078 -0.03037,0.0413 -0.114839,0.0752 -0.187706,0.0752 -0.129999,0 -0.132437,-0.0855 -0.129924,-4.55446 z m -9.839963,2.95999 c -0.5564,-0.0669 -2.434042,-0.35288 -5.641644,-0.85933 -0.385805,-0.0609 -0.739034,-0.14393 -0.784952,-0.18448 -0.06526,-0.0576 -0.07985,-2.17631 -0.06682,-9.70219 0.0094,-5.45752 0.04274,-9.65144 0.07687,-9.6815 0.07073,-0.0623 1.381727,-0.26365 1.911996,-0.29365 l 0.367207,-0.0208 0.08805,0.33069 c 0.04843,0.18187 0.135072,0.53361 0.192547,0.78162 0.05747,0.24802 0.182935,0.77561 0.278799,1.17244 0.09586,0.39682 0.251253,1.07323 0.345307,1.50312 0.240905,1.10109 0.304633,1.29164 0.434357,1.29872 0.225251,0.0123 -0.386549,0.10306 -0.969107,0.14376 -0.362464,0.0253 -0.614295,0.0705 -0.633078,0.11365 -0.05258,0.1207 1.805617,9.31385 1.899048,9.39526 0.05624,0.049 0.426392,0.0902 1.052522,0.11727 l 0.965779,0.0417 0.07552,-0.32432 c 0.04153,-0.17837 0.195254,-0.8519 0.341605,-1.49674 0.306402,-1.35004 0.352363,-1.38565 0.113694,-0.0881 -0.09103,0.49489 -0.200021,1.11624 -0.242207,1.38079 -0.08884,0.55711 -0.177802,0.78909 -0.321206,0.83756 -0.106088,0.0359 -0.09501,0.23474 0.04375,0.78581 0.03331,0.13228 0.124344,0.52459 0.202302,0.87182 0.07796,0.34722 0.267767,1.17243 0.4218,1.83381 0.154032,0.66137 0.321518,1.38569 0.37219,1.6096 0.05067,0.22391 0.110716,0.43359 0.133431,0.46597 0.02271,0.0324 0.03181,0.0561 0.02021,0.0527 -0.0116,-0.003 -0.316685,-0.0417 -0.677965,-0.0851 z m 3.251568,-5.48515 c -0.419651,-0.0109 -0.780357,-0.0481 -0.819081,-0.0845 -0.08766,-0.0824 1.537316,-0.009 1.633809,0.0739 0.04095,0.0351 0.04095,0.0509 0,0.0428 -0.03566,-0.007 -0.402292,-0.0215 -0.814728,-0.0322 z m -3.032976,-3.47731 c 0.0033,-0.07 0.01945,-0.0843 0.04124,-0.0363 0.01972,0.0434 0.01729,0.0953 -0.0054,0.11523 -0.02268,0.02 -0.03881,-0.0155 -0.03585,-0.0789 z m -2.145685,-3.10681 c -0.257404,-1.62844 -0.484154,-3.04196 -0.503887,-3.14117 -0.02416,-0.12147 -0.01331,-0.16074 0.03325,-0.12025 0.03802,0.0331 0.260761,1.18296 0.494977,2.55531 0.234216,1.37235 0.450409,2.5187 0.480428,2.54744 0.03002,0.0287 0.124479,-0.22077 0.209912,-0.55447 0.08543,-0.33369 0.165333,-0.59791 0.177557,-0.58714 0.01881,0.0166 -0.362519,2.08539 -0.408516,2.21634 -0.0086,0.0246 -0.226316,-1.28763 -0.483719,-2.91606 z m 2.770443,0.13564 c 0,-0.11574 0.01405,-0.16309 0.03122,-0.10522 0.01717,0.0579 0.01717,0.15257 0,0.21044 -0.01717,0.0579 -0.03122,0.0105 -0.03122,-0.10522 z m 9.203149,-10.73997 c -0.0024,-0.0703 -0.05006,-0.16135 -0.10596,-0.20222 -0.119302,-0.0872 -0.07315,-0.19008 0.06441,-0.14358 0.135895,0.0459 0.179097,0.18175 0.107631,0.33837 -0.06061,0.13283 -0.06184,0.13296 -0.06609,0.007 z"
       id="path16"
       inkscape:connector-curvature="0" />
    <path
       style="display:inline;fill:#3c424c;stroke-width:0.06406192"
       d="m 80.118479,463.67135 c 0,-0.0769 0.200701,-0.21136 0.250275,-0.1677 0.04957,0.0437 -0.103092,0.22046 -0.190375,0.22046 -0.03295,0 -0.0599,-0.0237 -0.0599,-0.0528 z m 0.272988,-5.92967 -4e-6,-0.42087 3.90772,0.0158 c 2.149245,0.009 3.946113,0.0281 3.99304,0.0432 0.05429,0.0175 0.08532,0.14907 0.08532,0.36191 0,0.21271 -0.03106,0.34455 -0.08532,0.36217 -0.04693,0.0152 -1.843794,0.0347 -3.993037,0.0432 l -3.907715,0.0155 z m 0,-2.64549 -4e-6,-0.42088 3.90772,0.0157 c 2.149245,0.009 3.946113,0.0281 3.99304,0.0432 0.05429,0.0175 0.08532,0.14908 0.08532,0.36192 0,0.21271 -0.03106,0.34454 -0.08532,0.36216 -0.04693,0.0152 -1.843794,0.0347 -3.993037,0.0432 l -3.907715,0.0155 z m 1.3e-5,-2.63864 2.6e-5,-0.41401 0.316682,0.0382 c 0.174175,0.021 1.971034,0.0382 3.993019,0.0382 h 3.676336 v 0.33257 c 0,0.21158 -0.03104,0.34239 -0.08532,0.35956 -0.04693,0.0148 -1.843797,0.0343 -3.993045,0.0432 l -3.907724,0.0162 z m 0,-2.64519 2.6e-5,-0.41371 0.255963,0.0373 c 0.140779,0.0205 1.937638,0.0376 3.993018,0.0379 l 3.737056,6.6e-4 v 0.33257 c 0,0.21159 -0.03104,0.34239 -0.08532,0.35956 -0.04693,0.0148 -1.843797,0.0343 -3.993045,0.0432 l -3.907724,0.0162 z m 0.02156,-2.29908 c -0.01611,-0.037 -0.01986,-0.21287 -0.0083,-0.39081 0.01887,-0.29148 0.03615,-0.32309 0.174519,-0.31922 0.08447,0.002 1.873647,0.009 3.975955,0.015 l 3.822329,0.0107 v 0.33258 c 0,0.21146 -0.03107,0.34248 -0.08532,0.35978 -0.04693,0.015 -1.832351,0.0344 -3.967609,0.0432 -2.815949,0.0116 -3.890332,-0.002 -3.911574,-0.0513 z m 0.01333,-2.59815 c -0.01917,-0.044 -0.03486,-0.22689 -0.03486,-0.40633 v -0.32625 l 3.975955,0.0155 3.975954,0.0155 v 0.36075 0.36075 l -3.941092,0.0301 c -3.242766,0.0247 -3.94727,0.0159 -3.975955,-0.05 z"
       id="path14"
       inkscape:connector-curvature="0" />
  </g>
</svg>
