<?xml version="1.0" encoding="UTF-8" standalone="no"?>
<!-- Created with Inkscape (http://www.inkscape.org/) -->

<svg
   xmlns:dc="http://purl.org/dc/elements/1.1/"
   xmlns:cc="http://creativecommons.org/ns#"
   xmlns:rdf="http://www.w3.org/1999/02/22-rdf-syntax-ns#"
   xmlns:svg="http://www.w3.org/2000/svg"
   xmlns="http://www.w3.org/2000/svg"
   xmlns:sodipodi="http://sodipodi.sourceforge.net/DTD/sodipodi-0.dtd"
   xmlns:inkscape="http://www.inkscape.org/namespaces/inkscape"
   version="1.1"
   id="svg2"
   width="25"
   height="25"
   viewBox="0 0 25 25"
   sodipodi:docname="phone_blackspace.svg"
   inkscape:version="0.92.4 (5da689c313, 2019-01-14)">
  <metadata
     id="metadata8">
    <rdf:RDF>
      <cc:Work
         rdf:about="">
        <dc:format>image/svg+xml</dc:format>
        <dc:type
           rdf:resource="http://purl.org/dc/dcmitype/StillImage" />
        <dc:title></dc:title>
      </cc:Work>
    </rdf:RDF>
  </metadata>
  <defs
     id="defs6" />
  <sodipodi:namedview
     pagecolor="#ffffff"
     bordercolor="#666666"
     borderopacity="1"
     objecttolerance="10"
     gridtolerance="10"
     guidetolerance="10"
     inkscape:pageopacity="0"
     inkscape:pageshadow="2"
     inkscape:window-width="1920"
     inkscape:window-height="1001"
     id="namedview4"
     showgrid="false"
     inkscape:pagecheckerboard="true"
     fit-margin-top="0"
     fit-margin-left="0"
     fit-margin-right="0"
     fit-margin-bottom="0"
     inkscape:zoom="12.273709"
     inkscape:cx="29.968782"
     inkscape:cy="29.968782"
     inkscape:window-x="1022"
     inkscape:window-y="2151"
     inkscape:window-maximized="1"
     inkscape:current-layer="svg2" />
  <g
     id="g12"
     transform="scale(0.41710069)">
    <path
       style="fill:#fefefe;stroke-width:0.09989594"
       d="M 0,29.968782 V 0 H 29.968782 59.937565 V 29.968782 59.937565 H 29.968782 0 Z"
       id="path28"
       inkscape:connector-curvature="0" />
    <path
       style="fill:#eed0d0;stroke-width:0.09989594"
       d="M 33.702161,51.04895 C 31.846635,50.562475 29.613239,49.00805 26.964086,46.359309 20.445953,39.842188 15.045884,29.45241 14.031874,21.477627 c -0.196229,-1.543267 -0.151463,-3.26651 0.110292,-4.245577 0.338844,-1.267412 1.162264,-2.401203 2.414297,-3.324314 0.921493,-0.679409 1.990836,-1.320847 2.201985,-1.320847 0.125013,0 0.992934,1.417789 3.070041,5.015056 1.592666,2.758281 2.908649,5.084614 2.924408,5.169629 0.01576,0.08501 -0.25772,0.44807 -0.607727,0.80679 -0.802389,0.822361 -1.058794,1.485823 -1.137754,2.944009 -0.170195,3.143042 1.767431,7.667991 4.505967,10.52281 2.121986,2.212088 4.409256,2.998517 6.21564,2.137112 0.2991,-0.142631 0.356926,-0.144362 0.48672,-0.01457 0.320583,0.320583 5.849313,10.034587 5.821538,10.228471 -0.03971,0.277204 -2.265582,1.385062 -3.316528,1.650697 -0.984305,0.248792 -2.074652,0.249534 -3.018592,0.0021 z m 7.26382,-2.018782 c -0.417358,-0.218673 -0.539239,-0.401594 -2.283868,-3.427671 -4.22862,-7.334583 -4.018221,-6.946218 -4.018221,-7.417014 0,-0.5379 0.200729,-0.940985 0.624245,-1.253552 0.606381,-0.447527 3.162268,-1.871544 3.469365,-1.932963 0.432127,-0.08642 1.153997,0.213894 1.437106,0.59788 0.128036,0.173659 1.479973,2.483517 3.004302,5.133018 1.889738,3.284633 2.786476,4.93732 2.818548,5.194589 0.03348,0.268566 -0.01954,0.506877 -0.18396,0.826846 -0.212434,0.4134 -0.368759,0.52848 -1.944943,1.43178 -1.945032,1.114684 -2.245577,1.201795 -2.922574,0.847087 z M 26.222685,22.873767 c -0.377726,-0.07915 -0.655487,-0.227491 -0.866674,-0.46285 -0.09084,-0.101238 -1.449874,-2.409252 -3.020075,-5.128919 -2.664079,-4.614323 -2.854953,-4.977205 -2.855568,-5.428916 -10e-4,-0.740569 0.21463,-1.003966 1.397884,-1.707471 1.956641,-1.1633259 2.544547,-1.4546641 2.935439,-1.4546641 0.428511,0 0.821662,0.1808966 1.119192,0.5149622 0.298985,0.3356988 5.648495,9.6429119 5.826003,10.1362259 0.179126,0.497809 0.049,1.069351 -0.329674,1.448027 -0.306944,0.306944 -3.327912,2.043226 -3.6571,2.101895 -0.137357,0.02448 -0.384599,0.01625 -0.549427,-0.01829 z"
       id="path26"
       inkscape:connector-curvature="0" />
    <path
       style="fill:#e4b1b1;stroke-width:0.09989594"
       d="M 33.614984,50.95962 C 29.74884,49.774873 24.128157,44.072453 20.063671,37.211238 19.048138,35.496929 18.914646,35.252019 18.058287,33.532101 15.448814,28.29121 13.981554,23.22936 13.987166,19.487294 c 0.0032,-2.130495 0.491548,-3.493675 1.683156,-4.698343 0.762799,-0.77116 2.751011,-2.125138 3.056235,-2.081305 0.151929,0.02182 0.918481,1.264794 3.067461,4.973936 1.575704,2.719667 2.868372,5.007768 2.872598,5.084669 0.0042,0.0769 -0.219217,0.357369 -0.496537,0.623261 -1.77039,1.697434 -1.677147,5.202637 0.245437,9.226513 1.505065,3.150028 3.86269,5.764461 5.963399,6.612976 1.100956,0.444696 2.280611,0.472049 3.268585,0.07579 0.367932,-0.147571 0.451374,-0.152705 0.561889,-0.03457 0.328974,0.351646 5.755946,9.928891 5.728913,10.110093 -0.03408,0.228396 -1.683233,1.104364 -2.777012,1.475039 -0.915213,0.31016 -2.70291,0.362724 -3.546306,0.104273 z m 7.3923,-1.990744 c -0.164828,-0.105078 -0.372566,-0.276155 -0.461638,-0.380171 -0.223157,-0.260595 -5.465983,-9.367504 -5.708577,-9.915927 -0.170092,-0.384524 -0.180018,-0.495351 -0.07558,-0.843924 0.172368,-0.57531 0.463474,-0.816157 2.200013,-1.820187 1.385808,-0.801243 1.600833,-0.895244 2.047867,-0.895244 0.925438,0 0.520891,-0.59284 5.521608,8.091572 1.378843,2.394545 1.436307,2.516528 1.395293,2.96189 -0.02353,0.255471 -0.131769,0.58666 -0.240537,0.735976 -0.108769,0.149315 -0.936196,0.699701 -1.838728,1.22308 -1.828671,1.060447 -2.285708,1.196113 -2.839717,0.842935 z M 25.910921,22.737882 c -0.171469,-0.0775 -0.424299,-0.291616 -0.561843,-0.475815 -0.347973,-0.466005 -5.572609,-9.543832 -5.745463,-9.982769 -0.181871,-0.461827 -0.03761,-1.045729 0.349006,-1.412639 0.151969,-0.144223 0.950605,-0.654793 1.774746,-1.1346014 1.213849,-0.7066919 1.593303,-0.8806048 1.997919,-0.9156943 0.91439,-0.079299 0.872092,-0.1354504 4.083991,5.4216657 3.045646,5.26947 3.147162,5.4883 2.829447,6.099215 -0.229426,0.441148 -0.488812,0.63268 -2.143929,1.583095 -1.6136,0.926576 -2.042429,1.062258 -2.583874,0.817543 z"
       id="path24"
       inkscape:connector-curvature="0" />
    <path
       style="fill:#d98f8f;stroke-width:0.09989594"
       d="m 34.414152,51.083414 c -2.044593,-0.314673 -4.604124,-2.000703 -7.50886,-4.94628 -6.377233,-6.466898 -11.674923,-16.644689 -12.731641,-24.459715 -0.188046,-1.390711 -0.161881,-3.49583 0.05339,-4.295525 0.416804,-1.548343 1.345223,-2.686453 3.183913,-3.903024 0.658423,-0.435648 1.228943,-0.792085 1.267824,-0.792085 0.03888,0 0.139307,0.07867 0.223169,0.174817 0.329461,0.377731 5.773693,9.931575 5.714271,10.027723 -0.03482,0.05634 -0.259563,0.283337 -0.499428,0.504436 -0.510578,0.470634 -0.979009,1.351752 -1.147092,2.157675 -0.20116,0.964525 -0.06493,2.872476 0.294965,4.131227 0.560173,1.959208 1.362032,3.697122 2.453573,5.317767 2.408133,3.575431 5.248448,5.229707 7.652144,4.456815 0.603807,-0.19415 0.72679,-0.207049 0.83862,-0.08796 0.299175,0.318601 5.757337,9.914366 5.70982,10.038195 -0.07235,0.188543 -2.066214,1.172518 -2.893899,1.428143 -0.67721,0.209152 -2.028502,0.337404 -2.610771,0.247789 z m 6.792924,-2.083554 c -0.219771,-0.07709 -0.487395,-0.255424 -0.594721,-0.396289 -0.107326,-0.140864 -1.450121,-2.424617 -2.983991,-5.075005 -2.943348,-5.08584 -3.051037,-5.319148 -2.73535,-5.926164 0.230883,-0.44395 0.494997,-0.639591 2.126442,-1.57515 1.357814,-0.778645 1.557248,-0.863881 2.021317,-0.863881 0.422117,0 0.569085,0.04949 0.815828,0.274714 0.270644,0.247043 1.355366,2.07427 4.902744,8.25873 1.633658,2.848102 1.616961,2.932069 -0.865609,4.353133 -1.403921,0.803628 -1.95914,1.079531 -2.18718,1.086871 -0.05494,0.0018 -0.279709,-0.05986 -0.49948,-0.136959 z M 25.767095,22.612113 c -0.140689,-0.08737 -0.349499,-0.299697 -0.464022,-0.471848 -0.228875,-0.344043 -5.304227,-9.132315 -5.562684,-9.632115 -0.230507,-0.445751 -0.204212,-1.027602 0.06398,-1.415832 0.241593,-0.349721 3.267156,-2.1657282 3.778655,-2.2680283 0.37864,-0.075728 0.909112,0.118182 1.212909,0.443368 0.139967,0.1498226 1.525361,2.4751103 3.078653,5.1673063 2.522066,4.371293 2.82349,4.940347 2.817839,5.319756 -0.01132,0.760222 -0.220742,0.966021 -2.072336,2.036507 -1.465653,0.847357 -1.759677,0.981625 -2.147665,0.980748 -0.247243,-5.99e-4 -0.564641,-0.0725 -0.70533,-0.159862 z"
       id="path22"
       inkscape:connector-curvature="0" />
    <path
       style="fill:#ce6f6f;stroke-width:0.09989594"
       d="m 34.563996,51.035617 c -1.544789,-0.174708 -3.04408,-0.954681 -5.244537,-2.728355 -7.80335,-6.289874 -15.240905,-20.341604 -15.231937,-28.777605 0.0025,-2.38417 0.554894,-3.748713 2.045453,-5.053068 0.848379,-0.742397 2.30121,-1.689908 2.591157,-1.689908 0.133325,0 5.85027,9.7999 5.85027,10.028444 0,0.06525 -0.198869,0.284866 -0.441931,0.488041 -1.003703,0.838993 -1.493879,2.584185 -1.268936,4.517854 0.545698,4.690978 4.064919,10.072558 7.5272,11.51057 0.913384,0.379361 2.250625,0.435691 3.088713,0.130109 0.333566,-0.121624 0.64031,-0.183249 0.681651,-0.136942 0.228004,0.255386 5.697382,9.868502 5.697382,10.013862 0,0.198981 -1.625321,1.048354 -2.697191,1.409517 -0.762938,0.257072 -1.825886,0.374723 -2.597294,0.287481 z m 6.39334,-2.205985 c -0.280001,-0.189863 -0.925731,-1.231184 -3.242208,-5.228466 -2.663951,-4.596881 -2.892365,-5.027844 -2.889965,-5.452677 0.0017,-0.306466 0.07258,-0.557357 0.211103,-0.747512 0.119569,-0.164143 0.92611,-0.704959 1.891006,-1.26799 1.567432,-0.91462 1.713452,-0.979086 2.134908,-0.942533 0.851932,0.07389 0.408358,-0.59228 5.569357,8.364177 1.196323,2.076113 1.236121,2.163902 1.192979,2.631548 -0.06012,0.651672 -0.287246,0.85756 -2.120042,1.921791 -1.737344,1.008806 -2.159949,1.119822 -2.747138,0.721662 z M 25.912634,22.638705 c -0.170529,-0.0771 -0.399818,-0.268743 -0.509532,-0.425866 -0.377708,-0.540927 -5.55923,-9.576523 -5.706788,-9.951564 -0.178406,-0.453444 -0.05105,-1.013141 0.306168,-1.345575 0.124545,-0.115903 0.900744,-0.603446 1.724885,-1.0834286 1.694981,-0.9871623 2.217878,-1.1284753 2.806245,-0.7583878 0.471072,0.2963076 6.044818,9.9750074 6.107537,10.6056174 0.07355,0.739464 -0.179466,0.996131 -2.046912,2.076478 -1.716181,0.992836 -2.133932,1.130351 -2.681603,0.882726 z"
       id="path20"
       inkscape:connector-curvature="0" />
    <path
       style="fill:#c45050;stroke-width:0.09989594"
       d="M 34.264308,50.977813 C 31.48203,50.51207 27.044281,46.818932 23.363851,41.906348 18.564148,35.499773 15.195618,28.061812 14.270364,21.827263 c -0.07339,-0.494485 -0.130824,-1.573361 -0.127641,-2.397502 0.0048,-1.246894 0.04228,-1.615827 0.223157,-2.197711 0.469372,-1.509944 1.286242,-2.48955 3.048003,-3.655222 0.656812,-0.434581 1.22748,-0.790147 1.268148,-0.790147 0.127407,0 0.210166,0.13729 3.091094,5.127884 l 2.816013,4.878144 -0.544297,0.570639 c -1.00244,1.050953 -1.31935,2.049142 -1.240812,3.908244 0.200649,4.749625 3.993096,10.707997 7.737813,12.156996 0.866352,0.33523 1.981868,0.369235 2.90152,0.08845 0.377873,-0.115371 0.662005,-0.155116 0.714159,-0.0999 0.147528,0.1562 5.70096,9.821967 5.70096,9.922539 0,0.125197 -1.278837,0.824602 -2.097815,1.147309 -1.218465,0.480119 -2.492163,0.658924 -3.496358,0.490827 z m 6.818097,-2.104978 c -0.178454,-0.09817 -0.386491,-0.267287 -0.462303,-0.375818 -0.07581,-0.108531 -1.386293,-2.355082 -2.91218,-4.992334 -2.427549,-4.195633 -2.780043,-4.858017 -2.819971,-5.299101 -0.03953,-0.436691 -0.01014,-0.546276 0.219825,-0.81957 0.146001,-0.173512 0.993679,-0.732842 1.883731,-1.242956 1.383226,-0.792766 1.680765,-0.926232 2.048517,-0.918895 0.262645,0.0052 0.535041,0.08638 0.699272,0.208291 0.243504,0.180758 5.027471,8.283497 5.833383,9.880166 0.350612,0.694631 0.336279,1.152886 -0.04956,1.584387 -0.342346,0.382865 -3.333774,2.067901 -3.753397,2.114245 -0.227225,0.02509 -0.484139,-0.02664 -0.687321,-0.138415 z M 25.632172,22.351717 c -0.266209,-0.255825 -5.002658,-8.302973 -5.788633,-9.834789 -0.217116,-0.423146 -0.207294,-1.008109 0.02314,-1.378531 0.235461,-0.378493 3.27172,-2.1483513 3.809271,-2.2204518 0.391433,-0.052502 0.830559,0.1197332 1.114347,0.4370721 0.301632,0.3372929 5.781984,9.9205647 5.84047,10.2129947 0.03586,0.179307 -0.01565,0.450787 -0.137306,0.723676 -0.181636,0.407423 -0.30796,0.50204 -1.883103,1.410436 -1.489041,0.858739 -1.744609,0.973746 -2.16438,0.973985 -0.40129,2e-4 -0.528981,-0.05067 -0.813811,-0.324392 z"
       id="path18"
       inkscape:connector-curvature="0" />
    <path
       style="fill:#b92e2e;stroke-width:0.09989594"
       d="M 34.663892,50.978484 C 30.872453,50.608776 24.756698,44.763174 20.260395,37.211238 16.264398,30.499609 14.043118,23.840474 14.213817,19.084311 c 0.07389,-2.05881 0.382039,-2.87914 1.544345,-4.111247 0.669686,-0.7099 2.596318,-2.088575 2.912808,-2.084369 0.104536,0.0014 1.122326,1.673117 2.956501,4.856076 1.538398,2.669676 2.812061,4.918663 2.830362,4.997751 0.0183,0.07909 -0.163026,0.316585 -0.40295,0.527775 -0.886995,0.780765 -1.318525,1.981643 -1.312204,3.651659 0.01777,4.69414 3.849801,10.948386 7.667497,12.514083 0.880278,0.361016 2.188755,0.420167 3.005016,0.135845 l 0.599376,-0.208774 0.173784,0.222711 c 0.09558,0.122491 1.40601,2.357988 2.912062,4.967769 1.957739,3.392494 2.709798,4.779852 2.638369,4.867125 -0.189174,0.231136 -2.129274,1.115698 -2.877181,1.31181 -0.797311,0.209067 -1.625509,0.301755 -2.19771,0.245959 z m 6.335648,-2.217692 c -0.237537,-0.14485 -0.961469,-1.320057 -3.18427,-5.169241 -1.836034,-3.179427 -2.892475,-5.108264 -2.920057,-5.331405 -0.08474,-0.685541 0.174823,-0.944777 2.020311,-2.017782 1.423293,-0.827533 1.750716,-0.979097 2.115139,-0.979097 0.350303,0 0.494753,0.06089 0.7702,0.324662 0.197133,0.188779 1.44516,2.247941 2.981863,4.919875 3.151085,5.478941 2.969615,5.133729 2.969615,5.64915 0,0.58041 -0.328838,0.871889 -2.170035,1.923496 -1.655321,0.945443 -1.9994,1.03608 -2.582766,0.680342 z M 25.878313,22.501406 c -0.300944,-0.152637 -0.707676,-0.804528 -3.225362,-5.16946 -1.584544,-2.747139 -2.907689,-5.100015 -2.940321,-5.228613 -0.09728,-0.383382 0.142029,-0.986703 0.494548,-1.246781 0.176791,-0.130432 0.958907,-0.603621 1.738035,-1.051533 1.144841,-0.6581545 1.495532,-0.8143842 1.828062,-0.8143842 0.819658,0 0.760865,-0.080673 3.88543,5.3313612 3.138973,5.43699 3.137028,5.432627 2.723377,6.110946 -0.241505,0.396027 -3.422602,2.243512 -3.862601,2.243282 -0.163238,-8.6e-5 -0.451763,-0.07875 -0.641168,-0.174818 z"
       id="path16"
       inkscape:connector-curvature="0" />
    <path
       style="fill:#aa0000;stroke-width:0.09989594"
       d="M 34.264308,50.844959 C 33.271663,50.671681 32.468591,50.316043 31.175617,49.477145 24.997344,45.468603 18.064417,35.25582 15.389371,26.222685 14.593789,23.53615 14.253959,21.520854 14.252333,19.479709 c -0.0018,-2.227178 0.413621,-3.315114 1.773612,-4.645162 0.932688,-0.912152 2.490717,-1.940108 2.714998,-1.791301 0.144201,0.09568 5.522399,9.352483 5.605361,9.647795 0.02907,0.103478 -0.117211,0.315147 -0.394307,0.570566 -0.958857,0.883843 -1.317632,2.019183 -1.251402,3.960037 0.100564,2.947033 1.486346,6.287034 3.803989,9.168347 2.192399,2.725609 4.799543,3.969754 6.856177,3.271812 0.62202,-0.211091 0.649577,-0.212366 0.778678,-0.03605 0.216302,0.295403 5.510052,9.491819 5.540988,9.625924 0.03371,0.146125 -1.109794,0.793235 -2.024295,1.145552 -1.259728,0.485316 -2.351177,0.629391 -3.391824,0.447733 z m 7.105539,-2.005441 c -0.185189,-0.03849 -0.418006,-0.153229 -0.517372,-0.254963 -0.09937,-0.101734 -1.465017,-2.412743 -3.03478,-5.135573 -3.034894,-5.264173 -3.055642,-5.310031 -2.678772,-5.920858 0.114779,-0.186032 0.735392,-0.603881 1.817547,-1.223725 1.372662,-0.786244 1.713734,-0.941236 2.071264,-0.941236 0.328339,0 0.497159,0.06397 0.724947,0.274714 0.163314,0.151093 1.562771,2.473413 3.109904,5.16071 3.042645,5.284932 3.064778,5.33533 2.611206,5.945812 -0.199172,0.268076 -3.197032,2.059189 -3.559136,2.126455 -0.114455,0.02126 -0.359618,0.0072 -0.544808,-0.03134 z M 25.897162,22.444098 c -0.311025,-0.172733 -0.197932,0.0108 -3.280587,-5.323962 -2.962315,-5.126506 -3.034322,-5.286121 -2.656041,-5.887559 0.228207,-0.362833 3.213854,-2.1240355 3.73418,-2.2027552 0.755489,-0.1142973 0.771986,-0.091777 3.891664,5.3125712 2.64846,4.588039 2.879148,5.025028 2.880459,5.456407 0.0011,0.347518 -0.05677,0.533201 -0.223341,0.717139 -0.123621,0.136513 -0.940039,0.655981 -1.814264,1.154375 -1.657553,0.944967 -2.022836,1.056595 -2.53207,0.773784 z"
       id="path14"
       inkscape:connector-curvature="0" />
  </g>
</svg>
