<?xml version="1.0" encoding="UTF-8" standalone="no"?>
<!-- Created with Inkscape (http://www.inkscape.org/) -->

<svg
   xmlns:dc="http://purl.org/dc/elements/1.1/"
   xmlns:cc="http://creativecommons.org/ns#"
   xmlns:rdf="http://www.w3.org/1999/02/22-rdf-syntax-ns#"
   xmlns:svg="http://www.w3.org/2000/svg"
   xmlns="http://www.w3.org/2000/svg"
   xmlns:sodipodi="http://sodipodi.sourceforge.net/DTD/sodipodi-0.dtd"
   xmlns:inkscape="http://www.inkscape.org/namespaces/inkscape"
   version="1.1"
   id="svg2"
   width="25.00012"
   height="24.899931"
   viewBox="0 0 25.00012 24.899931"
   sodipodi:docname="phone.svg"
   inkscape:version="0.92.4 (5da689c313, 2019-01-14)">
  <metadata
     id="metadata8">
    <rdf:RDF>
      <cc:Work
         rdf:about="">
        <dc:format>image/svg+xml</dc:format>
        <dc:type
           rdf:resource="http://purl.org/dc/dcmitype/StillImage" />
        <dc:title></dc:title>
      </cc:Work>
    </rdf:RDF>
  </metadata>
  <defs
     id="defs6" />
  <sodipodi:namedview
     pagecolor="#ffffff"
     bordercolor="#666666"
     borderopacity="1"
     objecttolerance="10"
     gridtolerance="10"
     guidetolerance="10"
     inkscape:pageopacity="0"
     inkscape:pageshadow="2"
     inkscape:window-width="1600"
     inkscape:window-height="821"
     id="namedview4"
     showgrid="false"
     inkscape:pagecheckerboard="true"
     fit-margin-top="-0.1"
     fit-margin-left="0"
     fit-margin-right="0"
     fit-margin-bottom="0"
     inkscape:zoom="9.4418433"
     inkscape:cx="30.590963"
     inkscape:cy="12.654917"
     inkscape:window-x="-9"
     inkscape:window-y="-9"
     inkscape:window-maximized="1"
     inkscape:current-layer="g12" />
  <g
     id="g12"
     transform="translate(-131.35799,-657.76005)">
    <path
       style="display:inline;fill:#d4d4d4;stroke-width:0.06235921"
       d="m 133.50663,682.58939 c -0.56583,-0.0854 -0.81933,-0.17882 -1.28761,-0.47474 -0.26819,-0.16947 -0.48642,-0.37076 -0.62617,-0.57755 l -0.21451,-0.31742 -0.0179,-10.79213 c -0.01,-5.93567 0.0116,-10.93879 0.0477,-11.11804 0.17447,-0.86687 0.89008,-1.40124 2.11732,-1.58109 0.37701,-0.0553 2.22216,-0.0673 10.33331,-0.0673 10.31806,0 10.35573,7e-4 10.99104,0.20546 0.42099,0.13569 0.97581,0.53361 1.24063,0.88981 l 0.25414,0.34183 0.0123,10.71888 c 0.007,5.89538 -0.0165,10.91366 -0.0518,11.15173 -0.0793,0.53532 -0.25308,0.78343 -0.79461,1.13456 -0.49142,0.31864 -0.73994,0.40977 -1.33937,0.49112 -0.63522,0.0862 -20.091,0.0813 -20.66444,-0.005 z m 11.16321,-1.34968 c 1.07129,-0.31802 1.3161,-1.21034 0.4789,-1.74556 -0.35315,-0.22577 -0.59188,-0.29213 -1.18016,-0.32805 -0.4591,-0.028 -0.55001,-0.0175 -0.94473,0.11003 -0.75993,0.24542 -1.07071,0.68821 -0.87948,1.25309 0.0758,0.22391 0.16025,0.31854 0.42666,0.47812 0.18268,0.10942 0.43965,0.22857 0.57104,0.26478 0.3728,0.10272 1.12643,0.0867 1.52777,-0.0324 z m 9.1827,-11.08074 v -7.56914 h -9.99378 -9.99379 v 7.56914 7.56914 h 9.99379 9.99378 z"
       id="path22"
       inkscape:connector-curvature="0" />
    <path
       style="display:inline;fill:#a8a8a8;stroke-width:0.06235921"
       d="m 133.57158,682.58757 c -0.22707,-0.034 -0.53476,-0.10809 -0.68376,-0.16456 -0.47285,-0.17921 -1.0563,-0.6013 -1.26003,-0.91156 l -0.19159,-0.29177 v -11.06071 -11.06071 l 0.18176,-0.27566 c 0.25645,-0.38892 0.58628,-0.64787 1.08269,-0.84999 0.79623,-0.3242 0.33966,-0.31145 11.15811,-0.31145 10.46595,0 10.34734,-0.003 10.98267,0.23822 0.44643,0.1692 1.05505,0.61448 1.25509,0.91825 l 0.18479,0.28063 0.0235,10.88979 c 0.0173,8.00142 -5.3e-4,10.9672 -0.0673,11.1816 -0.22051,0.70884 -1.0441,1.26161 -2.11295,1.41813 -0.65853,0.0964 -19.90962,0.0962 -20.55303,-1.8e-4 z m 11.24457,-1.36596 c 0.94991,-0.34138 1.17847,-1.17015 0.4639,-1.68209 -0.49757,-0.35647 -1.19463,-0.49893 -1.90475,-0.38928 -0.56129,0.0867 -1.16718,0.46357 -1.30288,0.81045 -0.30291,0.7743 0.64475,1.46863 1.92572,1.41095 0.30493,-0.0137 0.57822,-0.0639 0.81801,-0.15003 z m 9.07621,-11.06264 v -7.59356 h -10.0336 -10.03361 l -0.0205,7.54473 c -0.0112,4.1496 -0.003,7.57227 0.0175,7.60595 0.0302,0.0487 2.08313,0.0587 10.05405,0.0488 l 10.01608,-0.0124 z"
       id="path20"
       inkscape:connector-curvature="0" />
    <path
       style="display:inline;fill:#969696;stroke-width:0.06235921"
       d="m 133.59733,682.58632 c -0.8594,-0.14477 -1.62659,-0.58671 -1.9618,-1.13011 l -0.17604,-0.28536 0.001,-10.98746 c 0.001,-9.5821 0.0165,-11.01707 0.11968,-11.21894 0.34036,-0.66585 1.12697,-1.1136 2.20481,-1.255 0.65061,-0.0853 20.06615,-0.0515 20.47982,0.0357 0.76622,0.16153 1.50707,0.62506 1.82052,1.13904 l 0.16966,0.2782 2.9e-4,10.96421 c 4.2e-4,12.05928 0.035,11.21197 -0.47808,11.70709 -0.22851,0.22052 -0.7451,0.51065 -1.12506,0.63186 -0.60606,0.19333 -0.62839,0.19372 -10.8336,0.18979 -7.94138,-0.003 -9.90903,-0.0163 -10.22161,-0.069 z m 11.00058,-1.27145 c 0.95291,-0.24373 1.39819,-0.95148 0.96624,-1.53577 -0.30572,-0.41353 -0.81109,-0.62757 -1.58311,-0.6705 -1.07818,-0.06 -1.99477,0.46433 -1.99319,1.14008 0.001,0.45225 0.4287,0.87042 1.07459,1.05081 0.39567,0.11051 1.13461,0.11791 1.53547,0.0154 z m 9.33426,-11.1559 V 662.541 h -10.07341 -10.07342 l -0.003,0.36625 c -0.002,0.20143 -0.003,3.46471 -0.003,7.25172 0,3.78701 0.001,7.05029 0.003,7.25172 l 0.003,0.36625 h 10.07342 10.07341 z"
       id="path18"
       inkscape:connector-curvature="0" />
    <path
       style="display:inline;fill:#525252;stroke-width:0.06235921"
       d="m 133.80775,682.61329 c -0.87818,-0.12928 -1.76931,-0.59997 -2.10712,-1.11298 l -0.1848,-0.28063 v -11.06071 -11.06071 l 0.19211,-0.293 c 0.26278,-0.40078 0.98587,-0.84421 1.63942,-1.00535 l 0.47779,-0.11781 9.86965,-0.013 c 10.889,-0.0143 10.31356,-0.0293 11.13103,0.28973 0.50322,0.19639 0.83117,0.43452 1.12878,0.81966 l 0.24707,0.31973 v 11.06071 11.06071 l -0.19211,0.293 c -0.26278,0.40078 -0.98587,0.84421 -1.63942,1.00535 l -0.47779,0.11781 -9.91416,0.008 c -5.45278,0.004 -10.02949,-0.009 -10.17045,-0.0301 z m 10.85058,-1.28944 c 1.24028,-0.35418 1.51647,-1.31316 0.54905,-1.90642 -0.25107,-0.15397 -0.48764,-0.24502 -0.77039,-0.29651 -0.51102,-0.0931 -0.64683,-0.0928 -1.16839,0.002 -0.85996,0.15661 -1.45523,0.73455 -1.32119,1.28271 0.19524,0.79839 1.53779,1.25305 2.71092,0.91805 z m 9.31366,-11.16488 v -7.64239 h -10.11323 -10.11324 l -0.0205,7.59356 c -0.0112,4.17645 -0.003,7.62111 0.0175,7.65478 0.0302,0.0487 2.09905,0.0587 10.13368,0.0488 l 10.09571,-0.0124 z"
       id="path16"
       inkscape:connector-curvature="0" />
    <path
       style="display:inline;fill:#020202;stroke-width:0.06235921"
       d="m 133.9446,682.62474 c -0.10949,-0.0127 -0.217,-0.0377 -0.23889,-0.0554 -0.0219,-0.0177 -0.23377,-0.0869 -0.47081,-0.15364 -0.80731,-0.22744 -1.39325,-0.69167 -1.58972,-1.25949 -0.12747,-0.36842 -0.12747,-21.62612 0,-21.99454 0.20365,-0.58859 0.73411,-0.9973 1.68427,-1.2977 l 0.57534,-0.1819 h 9.98715 c 7.91894,0 9.99402,0.0126 10.02033,0.061 0.0182,0.0336 0.0851,0.061 0.14864,0.061 0.20835,0 0.86075,0.23053 1.1627,0.41084 0.39456,0.23562 0.66449,0.52763 0.81467,0.88129 0.10988,0.25878 0.12358,1.48347 0.12358,11.0461 0,7.77719 -0.0248,10.8267 -0.0895,11.01383 -0.19232,0.55584 -0.80419,1.03837 -1.60133,1.26283 -0.23066,0.0649 -0.44494,0.14029 -0.47619,0.16743 -0.0572,0.0496 -19.63119,0.087 -20.05021,0.0382 z m 10.75886,-1.25132 c 0.37572,-0.11119 0.75871,-0.34418 0.97094,-0.59065 0.12706,-0.14756 0.17049,-0.2849 0.17068,-0.53975 3e-4,-0.37948 -0.12443,-0.57432 -0.54196,-0.84665 -0.41363,-0.26979 -0.80846,-0.37128 -1.44436,-0.37128 -0.63591,0 -1.03074,0.10149 -1.44437,0.37128 -1.01968,0.66507 -0.60536,1.70912 0.80731,2.03433 0.33069,0.0761 1.13619,0.045 1.48176,-0.0573 z m 9.34816,-11.21445 v -7.69122 h -10.19286 -10.19287 l -0.0204,7.64239 c -0.0113,4.20331 -0.003,7.66994 0.0175,7.70361 0.0302,0.0487 2.11498,0.0587 10.21332,0.0488 l 10.17534,-0.0124 z"
       id="path14"
       inkscape:connector-curvature="0" />
  </g>
</svg>
