<?xml version="1.0" encoding="UTF-8" standalone="no"?>
<!-- Created with Inkscape (http://www.inkscape.org/) -->

<svg
   xmlns:dc="http://purl.org/dc/elements/1.1/"
   xmlns:cc="http://creativecommons.org/ns#"
   xmlns:rdf="http://www.w3.org/1999/02/22-rdf-syntax-ns#"
   xmlns:svg="http://www.w3.org/2000/svg"
   xmlns="http://www.w3.org/2000/svg"
   xmlns:sodipodi="http://sodipodi.sourceforge.net/DTD/sodipodi-0.dtd"
   xmlns:inkscape="http://www.inkscape.org/namespaces/inkscape"
   version="1.1"
   id="svg2"
   width="25"
   height="25"
   viewBox="0 0 25 25"
   sodipodi:docname="nametag.svg"
   style="enable-background:new"
   inkscape:version="0.92.4 (5da689c313, 2019-01-14)">
  <metadata
     id="metadata8">
    <rdf:RDF>
      <cc:Work
         rdf:about="">
        <dc:format>image/svg+xml</dc:format>
        <dc:type
           rdf:resource="http://purl.org/dc/dcmitype/StillImage" />
        <dc:title></dc:title>
      </cc:Work>
    </rdf:RDF>
  </metadata>
  <defs
     id="defs6">
    <filter
       inkscape:collect="always"
       style="color-interpolation-filters:sRGB"
       id="filter43">
      <feBlend
         inkscape:collect="always"
         mode="screen"
         in2="BackgroundImage"
         id="feBlend45" />
    </filter>
  </defs>
  <sodipodi:namedview
     pagecolor="#ffffff"
     bordercolor="#666666"
     borderopacity="1"
     objecttolerance="10"
     gridtolerance="10"
     guidetolerance="10"
     inkscape:pageopacity="0"
     inkscape:pageshadow="2"
     inkscape:window-width="1600"
     inkscape:window-height="821"
     id="namedview4"
     showgrid="false"
     inkscape:pagecheckerboard="true"
     fit-margin-top="0"
     fit-margin-left="0"
     fit-margin-right="0"
     fit-margin-bottom="0"
     inkscape:zoom="18.844321"
     inkscape:cx="15.746309"
     inkscape:cy="15.116457"
     inkscape:window-x="-9"
     inkscape:window-y="-9"
     inkscape:window-maximized="1"
     inkscape:current-layer="g12" />
  <g
     id="g12"
     transform="translate(0,-5.232914)">
    <path
       style="display:inline;fill:#fdfdfd;stroke-width:0.04252587"
       d="m 0,17.732914 v -12.5 H 12.5 25 v 12.5 12.5 H 12.5 0 Z"
       id="path28"
       inkscape:connector-curvature="0" />
    <path
       style="display:inline;fill:#fed0d0;stroke-width:0.04252587"
       d="M 19.354167,26.670651 C 19.170833,26.650011 18.673958,26.603704 18.25,26.567756 17.826042,26.531802 17.263542,26.48145 17,26.455857 c -0.619906,-0.0602 -1.700618,-0.157049 -2.645833,-0.237107 -0.4125,-0.03494 -0.956251,-0.08378 -1.208334,-0.108535 -0.252083,-0.02476 -0.786458,-0.07355 -1.1875,-0.108434 C 10.063356,25.836959 9.6979534,25.804294 9.2708334,25.761531 9.0187498,25.736294 8.4843753,25.68763 8.083333,25.653389 7.0777638,25.567535 5.9464684,25.468041 5.375,25.415199 5.1114583,25.390829 4.5770834,25.342832 4.1875,25.308537 2.7005635,25.177641 2.4373353,25.125951 2.0595696,24.890673 1.6304554,24.623414 1.3721445,24.169943 1.282885,23.527185 1.240205,23.219847 1.257064,22.627094 1.331029,21.834476 1.420038,20.88065 1.5044794,19.897106 1.5415666,19.38222 c 0.021493,-0.298394 0.049745,-0.635631 0.062782,-0.749414 0.013037,-0.113784 0.041657,-0.455581 0.063601,-0.759549 0.021944,-0.303968 0.067555,-0.884701 0.1013575,-1.290517 0.033803,-0.405816 0.080513,-0.972221 0.1037999,-1.25868 0.061798,-0.760171 0.123912,-1.462325 0.1708597,-1.931424 0.022696,-0.226779 0.059617,-0.695529 0.082046,-1.041666 0.1381314,-2.131744 0.23629,-2.5829323 0.6645503,-3.0546219 0.4295581,-0.473119 0.9281225,-0.5878437 2.2061737,-0.5076626 0.4257529,0.02671 0.9522216,0.067533 1.16993,0.090717 0.2177083,0.023184 0.6395833,0.063318 0.9375,0.089188 0.669867,0.058167 1.2050819,0.1058698 2.1458333,0.1912516 0.4010416,0.036398 0.972917,0.085279 1.270833,0.108624 0.297917,0.023345 0.616667,0.052756 0.708334,0.065358 0.09167,0.012602 0.401041,0.043081 0.6875,0.067732 0.801781,0.068996 2.866777,0.2526518 3.895833,0.3464863 1.2249,0.1116928 1.969045,0.1777957 2.666666,0.2368824 0.4125,0.034938 0.956251,0.083733 1.208334,0.1084322 0.252083,0.0247 0.702083,0.06471 1,0.0889 0.833568,0.0677 1.567583,0.165544 1.814203,0.241834 0.65096,0.20137 1.024992,0.712551 1.168751,1.597311 0.02762,0.169948 0.03699,0.423705 0.02164,0.585937 -0.03898,0.411991 -0.144329,1.682384 -0.212703,2.564809 -0.07581,0.978384 -0.129093,1.62451 -0.209378,2.539062 -0.03563,0.405816 -0.08235,0.981987 -0.103832,1.280382 -0.02148,0.298394 -0.05768,0.728081 -0.08044,0.954861 -0.06258,0.623566 -0.123986,1.34518 -0.169907,1.996528 -0.02272,0.322265 -0.06844,0.917969 -0.101591,1.323784 -0.161477,1.976499 -0.19239,2.174879 -0.40307,2.586625 -0.161839,0.316292 -0.381373,0.524626 -0.744511,0.706529 l -0.270833,0.135666 -0.854167,0.0063 c -0.469792,0.0035 -1.004166,-0.01059 -1.187499,-0.03123 z m 1.934541,-0.217636 c 0.247245,-0.07853 0.674746,-0.315563 0.751354,-0.416595 0.09977,-0.13158 0.278037,-0.521281 0.333804,-0.729722 0.02555,-0.09549 0.0652,-0.407985 0.08814,-0.694444 0.02293,-0.286458 0.06039,-0.716146 0.08327,-0.954861 0.02287,-0.238715 0.05166,-0.570746 0.06398,-0.737847 0.07446,-1.009801 0.103105,-1.384336 0.160987,-2.105034 0.03547,-0.441624 0.08397,-0.988499 0.107783,-1.215279 0.02382,-0.226779 0.05167,-0.55881 0.06191,-0.737847 0.01024,-0.179037 0.03764,-0.530599 0.0609,-0.781249 0.02325,-0.250652 0.0711,-0.817058 0.106339,-1.258682 0.03524,-0.441623 0.08088,-0.998263 0.101437,-1.236978 0.02055,-0.238715 0.06604,-0.795356 0.101075,-1.236979 0.03504,-0.441624 0.08389,-1.037327 0.108575,-1.323785 0.02468,-0.286459 0.03435,-0.681428 0.02149,-0.877709 -0.05183,-0.790835 -0.428618,-1.350372 -1.00313,-1.489652 -0.114101,-0.02766 -0.27308,-0.06824 -0.353289,-0.09018 -0.08021,-0.02194 -0.398958,-0.05944 -0.708333,-0.08332 -0.74575,-0.05758 -1.96612,-0.163732 -2.458333,-0.213835 -0.392271,-0.03993 -1.243396,-0.114365 -2.770834,-0.242324 -0.435416,-0.036476 -0.960416,-0.086147 -1.166666,-0.1103779 -0.206251,-0.024231 -0.515626,-0.053375 -0.6875,-0.064764 -0.171875,-0.011389 -0.509376,-0.039664 -0.75,-0.062833 C 13.301042,9.7655412 12.747916,9.7167352 12.3125,9.6802534 11.877083,9.6437717 11.342709,9.5939036 11.125,9.5694349 10.907291,9.5449663 10.588541,9.5159724 10.416667,9.5050038 10.244792,9.4940353 9.8979169,9.465937 9.6458332,9.4425632 9.3937503,9.4191893 8.8406247,9.3700763 8.4166666,9.3334231 7.9927085,9.2967698 7.4677083,9.2467431 7.25,9.2222526 7.0322917,9.1977621 6.7135417,9.1690262 6.5416666,9.1583951 5.7527796,9.1095994 5.3082775,9.0681753 5.2633766,9.0392687 5.1769242,8.983612 3.8118456,8.9962983 3.6386983,9.0543677 3.2812295,9.1742539 3.2200324,9.2095421 3.0060948,9.4191473 2.6403501,9.7774856 2.5888448,9.9388914 2.4375625,11.200796 c -0.014309,0.119358 -0.043322,0.509983 -0.064472,0.868055 -0.037934,0.642212 -0.1301606,1.800966 -0.2107224,2.64757 -0.022716,0.238715 -0.050176,0.570746 -0.061023,0.737847 -0.017898,0.275719 -0.066396,0.816302 -0.1246032,1.388889 -0.012134,0.119357 -0.039854,0.500217 -0.061601,0.846354 -0.021747,0.346138 -0.060188,0.824653 -0.085425,1.063368 -0.025237,0.238715 -0.053546,0.580513 -0.062909,0.759549 -0.00936,0.179036 -0.03545,0.520833 -0.057969,0.759548 -0.1960763,2.078487 -0.2435628,3.081743 -0.1633213,3.450521 0.074424,0.34204 0.2135579,0.610269 0.4147871,0.799643 0.189106,0.177964 0.5660053,0.372232 0.7221671,0.372232 0.053219,0 0.1511214,0.01885 0.217562,0.0419 0.066441,0.02305 0.4114259,0.06302 0.7666343,0.08883 0.7422366,0.05393 1.9550904,0.158435 2.5624999,0.220786 0.2291667,0.02353 0.5479167,0.05309 0.7083334,0.0657 0.1604166,0.01261 0.4885416,0.04049 0.7291667,0.06194 0.240625,0.02146 0.7937498,0.0698 1.2291669,0.107414 0.4354163,0.03762 0.9791667,0.08778 1.208334,0.111477 0.229166,0.0237 0.538541,0.05291 0.6875,0.06494 0.148958,0.01202 0.477083,0.0402 0.729167,0.06265 0.252083,0.02244 0.805207,0.07085 1.229166,0.107584 0.423958,0.03673 0.948958,0.08492 1.166666,0.107078 0.217708,0.02216 0.752084,0.07084 1.1875,0.108188 1.570243,0.134666 2.298636,0.199452 2.6875,0.239035 0.217708,0.02216 0.745854,0.06572 1.173657,0.09679 0.427803,0.03107 0.791865,0.07115 0.809027,0.08905 0.0487,0.05081 1.347811,0.03819 1.514357,-0.01471 z m -1.080374,-0.604831 c -0.171876,-0.01777 -0.565626,-0.05502 -0.875001,-0.08278 -0.309375,-0.02776 -0.871875,-0.07857 -1.25,-0.112911 -0.378125,-0.03434 -1.015625,-0.09133 -1.416667,-0.126639 -1.2869,-0.113298 -2.21145,-0.196094 -2.937499,-0.263062 -0.389583,-0.03593 -2.461459,-0.2212 -4.6041669,-0.411706 C 2.54924,24.266443 2.960815,24.308795 2.7228794,24.192292 2.622278,24.143033 2.4649863,24.013998 2.3733422,23.905547 2.1208517,23.606751 2.0053912,23.08485 2.1767237,23.016798 c 0.028843,-0.01145 0.3336929,0.0053 0.6774429,0.03724 0.564518,0.05245 1.8456671,0.167127 3.8454038,0.344198 0.3962221,0.03509 0.9305971,0.08272 1.1875,0.105849 0.256903,0.02313 0.7952212,0.07154 1.1962627,0.107582 1.7367799,0.156069 2.2571389,0.202907 2.7083339,0.243779 0.263541,0.02387 1.126042,0.101239 1.916667,0.171923 0.790624,0.07069 1.971874,0.176639 2.625,0.235452 0.653124,0.05881 2.106249,0.187462 3.229166,0.285886 1.122917,0.09842 2.083854,0.196512 2.135417,0.217973 0.200382,0.08341 0.06105,0.518314 -0.260524,0.813164 -0.315795,0.289556 -0.543345,0.339236 -1.229059,0.268336 z M 21.708333,16.68836 C 21.513542,16.669559 17.529167,16.311381 12.854167,15.892408 3.2014018,15.027332 2.9337574,15.002646 2.851698,14.969845 2.7793845,14.940939 2.7741923,14.706768 2.8324034,14.099634 2.8548086,13.86595 2.9025753,13.313426 2.9385516,12.871803 3.0817441,11.114059 3.1316859,10.586558 3.1690614,10.437086 3.2215249,10.227274 3.4228271,9.9459527 3.6142628,9.8149148 3.9153127,9.6088454 4.0757413,9.5925017 4.9866642,9.6751028 c 0.8524442,0.077297 3.2931521,0.296046 5.4091698,0.4847952 9.5347,0.8505 11.488234,1.032124 11.667785,1.084777 0.443088,0.129935 0.769715,0.590294 0.769715,1.084862 0,0.475372 -0.334572,4.289265 -0.381433,4.348083 -0.04937,0.06196 -0.19162,0.06402 -0.743568,0.01074 z m -6.512944,-1.895985 c -0.01048,-0.04177 -0.01905,-0.0076 -0.01905,0.07595 0,0.08355 0.0086,0.117731 0.01905,0.07595 0.01048,-0.04177 0.01048,-0.110134 0,-0.151909 z m -1.531548,-0.201031 c -0.03852,-0.03726 -0.04415,-0.02334 -0.02424,0.05998 0.01426,0.05968 0.02934,0.157335 0.03351,0.217014 0.0043,0.06141 0.01481,0.03537 0.02424,-0.05998 0.0096,-0.09736 -0.0045,-0.188965 -0.03351,-0.217013 z m 0.419492,0.185058 c 0,-0.07575 -0.01742,-0.11899 -0.04167,-0.103384 -0.02292,0.01475 -0.04167,0.08542 -0.04167,0.157032 0,0.07575 0.01743,0.118991 0.04167,0.103384 0.02292,-0.01475 0.04167,-0.08542 0.04167,-0.157032 z m -0.752951,-0.0255 c 0.0319,-0.12034 0.02977,-0.169351 -0.0085,-0.194648 -0.08632,-0.05712 -0.09386,-0.04173 -0.07845,0.160173 0.0082,0.107422 0.02152,0.195313 0.02959,0.195313 0.0081,0 0.03387,-0.07238 0.05731,-0.160838 z m -2.795404,0.0069 c 0.06163,-0.140902 0.06262,-0.135857 -0.03168,-0.161546 -0.06818,-0.01857 -0.07899,-4.3e-5 -0.07291,0.124952 0.0085,0.175335 0.03922,0.186078 0.104601,0.03659 z m 2.045427,-0.139016 c 0.0016,-0.05371 -0.01582,-0.09766 -0.03874,-0.09766 -0.02292,0 -0.04035,0.08301 -0.03874,0.184462 0.0023,0.142862 0.011,0.164886 0.03874,0.09766 0.0197,-0.04775 0.03713,-0.130751 0.03874,-0.184462 z m 0.396884,-0.09238 c -0.03316,-0.03454 -0.0525,0.0118 -0.0793,0.190035 l -0.02611,0.173611 0.06218,-0.17195 c 0.0342,-0.09457 0.05366,-0.180835 0.04322,-0.191696 z m -1.198826,0.160196 c -0.0133,-0.03462 -0.02317,-0.02434 -0.02517,0.02622 -0.0018,0.04575 0.008,0.07139 0.02189,0.05697 0.01384,-0.01442 0.01533,-0.05186 0.0033,-0.08319 z m -0.344603,-0.13296 c 0.01789,-0.103041 0.01227,-0.16276 -0.0153,-0.16276 -0.02396,0 -0.04356,0.08138 -0.04356,0.180845 0,0.213223 0.01977,0.207149 0.05886,-0.01808 z M 9.9552359,14.244304 c -0.038977,-0.03737 -0.044542,-0.03019 -0.023871,0.03077 0.014829,0.04373 0.029967,0.131618 0.033635,0.195313 0.0054,0.09414 0.00988,0.08838 0.023871,-0.03077 0.00966,-0.0823 -0.00508,-0.167951 -0.033635,-0.195313 z m 1.8617221,0.251535 c -0.01391,-0.03776 -0.02529,-0.07682 -0.02529,-0.08681 0,-0.01 -0.017,-0.01815 -0.03776,-0.01815 -0.02077,0 -0.02796,0.03906 -0.01597,0.08681 0.01199,0.04775 0.04036,0.08681 0.06306,0.08681 0.0227,0 0.02989,-0.03089 0.01597,-0.06865 z M 9.19513,14.426147 c -0.013305,-0.03462 -0.023172,-0.02434 -0.025173,0.02622 -0.00183,0.04575 0.00804,0.07139 0.021886,0.05697 0.013845,-0.01442 0.015329,-0.05186 0.00325,-0.08319 z m 0.4242565,-0.184281 c -0.057561,-0.06727 -0.08369,7.98e-4 -0.051075,0.133044 l 0.030698,0.124479 0.027522,-0.108507 c 0.015138,-0.05968 0.011923,-0.126736 -0.00714,-0.149016 z m -0.3283579,-0.03545 c 3.509e-4,-0.0179 -0.018115,-0.03256 -0.041025,-0.03256 -0.022918,0 -0.041383,0.04394 -0.041025,0.09766 5.168e-4,0.07897 0.00837,0.0852 0.041025,0.03256 0.022211,-0.0358 0.040676,-0.07976 0.041025,-0.09766 z m 7.8997464,-0.418677 c 0.212504,-0.100537 0.333353,-0.258125 0.413479,-0.53918 0.237802,-0.834131 -0.202875,-1.388013 -1.05334,-1.323933 -0.507926,0.03827 -0.776922,0.380732 -0.77806,0.990557 -0.0012,0.644712 0.311802,0.949665 0.977146,0.952004 0.176403,6.2e-4 0.330086,-0.02708 0.440775,-0.07945 z m -0.758248,-0.304373 c -0.225428,-0.143188 -0.296045,-0.594746 -0.146549,-0.937084 0.09667,-0.221367 0.171868,-0.284489 0.372273,-0.312489 0.427003,-0.05966 0.662886,0.387654 0.501081,0.950215 -0.09903,0.344295 -0.436941,0.483476 -0.726805,0.299358 z M 15.375,13.547205 c 0,-0.165413 0.02731,-0.155445 -0.59939,-0.218745 -0.134873,-0.01362 -0.261436,-0.03521 -0.28125,-0.04796 -0.04908,-0.03159 -0.04555,-0.285223 0.01304,-0.939683 0.02722,-0.303979 0.04137,-0.560265 0.03146,-0.569526 -0.0099,-0.0093 -0.10647,-0.0302 -0.214564,-0.04654 -0.182178,-0.02754 -0.19806,-0.02239 -0.217439,0.07039 -0.04786,0.229146 -0.148476,1.745117 -0.11794,1.776925 0.03821,0.0398 0.690937,0.109806 1.10483,0.118489 l 0.28125,0.0059 z m -1.858854,-0.119304 c 0.01461,-0.07609 0.01226,-0.153174 -0.0052,-0.171296 -0.01747,-0.01812 -0.207022,-0.05123 -0.421219,-0.07357 -0.233991,-0.0244 -0.413065,-0.06522 -0.448612,-0.102247 -0.05104,-0.05317 -0.05116,-0.156607 -7.94e-4,-0.753798 0.03209,-0.380693 0.04647,-0.704351 0.03194,-0.719238 -0.04242,-0.04348 -0.378613,-0.07646 -0.400657,-0.03931 -0.03155,0.05316 -0.166683,1.817723 -0.141241,1.844225 0.01766,0.0184 0.726433,0.0995 1.291527,0.147788 0.04469,0.0038 0.07674,-0.04124 0.09427,-0.132561 z m -1.916438,-0.103919 c 0.04213,-0.114368 0.02844,-0.235098 -0.02679,-0.236285 -0.266145,-0.0057 -0.887527,-0.09489 -0.932563,-0.133826 -0.0683,-0.05905 -0.07504,-0.313117 -0.01158,-0.436631 0.04304,-0.08377 0.06943,-0.08681 0.499999,-0.05751 l 0.454562,0.03093 v -0.112423 c 0,-0.128685 -0.03337,-0.140755 -0.479166,-0.173308 -0.414531,-0.03027 -0.4375,-0.04457 -0.4375,-0.272333 0,-0.240731 0.05886,-0.269025 0.470252,-0.226042 0.553203,0.0578 0.571414,0.05482 0.571414,-0.09344 0,-0.07521 -0.022,-0.130223 -0.05208,-0.130244 -0.06987,-4.4e-5 -0.914526,-0.0787 -1.183125,-0.110165 l -0.214374,-0.02511 -0.0271,0.25212 c -0.07221,0.671862 -0.135689,1.600991 -0.111284,1.628973 0.0213,0.02442 0.719901,0.104274 1.385591,0.158381 0.03765,0.0031 0.07984,-0.02533 0.09375,-0.06309 z M 9.5170681,13.077966 c 0.010264,-0.05371 0.039097,-0.361328 0.064087,-0.683594 0.02499,-0.322265 0.056013,-0.69578 0.068953,-0.830031 l 0.023521,-0.244094 -0.190859,-0.02981 c -0.2399411,-0.03748 -0.274381,-0.01439 -0.2746699,0.184192 -1.247e-4,0.08811 -0.020402,0.235859 -0.04505,0.328332 l -0.04482,0.168133 -0.3276339,-0.01976 c -0.44246,-0.02668 -0.4702864,-0.05546 -0.4348154,-0.449761 l 0.028157,-0.312997 -0.2023863,-0.01928 c -0.1113118,-0.0106 -0.2143288,-0.0079 -0.2289259,0.0061 -0.032144,0.03075 -0.1804849,1.820733 -0.1532407,1.849112 0.010564,0.011 0.1115871,0.02509 0.2244947,0.0313 l 0.2052862,0.01129 0.026244,-0.336492 c 0.035754,-0.458402 0.06007,-0.482374 0.4510096,-0.444692 0.1729271,0.01667 0.3388659,0.05115 0.3687515,0.07664 0.040835,0.03482 0.047352,0.12974 0.026228,0.381976 -0.015456,0.184604 -0.015369,0.357116 2.08e-4,0.383361 0.015567,0.02624 0.1112228,0.04772 0.2125585,0.04772 0.1577655,0 0.1869287,-0.01404 0.2029031,-0.09766 z"
       id="path26"
       inkscape:connector-curvature="0" />
    <path
       style="display:inline;fill:#dddddd;stroke-width:0.04252587"
       d="M 19.354167,26.670651 C 19.170833,26.650011 18.673958,26.603704 18.25,26.567756 17.826042,26.531802 17.263542,26.48145 17,26.455857 c -0.619906,-0.0602 -1.700618,-0.157049 -2.645833,-0.237107 -0.4125,-0.03494 -0.956251,-0.08378 -1.208334,-0.108535 -0.252083,-0.02476 -0.786458,-0.07355 -1.1875,-0.108434 C 10.063356,25.836959 9.6979534,25.804294 9.2708334,25.761531 9.0187498,25.736294 8.4843753,25.68763 8.083333,25.653389 7.0777638,25.567535 5.9464684,25.468041 5.375,25.415199 5.1114583,25.390829 4.5770834,25.342832 4.1875,25.308537 2.7005635,25.177641 2.4373353,25.125951 2.0595696,24.890673 1.6304554,24.623414 1.3721445,24.169943 1.282885,23.527185 1.240205,23.219847 1.257064,22.627094 1.331029,21.834476 1.420038,20.88065 1.5044794,19.897106 1.5415666,19.38222 c 0.021493,-0.298394 0.049745,-0.635631 0.062782,-0.749414 0.013037,-0.113784 0.041657,-0.455581 0.063601,-0.759549 0.021944,-0.303968 0.067555,-0.884701 0.1013575,-1.290517 0.033803,-0.405816 0.080513,-0.972221 0.1037999,-1.25868 0.061798,-0.760171 0.123912,-1.462325 0.1708597,-1.931424 0.022696,-0.226779 0.059617,-0.695529 0.082046,-1.041666 0.1381314,-2.131744 0.23629,-2.5829323 0.6645503,-3.0546219 0.4295581,-0.473119 0.9281225,-0.5878437 2.2061737,-0.5076626 0.4257529,0.02671 0.9522216,0.067533 1.16993,0.090717 0.2177083,0.023184 0.6395833,0.063318 0.9375,0.089188 0.669867,0.058167 1.2050819,0.1058698 2.1458333,0.1912516 0.4010416,0.036398 0.972917,0.085279 1.270833,0.108624 0.297917,0.023345 0.616667,0.052756 0.708334,0.065358 0.09167,0.012602 0.401041,0.043081 0.6875,0.067732 0.801781,0.068996 2.866777,0.2526518 3.895833,0.3464863 1.2249,0.1116928 1.969045,0.1777957 2.666666,0.2368824 0.4125,0.034938 0.956251,0.083733 1.208334,0.1084322 0.252083,0.0247 0.702083,0.06471 1,0.0889 0.833568,0.0677 1.567583,0.165544 1.814203,0.241834 0.65096,0.20137 1.024992,0.712551 1.168751,1.597311 0.02762,0.169948 0.03699,0.423705 0.02164,0.585937 -0.03898,0.411991 -0.144329,1.682384 -0.212703,2.564809 -0.07581,0.978384 -0.129093,1.62451 -0.209378,2.539062 -0.03563,0.405816 -0.08235,0.981987 -0.103832,1.280382 -0.02148,0.298394 -0.05768,0.728081 -0.08044,0.954861 -0.06258,0.623566 -0.123986,1.34518 -0.169907,1.996528 -0.02272,0.322265 -0.06844,0.917969 -0.101591,1.323784 -0.161477,1.976499 -0.19239,2.174879 -0.40307,2.586625 -0.161839,0.316292 -0.381373,0.524626 -0.744511,0.706529 l -0.270833,0.135666 -0.854167,0.0063 c -0.469792,0.0035 -1.004166,-0.01059 -1.187499,-0.03123 z m 1.934541,-0.217636 c 0.247245,-0.07853 0.674746,-0.315563 0.751354,-0.416595 0.09977,-0.13158 0.278037,-0.521281 0.333804,-0.729722 0.02555,-0.09549 0.0652,-0.407985 0.08814,-0.694444 0.02293,-0.286458 0.06039,-0.716146 0.08327,-0.954861 0.02287,-0.238715 0.05166,-0.570746 0.06398,-0.737847 0.07446,-1.009801 0.103105,-1.384336 0.160987,-2.105034 0.03547,-0.441624 0.08397,-0.988499 0.107783,-1.215279 0.02382,-0.226779 0.05167,-0.55881 0.06191,-0.737847 0.01024,-0.179037 0.03764,-0.530599 0.0609,-0.781249 0.02325,-0.250652 0.0711,-0.817058 0.106339,-1.258682 0.03524,-0.441623 0.08088,-0.998263 0.101437,-1.236978 0.02055,-0.238715 0.06604,-0.795356 0.101075,-1.236979 0.03504,-0.441624 0.08389,-1.037327 0.108575,-1.323785 0.02468,-0.286459 0.03435,-0.681428 0.02149,-0.877709 -0.05183,-0.790835 -0.428618,-1.350372 -1.00313,-1.489652 -0.114101,-0.02766 -0.27308,-0.06824 -0.353289,-0.09018 -0.08021,-0.02194 -0.398958,-0.05944 -0.708333,-0.08332 -0.74575,-0.05758 -1.96612,-0.163732 -2.458333,-0.213835 -0.392271,-0.03993 -1.243396,-0.114365 -2.770834,-0.242324 -0.435416,-0.036476 -0.960416,-0.086147 -1.166666,-0.1103779 -0.206251,-0.024231 -0.515626,-0.053375 -0.6875,-0.064764 -0.171875,-0.011389 -0.509376,-0.039664 -0.75,-0.062833 C 13.301042,9.7655412 12.747916,9.7167352 12.3125,9.6802534 11.877083,9.6437717 11.342709,9.5939036 11.125,9.5694349 10.907291,9.5449663 10.588541,9.5159724 10.416667,9.5050038 10.244792,9.4940353 9.8979169,9.465937 9.6458332,9.4425632 9.3937503,9.4191893 8.8406247,9.3700763 8.4166666,9.3334231 7.9927085,9.2967698 7.4677083,9.2467431 7.25,9.2222526 7.0322917,9.1977621 6.7135417,9.1690262 6.5416666,9.1583951 5.7527796,9.1095994 5.3082775,9.0681753 5.2633766,9.0392687 5.1769242,8.983612 3.8118456,8.9962983 3.6386983,9.0543677 3.2812295,9.1742539 3.2200324,9.2095421 3.0060948,9.4191473 2.6403501,9.7774856 2.5888448,9.9388914 2.4375625,11.200796 c -0.014309,0.119358 -0.043322,0.509983 -0.064472,0.868055 -0.037934,0.642212 -0.1301606,1.800966 -0.2107224,2.64757 -0.022716,0.238715 -0.050176,0.570746 -0.061023,0.737847 -0.017898,0.275719 -0.066396,0.816302 -0.1246032,1.388889 -0.012134,0.119357 -0.039854,0.500217 -0.061601,0.846354 -0.021747,0.346138 -0.060188,0.824653 -0.085425,1.063368 -0.025237,0.238715 -0.053546,0.580513 -0.062909,0.759549 -0.00936,0.179036 -0.03545,0.520833 -0.057969,0.759548 -0.1960763,2.078487 -0.2435628,3.081743 -0.1633213,3.450521 0.074424,0.34204 0.2135579,0.610269 0.4147871,0.799643 0.189106,0.177964 0.5660053,0.372232 0.7221671,0.372232 0.053219,0 0.1511214,0.01885 0.217562,0.0419 0.066441,0.02305 0.4114259,0.06302 0.7666343,0.08883 0.7422366,0.05393 1.9550904,0.158435 2.5624999,0.220786 0.2291667,0.02353 0.5479167,0.05309 0.7083334,0.0657 0.1604166,0.01261 0.4885416,0.04049 0.7291667,0.06194 0.240625,0.02146 0.7937498,0.0698 1.2291669,0.107414 0.4354163,0.03762 0.9791667,0.08778 1.208334,0.111477 0.229166,0.0237 0.538541,0.05291 0.6875,0.06494 0.148958,0.01202 0.477083,0.0402 0.729167,0.06265 0.252083,0.02244 0.805207,0.07085 1.229166,0.107584 0.423958,0.03673 0.948958,0.08492 1.166666,0.107078 0.217708,0.02216 0.752084,0.07084 1.1875,0.108188 1.570243,0.134666 2.298636,0.199452 2.6875,0.239035 0.217708,0.02216 0.745854,0.06572 1.173657,0.09679 0.427803,0.03107 0.791865,0.07115 0.809027,0.08905 0.0487,0.05081 1.347811,0.03819 1.514357,-0.01471 z M 11.958333,25.066943 C 7.2489583,24.642037 3.2803036,24.28153 3.1391004,24.265816 2.6428257,24.210584 2.2237985,23.812572 2.1440098,23.32063 c -0.033708,-0.207829 0.044386,-0.300908 0.2257082,-0.269018 0.060197,0.01058 0.5781987,0.05928 1.1511153,0.108214 0.5729167,0.04893 1.3510417,0.116873 1.7291667,0.150981 0.6505583,0.05869 1.2239733,0.110183 2.9166668,0.261958 0.4010416,0.03596 1.0385417,0.09331 1.4166668,0.127438 0.3781244,0.03414 3.2187494,0.288143 6.3124994,0.564471 3.093751,0.276328 5.66799,0.512104 5.720534,0.523946 0.35875,0.08086 -0.08233,0.839178 -0.577144,0.992245 -0.121558,0.0376 -0.287924,0.06618 -0.369702,0.0635 -0.08178,-0.0026 -4.001812,-0.352517 -8.711188,-0.777422 z M 21.1875,16.600707 C 20.470497,16.531813 14.925504,16.032578 7,15.323356 3.3014655,14.99239 2.8971754,14.951963 2.8557808,14.908961 2.8165181,14.868174 2.8263326,14.718788 3.0409441,12.090553 3.1852922,10.322798 3.1952897,10.27688 3.5037191,9.965088 3.6825189,9.7843385 3.9676803,9.6599973 4.2034067,9.6599973 4.5054604,9.6599973 21.820175,11.22462 22,11.268164 c 0.277438,0.06718 0.552244,0.295553 0.681978,0.566741 0.140103,0.292865 0.140582,0.452117 0.0062,2.045191 -0.05694,0.674822 -0.131733,1.565377 -0.166202,1.979011 -0.03447,0.413633 -0.07337,0.770079 -0.08643,0.792101 -0.03182,0.05363 -0.260525,0.04438 -1.248005,-0.0505 z m -5.26687,-1.455233 c 0.04787,-0.06007 0.04199,-0.08176 -0.04118,-0.15191 -0.05336,-0.04501 -0.122705,-0.08183 -0.154105,-0.08183 -0.0314,0 -0.06854,-0.04753 -0.08254,-0.105618 -0.01627,-0.06751 -0.04662,-0.09715 -0.08413,-0.08216 -0.105064,0.042 -0.06309,0.170091 0.07674,0.234201 0.08508,0.03901 0.140366,0.09839 0.148731,0.159742 0.01572,0.115308 0.05953,0.124161 0.136482,0.02758 z m -0.679197,-0.298845 c -0.0067,-0.09549 -0.0305,-0.173611 -0.05278,-0.173611 -0.04939,0 -0.114692,0.365062 -0.08152,0.455729 0.04504,0.123091 0.147694,-0.09256 0.134301,-0.282118 z m -1.109991,0.04236 c -0.0087,-0.113825 0.0064,-0.223277 0.03605,-0.260417 0.07369,-0.09249 -0.03324,-0.08625 -0.132963,0.0078 -0.09488,0.08944 -0.09831,0.264805 -0.0072,0.36963 0.10307,0.118636 0.120633,0.09891 0.10415,-0.116979 z m -0.77567,-0.07541 c 0.01587,-0.07731 0.04665,-0.163613 0.0684,-0.191787 0.06019,-0.07797 -0.09409,-0.144086 -0.336208,-0.144086 -0.204908,0 -0.209728,0.003 -0.235762,0.147575 -0.05638,0.313045 0.04836,0.417387 0.126767,0.126288 0.03227,-0.119807 0.06713,-0.165356 0.126537,-0.165356 0.06364,0 0.08469,0.034 0.09402,0.15191 0.02381,0.300782 0.102228,0.338655 0.15625,0.07546 z m 0.373395,-0.05737 c 0,-0.200532 -0.0069,-0.214225 -0.114584,-0.227131 -0.130827,-0.01568 -0.14293,0.01211 -0.04824,0.110745 0.04282,0.0446 0.05831,0.110939 0.04369,0.187087 -0.02417,0.125896 0.0029,0.183054 0.07486,0.158068 0.02435,-0.0085 0.04427,-0.111401 0.04427,-0.228769 z m -3.115755,-0.08319 c 0.133535,-0.25904 0.177381,-0.443711 0.09235,-0.38897 -0.02433,0.01566 -0.06136,0.07541 -0.0823,0.13277 -0.04938,0.135306 -0.156399,0.133929 -0.189255,-0.0024 -0.01415,-0.0587 -0.052,-0.12945 -0.08413,-0.157224 -0.0818,-0.07072 -0.07768,0.05935 0.01039,0.328626 0.06832,0.20885 0.0681,0.210939 -0.02995,0.293649 l -0.09876,0.0833 0.123703,-0.01465 c 0.103166,-0.01222 0.145993,-0.05788 0.25795,-0.275067 z m 1.598046,0.183377 c -0.0017,-0.01731 -0.0031,-0.06991 -0.0031,-0.11691 0,-0.05812 -0.01999,-0.07746 -0.0625,-0.06046 -0.100633,0.04023 -0.06958,0.25687 0.03177,0.221678 0.02034,-0.007 0.03557,-0.027 0.03386,-0.04431 z m 0.388251,-0.01331 c 0.06494,-0.176297 0.01153,-0.408776 -0.09393,-0.408776 -0.05588,0 -0.06738,0.04235 -0.06188,0.227864 0.0081,0.272534 0.0014,0.249566 0.07247,0.249566 0.03192,0 0.06942,-0.03089 0.08333,-0.06866 z M 11.854447,14.64959 c 0.03954,-0.243791 -0.01919,-0.303439 -0.286161,-0.290649 l -0.214119,0.01026 -0.01274,0.232289 c -0.0095,0.173776 6.95e-4,0.227624 0.0406,0.213769 0.02933,-0.01019 0.06586,-0.08234 0.08118,-0.160355 0.05704,-0.290517 0.245128,-0.299863 0.245128,-0.01218 0,0.288501 0.09967,0.293186 0.146113,0.0069 z M 14.5,14.758464 c 0,-0.06043 -0.02894,-0.121436 -0.0643,-0.135571 -0.08685,-0.03471 -0.09884,-0.01402 -0.073,0.126082 0.0279,0.151305 0.137296,0.158865 0.137296,0.0095 z m -4.466204,-0.276487 c 0.01622,-0.230586 -0.041906,-0.305696 -0.2357716,-0.304649 -0.083704,4.52e-4 -0.2578175,-0.0091 -0.3869168,-0.02118 l -0.2347265,-0.02201 -0.025689,0.133806 c -0.043074,0.224343 -0.030555,0.339969 0.03681,0.339969 0.03812,0 0.062499,-0.04046 0.062499,-0.1037 0,-0.05703 0.036167,-0.149806 0.080376,-0.206162 0.066127,-0.0843 0.090134,-0.09246 0.1354167,-0.04602 0.030269,0.03104 0.055045,0.127048 0.055045,0.213338 0,0.190841 0.090726,0.24048 0.1273362,0.06967 0.051187,-0.238826 0.066357,-0.27435 0.1171386,-0.27435 0.094411,0 0.1513585,0.102606 0.1513585,0.272714 0,0.233572 0.1001779,0.189585 0.1171299,-0.05143 z m 2.299538,-0.07402 c 0,-0.0094 -0.02813,-0.01706 -0.0625,-0.01706 -0.03437,0 -0.0625,0.01892 -0.0625,0.04204 0,0.02312 0.02813,0.0308 0.0625,0.01706 0.03437,-0.01374 0.0625,-0.03266 0.0625,-0.04204 z M 17.1875,13.831439 c 0.305542,-0.146893 0.460424,-0.411183 0.5053,-0.862242 0.03588,-0.360659 -0.03926,-0.603178 -0.253364,-0.817659 -0.201179,-0.201539 -0.423959,-0.278531 -0.801637,-0.277043 -0.585556,0.0023 -0.904846,0.376123 -0.907447,1.062415 -0.0024,0.626063 0.359241,0.971383 1.019648,0.973704 0.17702,6.21e-4 0.328565,-0.0268 0.4375,-0.07918 z m -0.776584,-0.431512 c -0.111977,-0.10422 -0.135059,-0.160509 -0.15174,-0.370046 -0.04906,-0.616269 0.379046,-0.984869 0.746575,-0.6428 0.111977,0.10422 0.135058,0.160509 0.151739,0.370047 0.04906,0.616269 -0.379045,0.984869 -0.746574,0.642799 z m -1.002444,0.137471 0.01264,-0.18076 -0.283472,-0.02665 c -0.155909,-0.01466 -0.358472,-0.04091 -0.450139,-0.05832 l -0.166666,-0.03167 6.33e-4,-0.303452 c 3.34e-4,-0.166898 0.01646,-0.51044 0.03579,-0.763425 l 0.03516,-0.459974 -0.223294,-0.02795 c -0.168771,-0.02113 -0.23408,-0.01287 -0.267461,0.03381 -0.05436,0.07603 -0.199054,1.850427 -0.154537,1.895166 0.04255,0.04276 0.836344,0.1166 1.177869,0.109567 l 0.270834,-0.0055 0.01264,-0.180759 z m -1.856513,-0.09587 c 0.05708,-0.229434 0.02736,-0.255173 -0.330437,-0.28623 -0.444838,-0.03861 -0.544179,-0.06171 -0.570289,-0.132579 -0.01232,-0.03344 0.0037,-0.369156 0.03543,-0.746046 0.03181,-0.37689 0.045,-0.697523 0.02933,-0.712518 -0.04161,-0.03981 -0.409455,-0.07429 -0.457677,-0.0429 -0.03983,0.02593 -0.175615,1.400635 -0.175195,1.773726 2.09e-4,0.171376 0.0083,0.184715 0.114792,0.188028 0.06302,0.002 0.358333,0.02894 0.656249,0.05996 0.297917,0.03102 0.568607,0.05379 0.601535,0.05062 0.03293,-0.0031 0.07624,-0.07159 0.09626,-0.152053 z m -1.911074,-0.141893 c 0.06853,-0.20298 0.01871,-0.243727 -0.33603,-0.274853 -0.179129,-0.01572 -0.400688,-0.04243 -0.492355,-0.05936 -0.156695,-0.02894 -0.167451,-0.04064 -0.179772,-0.195439 -0.02143,-0.269249 0.02639,-0.294497 0.53017,-0.279894 l 0.441269,0.01279 0.01284,-0.138022 c 0.01424,-0.153132 0.03898,-0.144463 -0.595612,-0.208789 -0.137191,-0.01391 -0.26512,-0.04162 -0.284285,-0.06158 -0.01916,-0.01997 -0.02879,-0.102259 -0.02139,-0.182876 l 0.01345,-0.146578 h 0.500001 0.499999 l 0.01308,-0.141358 c 0.0081,-0.08772 -0.0077,-0.149248 -0.04167,-0.162152 -0.113687,-0.04318 -1.429208,-0.148438 -1.459597,-0.116783 -0.0429,0.04468 -0.201084,1.888263 -0.165179,1.925042 0.02728,0.02795 1.338791,0.161967 1.465004,0.149702 0.03391,-0.0033 0.07894,-0.05723 0.100079,-0.119846 z M 9.5592034,13.121369 c 0.050512,-0.257942 0.1489198,-1.786244 0.1171457,-1.819341 -0.01979,-0.02062 -0.1377259,-0.04206 -0.2620717,-0.04766 l -0.226084,-0.01017 -0.027975,0.291003 c -0.015384,0.160051 -0.04151,0.313817 -0.058053,0.341703 -0.032801,0.05528 -0.6205533,0.03565 -0.6758194,-0.02258 C 8.409564,11.836644 8.395831,11.672597 8.395831,11.489782 V 11.15739 L 8.187498,11.13044 c -0.1317888,-0.01705 -0.2255822,-0.0091 -0.2552781,0.0217 -0.038697,0.0401 -0.1855287,1.511168 -0.182955,1.832971 6.208e-4,0.07785 0.033144,0.09561 0.2165161,0.118232 0.121796,0.01503 0.2373906,0.0079 0.2653916,-0.01626 0.027284,-0.02359 0.058418,-0.185882 0.069183,-0.360654 0.010765,-0.174771 0.034421,-0.342784 0.05256,-0.373362 0.039176,-0.06603 0.5920562,-0.02426 0.6795124,0.05134 0.039239,0.03392 0.046019,0.129364 0.025752,0.362397 -0.037517,0.431281 -0.025839,0.452221 0.2522131,0.452221 0.2047432,0 0.2317575,-0.0106 0.2488051,-0.09766 z"
       id="path24"
       inkscape:connector-curvature="0" />
    <path
       style="display:inline;fill:#feafaf;stroke-width:0.04252587"
       d="M 11.958333,25.066943 C 7.2489583,24.642037 3.2803036,24.28153 3.1391004,24.265816 2.6428257,24.210584 2.2237985,23.812572 2.1440098,23.32063 c -0.033708,-0.207829 0.044386,-0.300908 0.2257082,-0.269018 0.060197,0.01058 0.5781987,0.05928 1.1511153,0.108214 0.5729167,0.04893 1.3510417,0.116873 1.7291667,0.150981 0.6505583,0.05869 1.2239733,0.110183 2.9166668,0.261958 0.4010416,0.03596 1.0385417,0.09331 1.4166668,0.127438 0.3781244,0.03414 3.2187494,0.288143 6.3124994,0.564471 3.093751,0.276328 5.66799,0.512104 5.720534,0.523946 0.35875,0.08086 -0.08233,0.839178 -0.577144,0.992245 -0.121558,0.0376 -0.287924,0.06618 -0.369702,0.0635 -0.08178,-0.0026 -4.001812,-0.352517 -8.711188,-0.777422 z M 21.1875,16.600707 C 20.470497,16.531813 14.925504,16.032578 7,15.323356 3.3014655,14.99239 2.8971754,14.951963 2.8557808,14.908961 2.8165181,14.868174 2.8263326,14.718788 3.0409441,12.090553 3.1852922,10.322798 3.1952897,10.27688 3.5037191,9.965088 3.6825189,9.7843385 3.9676803,9.6599973 4.2034067,9.6599973 4.5054604,9.6599973 21.820175,11.22462 22,11.268164 c 0.277438,0.06718 0.552244,0.295553 0.681978,0.566741 0.140103,0.292865 0.140582,0.452117 0.0062,2.045191 -0.05694,0.674822 -0.131733,1.565377 -0.166202,1.979011 -0.03447,0.413633 -0.07337,0.770079 -0.08643,0.792101 -0.03182,0.05363 -0.260525,0.04438 -1.248005,-0.0505 z m -5.26687,-1.455233 c 0.04787,-0.06007 0.04199,-0.08176 -0.04118,-0.15191 -0.05336,-0.04501 -0.122705,-0.08183 -0.154105,-0.08183 -0.0314,0 -0.06854,-0.04753 -0.08254,-0.105618 -0.01627,-0.06751 -0.04662,-0.09715 -0.08413,-0.08216 -0.105064,0.042 -0.06309,0.170091 0.07674,0.234201 0.08508,0.03901 0.140366,0.09839 0.148731,0.159742 0.01572,0.115308 0.05953,0.124161 0.136482,0.02758 z m -0.679197,-0.298845 c -0.0067,-0.09549 -0.0305,-0.173611 -0.05278,-0.173611 -0.04939,0 -0.114692,0.365062 -0.08152,0.455729 0.04504,0.123091 0.147694,-0.09256 0.134301,-0.282118 z m -1.109991,0.04236 c -0.0087,-0.113825 0.0064,-0.223277 0.03605,-0.260417 0.07369,-0.09249 -0.03324,-0.08625 -0.132963,0.0078 -0.09488,0.08944 -0.09831,0.264805 -0.0072,0.36963 0.10307,0.118636 0.120633,0.09891 0.10415,-0.116979 z m -0.77567,-0.07541 c 0.01587,-0.07731 0.04665,-0.163613 0.0684,-0.191787 0.06019,-0.07797 -0.09409,-0.144086 -0.336208,-0.144086 -0.204908,0 -0.209728,0.003 -0.235762,0.147575 -0.05638,0.313045 0.04836,0.417387 0.126767,0.126288 0.03227,-0.119807 0.06713,-0.165356 0.126537,-0.165356 0.06364,0 0.08469,0.034 0.09402,0.15191 0.02381,0.300782 0.102228,0.338655 0.15625,0.07546 z m 0.373395,-0.05737 c 0,-0.200532 -0.0069,-0.214225 -0.114584,-0.227131 -0.130827,-0.01568 -0.14293,0.01211 -0.04824,0.110745 0.04282,0.0446 0.05831,0.110939 0.04369,0.187087 -0.02417,0.125896 0.0029,0.183054 0.07486,0.158068 0.02435,-0.0085 0.04427,-0.111401 0.04427,-0.228769 z m -3.115755,-0.08319 c 0.133535,-0.25904 0.177381,-0.443711 0.09235,-0.38897 -0.02433,0.01566 -0.06136,0.07541 -0.0823,0.13277 -0.04938,0.135306 -0.156399,0.133929 -0.189255,-0.0024 -0.01415,-0.0587 -0.052,-0.12945 -0.08413,-0.157224 -0.0818,-0.07072 -0.07768,0.05935 0.01039,0.328626 0.06832,0.20885 0.0681,0.210939 -0.02995,0.293649 l -0.09876,0.0833 0.123703,-0.01465 c 0.103166,-0.01222 0.145993,-0.05788 0.25795,-0.275067 z m 1.598046,0.183377 c -0.0017,-0.01731 -0.0031,-0.06991 -0.0031,-0.11691 0,-0.05812 -0.01999,-0.07746 -0.0625,-0.06046 -0.100633,0.04023 -0.06958,0.25687 0.03177,0.221678 0.02034,-0.007 0.03557,-0.027 0.03386,-0.04431 z m 0.388251,-0.01331 c 0.06494,-0.176297 0.01153,-0.408776 -0.09393,-0.408776 -0.05588,0 -0.06738,0.04235 -0.06188,0.227864 0.0081,0.272534 0.0014,0.249566 0.07247,0.249566 0.03192,0 0.06942,-0.03089 0.08333,-0.06866 z M 11.854447,14.64959 c 0.03954,-0.243791 -0.01919,-0.303439 -0.286161,-0.290649 l -0.214119,0.01026 -0.01274,0.232289 c -0.0095,0.173776 6.95e-4,0.227624 0.0406,0.213769 0.02933,-0.01019 0.06586,-0.08234 0.08118,-0.160355 0.05704,-0.290517 0.245128,-0.299863 0.245128,-0.01218 0,0.288501 0.09967,0.293186 0.146113,0.0069 z M 14.5,14.758464 c 0,-0.06043 -0.02894,-0.121436 -0.0643,-0.135571 -0.08685,-0.03471 -0.09884,-0.01402 -0.073,0.126082 0.0279,0.151305 0.137296,0.158865 0.137296,0.0095 z m -4.466204,-0.276487 c 0.01622,-0.230586 -0.041906,-0.305696 -0.2357716,-0.304649 -0.083704,4.52e-4 -0.2578175,-0.0091 -0.3869168,-0.02118 l -0.2347265,-0.02201 -0.025689,0.133806 c -0.043074,0.224343 -0.030555,0.339969 0.03681,0.339969 0.03812,0 0.062499,-0.04046 0.062499,-0.1037 0,-0.05703 0.036167,-0.149806 0.080376,-0.206162 0.066127,-0.0843 0.090134,-0.09246 0.1354167,-0.04602 0.030269,0.03104 0.055045,0.127048 0.055045,0.213338 0,0.190841 0.090726,0.24048 0.1273362,0.06967 0.051187,-0.238826 0.066357,-0.27435 0.1171386,-0.27435 0.094411,0 0.1513585,0.102606 0.1513585,0.272714 0,0.233572 0.1001779,0.189585 0.1171299,-0.05143 z m 2.299538,-0.07402 c 0,-0.0094 -0.02813,-0.01706 -0.0625,-0.01706 -0.03437,0 -0.0625,0.01892 -0.0625,0.04204 0,0.02312 0.02813,0.0308 0.0625,0.01706 0.03437,-0.01374 0.0625,-0.03266 0.0625,-0.04204 z M 17.1875,13.831439 c 0.305542,-0.146893 0.460424,-0.411183 0.5053,-0.862242 0.03588,-0.360659 -0.03926,-0.603178 -0.253364,-0.817659 -0.201179,-0.201539 -0.423959,-0.278531 -0.801637,-0.277043 -0.585556,0.0023 -0.904846,0.376123 -0.907447,1.062415 -0.0024,0.626063 0.359241,0.971383 1.019648,0.973704 0.17702,6.21e-4 0.328565,-0.0268 0.4375,-0.07918 z m -0.776584,-0.431512 c -0.111977,-0.10422 -0.135059,-0.160509 -0.15174,-0.370046 -0.04906,-0.616269 0.379046,-0.984869 0.746575,-0.6428 0.111977,0.10422 0.135058,0.160509 0.151739,0.370047 0.04906,0.616269 -0.379045,0.984869 -0.746574,0.642799 z m -1.002444,0.137471 0.01264,-0.18076 -0.283472,-0.02665 c -0.155909,-0.01466 -0.358472,-0.04091 -0.450139,-0.05832 l -0.166666,-0.03167 6.33e-4,-0.303452 c 3.34e-4,-0.166898 0.01646,-0.51044 0.03579,-0.763425 l 0.03516,-0.459974 -0.223294,-0.02795 c -0.168771,-0.02113 -0.23408,-0.01287 -0.267461,0.03381 -0.05436,0.07603 -0.199054,1.850427 -0.154537,1.895166 0.04255,0.04276 0.836344,0.1166 1.177869,0.109567 l 0.270834,-0.0055 0.01264,-0.180759 z m -1.856513,-0.09587 c 0.05708,-0.229434 0.02736,-0.255173 -0.330437,-0.28623 -0.444838,-0.03861 -0.544179,-0.06171 -0.570289,-0.132579 -0.01232,-0.03344 0.0037,-0.369156 0.03543,-0.746046 0.03181,-0.37689 0.045,-0.697523 0.02933,-0.712518 -0.04161,-0.03981 -0.409455,-0.07429 -0.457677,-0.0429 -0.03983,0.02593 -0.175615,1.400635 -0.175195,1.773726 2.09e-4,0.171376 0.0083,0.184715 0.114792,0.188028 0.06302,0.002 0.358333,0.02894 0.656249,0.05996 0.297917,0.03102 0.568607,0.05379 0.601535,0.05062 0.03293,-0.0031 0.07624,-0.07159 0.09626,-0.152053 z m -1.911074,-0.141893 c 0.06853,-0.20298 0.01871,-0.243727 -0.33603,-0.274853 -0.179129,-0.01572 -0.400688,-0.04243 -0.492355,-0.05936 -0.156695,-0.02894 -0.167451,-0.04064 -0.179772,-0.195439 -0.02143,-0.269249 0.02639,-0.294497 0.53017,-0.279894 l 0.441269,0.01279 0.01284,-0.138022 c 0.01424,-0.153132 0.03898,-0.144463 -0.595612,-0.208789 -0.137191,-0.01391 -0.26512,-0.04162 -0.284285,-0.06158 -0.01916,-0.01997 -0.02879,-0.102259 -0.02139,-0.182876 l 0.01345,-0.146578 h 0.500001 0.499999 l 0.01308,-0.141358 c 0.0081,-0.08772 -0.0077,-0.149248 -0.04167,-0.162152 -0.113687,-0.04318 -1.429208,-0.148438 -1.459597,-0.116783 -0.0429,0.04468 -0.201084,1.888263 -0.165179,1.925042 0.02728,0.02795 1.338791,0.161967 1.465004,0.149702 0.03391,-0.0033 0.07894,-0.05723 0.100079,-0.119846 z M 9.5592034,13.121369 c 0.050512,-0.257942 0.1489198,-1.786244 0.1171457,-1.819341 -0.01979,-0.02062 -0.1377259,-0.04206 -0.2620717,-0.04766 l -0.226084,-0.01017 -0.027975,0.291003 c -0.015384,0.160051 -0.04151,0.313817 -0.058053,0.341703 -0.032801,0.05528 -0.6205533,0.03565 -0.6758194,-0.02258 C 8.409564,11.836644 8.395831,11.672597 8.395831,11.489782 V 11.15739 L 8.187498,11.13044 c -0.1317888,-0.01705 -0.2255822,-0.0091 -0.2552781,0.0217 -0.038697,0.0401 -0.1855287,1.511168 -0.182955,1.832971 6.208e-4,0.07785 0.033144,0.09561 0.2165161,0.118232 0.121796,0.01503 0.2373906,0.0079 0.2653916,-0.01626 0.027284,-0.02359 0.058418,-0.185882 0.069183,-0.360654 0.010765,-0.174771 0.034421,-0.342784 0.05256,-0.373362 0.039176,-0.06603 0.5920562,-0.02426 0.6795124,0.05134 0.039239,0.03392 0.046019,0.129364 0.025752,0.362397 -0.037517,0.431281 -0.025839,0.452221 0.2522131,0.452221 0.2047432,0 0.2317575,-0.0106 0.2488051,-0.09766 z"
       id="path22"
       inkscape:connector-curvature="0" />
    <path
       style="display:inline;fill:#fe8f8f;stroke-width:0.04252587"
       d="M 11.6875,25.018303 C 6.94375,24.590211 2.9929759,24.22065 2.9080021,24.197059 2.6651586,24.129633 2.4094094,23.901695 2.28125,23.638462 c -0.121611,-0.249784 -0.1504273,-0.512 -0.060228,-0.548055 0.04692,-0.01875 5.1532211,0.432147 16.528978,1.45956 2.082644,0.188096 2.911607,0.277854 2.952007,0.319633 0.0471,0.04871 0.04168,0.09222 -0.03348,0.269299 -0.192088,0.452493 -0.532976,0.668724 -1.043523,0.661918 -0.171875,-0.0023 -4.19375,-0.354422 -8.9375,-0.782514 z m 0.67491,-9.234014 c -7.6402534,-0.689683 -9.4575356,-0.865314 -9.4889693,-0.91706 -0.021384,-0.0352 -0.028965,-0.151893 -0.016847,-0.259315 0.012118,-0.107422 0.094484,-1.076189 0.1830366,-2.152818 0.1499916,-1.823616 0.16811,-1.972049 0.2648959,-2.170139 0.1976625,-0.4045521 0.512641,-0.5968125 0.9662219,-0.5897743 0.1604637,0.00249 4.2105021,0.3570513 9.0000849,0.7879133 8.51254,0.765773 8.713233,0.785881 8.926233,0.894361 0.270951,0.137993 0.453096,0.362046 0.536947,0.660488 0.06097,0.217016 0.05514,0.343427 -0.107183,2.322048 -0.09442,1.150897 -0.180686,2.136485 -0.19171,2.190195 -0.01867,0.09097 -0.04068,0.0973 -0.32133,0.09241 -0.16571,-0.0029 -4.55383,-0.389125 -9.75138,-0.858307 z m 3.515329,-0.570263 c 0.04433,-0.02471 0.08059,-0.07689 0.08059,-0.11594 0,-0.08866 -0.119114,-0.229755 -0.193957,-0.229755 -0.03083,0 -0.05605,-0.0193 -0.05605,-0.04289 0,-0.02359 0.03632,-0.03824 0.08071,-0.03256 0.133301,0.01708 0.116756,-0.07368 -0.01821,-0.0999 -0.162315,-0.03153 -0.2591,-0.006 -0.289504,0.07661 -0.02986,0.08106 0.04511,0.181652 0.173207,0.232384 0.05251,0.0208 0.09546,0.06758 0.09546,0.103985 0,0.07873 -0.01963,0.08152 -0.132212,0.01875 -0.06003,-0.03346 -0.09809,-0.03385 -0.129324,-0.0013 -0.09028,0.09404 0.243679,0.17179 0.389276,0.09062 z M 15.257775,14.93462 c 0.0193,-0.140551 0.01301,-0.235514 -0.0182,-0.274681 -0.07672,-0.09629 -0.156245,0.0598 -0.156245,0.306675 0,0.177951 0.01161,0.209572 0.07247,0.197363 0.052,-0.01044 0.0808,-0.0752 0.101971,-0.229357 z m -0.851262,0.118173 c 0.01108,-0.03516 -0.02612,-0.05425 -0.105692,-0.05425 -0.115716,0 -0.122791,-0.01012 -0.122791,-0.175654 0,-0.138761 0.01412,-0.172572 0.06724,-0.160981 0.04021,0.0088 0.06353,0.05154 0.05802,0.106385 -0.01,0.09932 0.07578,0.15575 0.175883,0.115737 0.180424,-0.07212 -0.0219,-0.336876 -0.257441,-0.336876 -0.162932,0 -0.305059,0.132576 -0.305059,0.284559 0,0.142611 0.191053,0.304353 0.341235,0.288884 0.07233,-0.0074 0.139208,-0.03796 0.148611,-0.0678 z m -0.650236,-0.184724 c 0.0353,-0.175979 0.0056,-0.343708 -0.06288,-0.354378 -0.107429,-0.01675 -0.354009,-0.03628 -0.589233,-0.04665 l -0.25,-0.01103 -0.02533,0.217014 c -0.02783,0.23843 0.02024,0.358568 0.111783,0.279421 0.03001,-0.02594 0.06033,-0.109192 0.06739,-0.184997 0.0097,-0.104438 0.03302,-0.137826 0.09616,-0.137826 0.06844,0 0.08564,0.03342 0.09627,0.187137 0.01013,0.146515 0.02786,0.184146 0.08168,0.17335 0.03836,-0.0077 0.08034,-0.0729 0.095,-0.147525 0.03584,-0.182555 0.07289,-0.235272 0.145057,-0.206424 0.04114,0.01645 0.06117,0.08791 0.06117,0.218301 0,0.15954 0.01261,0.191321 0.07126,0.179557 0.04313,-0.0086 0.08327,-0.07417 0.101684,-0.165944 z m -3.247786,0.05452 c 0.06604,-0.07953 0.283176,-0.557798 0.283176,-0.623735 0,-0.08379 -0.129739,-0.03141 -0.174248,0.07035 -0.06329,0.144702 -0.130512,0.136943 -0.187998,-0.0217 -0.02595,-0.07162 -0.07694,-0.130209 -0.113302,-0.130209 -0.08114,0 -0.08132,-0.01223 0.0044,0.308853 0.07026,0.263246 0.07018,0.264388 -0.02271,0.337378 -0.05127,0.04028 -0.07987,0.08714 -0.06355,0.104129 0.05485,0.05713 0.210648,0.03154 0.274257,-0.04507 z m 2.108507,-0.199075 c 0.0071,-0.11503 -0.0089,-0.236408 -0.03544,-0.269729 -0.06976,-0.08755 -0.319436,-0.127396 -0.39406,-0.06289 -0.09058,0.0783 -0.03562,0.13112 0.10578,0.101662 0.121182,-0.02525 0.172124,0.03545 0.0797,0.09495 -0.02991,0.01926 -0.02844,0.04726 0.0047,0.08882 0.02659,0.03337 0.03625,0.09355 0.02145,0.133725 -0.02976,0.0808 0.04527,0.151203 0.142583,0.133786 0.04321,-0.0078 0.06646,-0.07575 0.07533,-0.220331 z m -0.323671,0.125203 c -0.02762,-0.03467 -0.03802,-0.103021 -0.02313,-0.15191 0.03098,-0.101673 0.02412,-0.104295 -0.121653,-0.04656 -0.0618,0.02448 -0.106879,0.07634 -0.106879,0.122975 0,0.111032 0.03546,0.138517 0.178712,0.138517 0.10294,0 0.114916,-0.01034 0.07295,-0.06302 z m -0.426329,-0.212009 c 0.0071,-0.11503 -0.0071,-0.234134 -0.03141,-0.264676 -0.02592,-0.03253 -0.137223,-0.05554 -0.268763,-0.05554 h -0.224518 l -0.02486,0.156561 c -0.04399,0.277056 -0.03246,0.351872 0.05424,0.351872 0.05657,0 0.08851,-0.04135 0.108978,-0.141059 0.06359,-0.309768 0.227666,-0.295823 0.227666,0.01935 0,0.139872 0.01344,0.16882 0.07291,0.157055 0.05516,-0.01091 0.07604,-0.06537 0.08575,-0.223569 z M 9.6704485,14.506214 c 0.029467,-0.188818 0.054037,-0.221606 0.1402543,-0.187142 0.04324,0.01728 0.064301,0.08301 0.064301,0.200674 0,0.142528 0.014575,0.174973 0.078606,0.174973 0.061546,0 0.084883,-0.04363 0.1075522,-0.201088 0.04019,-0.27921 -0.01994,-0.3316 -0.4036875,-0.351683 -0.1668145,-0.0087 -0.3501749,-0.01976 -0.4074669,-0.02452 -0.096331,-0.008 -0.105801,0.0083 -0.1259017,0.2164 -0.011955,0.123776 -0.015083,0.245847 -0.00691,0.271268 0.029285,0.09152 0.1317976,0.04369 0.1567582,-0.07314 0.052703,-0.246704 0.067841,-0.275947 0.1358977,-0.262529 0.045924,0.0091 0.073414,0.06487 0.081379,0.165229 0.00659,0.08335 0.020687,0.177592 0.031269,0.209416 0.035159,0.105693 0.1227097,0.02414 0.1479879,-0.137861 z M 15.25,14.47771 c 0,-0.02387 -0.01875,-0.0434 -0.04167,-0.0434 -0.02292,0 -0.04167,0.01953 -0.04167,0.0434 0,0.02387 0.01875,0.0434 0.04167,0.0434 0.02292,0 0.04167,-0.01953 0.04167,-0.0434 z m 1.8125,-0.568741 c 0.405367,-0.115342 0.608064,-0.425881 0.637072,-0.976013 0.01515,-0.287366 0.0032,-0.387376 -0.06608,-0.550384 -0.270423,-0.636819 -1.373963,-0.742313 -1.746027,-0.166916 -0.294001,0.454672 -0.228158,1.218204 0.129561,1.502418 0.247184,0.196393 0.721665,0.283027 1.045474,0.190891 z m -0.635943,-0.516046 c -0.128931,-0.125123 -0.180051,-0.359869 -0.133749,-0.614189 0.06842,-0.375829 0.159226,-0.471163 0.44877,-0.471163 0.294291,0 0.456319,0.271085 0.398271,0.666332 -0.03339,0.227366 -0.117741,0.403358 -0.220874,0.460854 -0.135291,0.07542 -0.394263,0.05342 -0.492418,-0.04183 z m -0.996467,0.20494 c 0.05468,-0.242248 0.0046,-0.277046 -0.44998,-0.312545 -0.224814,-0.01756 -0.410918,-0.05344 -0.435199,-0.08392 -0.02893,-0.0363 -0.02314,-0.272122 0.01817,-0.741185 0.04444,-0.504485 0.0483,-0.703375 0.01449,-0.745814 -0.06044,-0.07586 -0.489287,-0.07886 -0.516412,-0.0036 -0.04037,0.111972 -0.168151,1.858997 -0.139508,1.907274 0.03025,0.05097 0.990262,0.160823 1.30617,0.149456 0.15536,-0.0056 0.167547,-0.01581 0.202269,-0.16965 z m -1.855033,-0.212445 c 0.01481,-0.238843 0.02462,-0.233488 -0.504974,-0.275641 -0.264177,-0.02103 -0.373974,-0.04704 -0.390752,-0.09259 -0.01284,-0.03484 8.73e-4,-0.374832 0.03048,-0.755538 0.0296,-0.380707 0.04099,-0.705567 0.02529,-0.721911 -0.01569,-0.01634 -0.139727,-0.0381 -0.275637,-0.04834 -0.2328,-0.01754 -0.248298,-0.01267 -0.267643,0.0841 -0.04434,0.221799 -0.157615,1.867239 -0.130495,1.895547 0.03788,0.03955 0.978654,0.130371 1.272001,0.122806 l 0.229167,-0.0059 z m -1.916478,-0.154106 c 0.01479,-0.21233 0.02176,-0.20891 -0.512746,-0.25154 -0.472023,-0.03765 -0.479166,-0.04121 -0.479166,-0.238946 0,-0.104787 0.02367,-0.18233 0.06259,-0.205018 0.03443,-0.02007 0.234777,-0.02075 0.445222,-0.0015 0.210447,0.01923 0.395484,0.02003 0.411194,0.0018 0.06107,-0.07096 0.07894,-0.263046 0.02851,-0.3065 -0.02843,-0.02449 -0.211055,-0.05852 -0.405847,-0.07562 -0.413425,-0.0363 -0.5,-0.07292 -0.5,-0.211514 0,-0.183376 0.07642,-0.205499 0.547375,-0.158455 0.38374,0.03833 0.437588,0.03513 0.483875,-0.02875 0.07487,-0.103335 0.06412,-0.262723 -0.02083,-0.308833 -0.107381,-0.05829 -1.465285,-0.158548 -1.50779,-0.111328 -0.0447,0.04966 -0.191664,1.918531 -0.153958,1.957808 0.03681,0.03834 1.067377,0.134874 1.359665,0.12736 l 0.229167,-0.0059 0.01275,-0.183026 z m -2.0947102,-0.02314 c 0.050218,-0.139106 0.169881,-1.881065 0.1326763,-1.931424 -0.023847,-0.03228 -0.137175,-0.05425 -0.2797719,-0.05425 -0.2351194,0 -0.2401865,0.0026 -0.2657313,0.135634 -0.014321,0.0746 -0.026038,0.208926 -0.026038,0.298505 0,0.216275 -0.066706,0.265932 -0.3168163,0.235843 -0.4312145,-0.05188 -0.4047901,-0.02477 -0.3821673,-0.391984 0.017306,-0.280876 0.00989,-0.33085 -0.054418,-0.3667 -0.097728,-0.05448 -0.4428893,-0.05351 -0.4754315,0.0013 -0.01398,0.02356 -0.061304,0.456956 -0.105165,0.963097 -0.05779,0.666877 -0.067273,0.935915 -0.034439,0.977125 0.059693,0.07492 0.4886725,0.0771 0.5158456,0.0026 0.010884,-0.02984 0.03373,-0.200738 0.050774,-0.379774 l 0.030983,-0.325521 0.2594854,-0.0129 c 0.1427176,-0.0071 0.2993194,0.0093 0.3480054,0.03645 0.08165,0.04552 0.08738,0.07832 0.073851,0.422738 -0.014408,0.366751 -0.01282,0.373935 0.089495,0.4041 0.1748934,0.05156 0.4178535,0.04332 0.4388687,-0.01489 z"
       id="path20"
       inkscape:connector-curvature="0" />
    <path
       style="display:inline;fill:#fe5e5e;stroke-width:0.04252587"
       d="M 18.291667,25.582938 C 17.019792,25.466213 13.044899,25.106715 9.4585711,24.784057 2.2247296,24.133236 2.7339449,24.201702 2.4366727,23.839935 2.2859171,23.656473 2.1520351,23.291884 2.1937944,23.178527 c 0.013724,-0.03725 0.077786,-0.06369 0.1544134,-0.06371 0.072027,-2.3e-5 2.4184589,0.205734 5.2142922,0.457238 2.795833,0.251505 7.104507,0.63914 9.574831,0.861413 2.713301,0.244135 4.50977,0.423164 4.53765,0.452205 0.07733,0.08055 -0.07511,0.415793 -0.277381,0.61001 -0.177725,0.170647 -0.51642,0.316622 -0.707246,0.304818 -0.04741,-0.0029 -1.126812,-0.100834 -2.398687,-0.217561 z m -5.75,-9.81058 C 7.259375,15.295947 2.9214876,14.889756 2.9019167,14.869709 2.8628462,14.829689 3.1903521,10.732403 3.2527576,10.480489 3.3413926,10.122693 3.7069418,9.7814774 4.0625,9.7246496 c 0.093051,-0.014872 2.3015296,0.1656958 4.9999997,0.4088054 2.6583343,0.239494 6.5958333,0.592935 8.7500003,0.785424 2.154167,0.19249 4.015496,0.370316 4.136287,0.39517 0.440299,0.09059 0.801213,0.541269 0.801213,1.000477 0,0.251177 -0.326215,4.201868 -0.353329,4.279065 -0.01048,0.02983 -0.07121,0.05216 -0.134947,0.04961 -0.06374,-0.0026 -4.437766,-0.394434 -9.720057,-0.870843 z m 3.406017,-0.565609 c 0.0643,-0.05559 0.06844,-0.192705 0.007,-0.232248 -0.02491,-0.01604 -0.03507,-0.06988 -0.02258,-0.119661 0.01249,-0.04977 0.0025,-0.115929 -0.02231,-0.147011 -0.06263,-0.07861 -0.348275,-0.07102 -0.427369,0.01137 -0.05785,0.06026 -0.05831,0.0817 -0.004,0.190947 0.05381,0.108383 0.05371,0.12945 -7.94e-4,0.176592 -0.04554,0.03937 -0.04996,0.06853 -0.01671,0.110266 0.08496,0.10664 0.3682,0.11231 0.486838,0.0097 z m -0.70235,-0.05044 c 0.02766,-0.03471 0.04515,-0.205445 0.04226,-0.412326 -0.0042,-0.30229 -0.01521,-0.353079 -0.07626,-0.353079 -0.05683,0 -0.08227,0.0703 -0.125294,0.346269 -0.02969,0.190447 -0.04303,0.375994 -0.02965,0.412326 0.03024,0.08207 0.126231,0.08553 0.188951,0.0068 z m -0.880751,-0.01151 c 0.05156,-0.0144 0.09375,-0.05387 0.09375,-0.08774 0,-0.03386 0.03098,-0.110828 0.06886,-0.171033 0.06492,-0.103209 0.06409,-0.116143 -0.01461,-0.226338 -0.112754,-0.157887 -0.414953,-0.188119 -0.532138,-0.05324 -0.152988,0.176095 -0.05928,0.491125 0.159327,0.535668 0.04917,0.01001 0.09877,0.02061 0.110232,0.02353 0.01145,0.0029 0.06302,-0.0064 0.114583,-0.02085 z m -0.622916,-0.111532 c 0.0275,-0.02864 0.05,-0.144439 0.05,-0.257316 0,-0.241342 -0.08635,-0.361158 -0.232703,-0.322895 -0.05265,0.01377 -0.22339,0.0059 -0.379427,-0.01749 -0.34658,-0.05194 -0.397977,-0.008 -0.379262,0.324263 0.01027,0.18237 0.02528,0.217013 0.094,0.217013 0.06014,0 0.09154,-0.04305 0.118722,-0.16276 0.05109,-0.225035 0.153674,-0.216883 0.153674,0.01221 0,0.294143 0.187145,0.290366 0.245126,-0.005 0.03926,-0.199934 0.129874,-0.217575 0.129874,-0.02529 0,0.267021 0.08013,0.362061 0.2,0.237201 z m -3.258439,-0.05341 c 0.100823,-0.07356 0.367545,-0.654651 0.329736,-0.718375 -0.04629,-0.07803 -0.137072,-0.04743 -0.22305,0.07517 l -0.0837,0.119358 -0.04414,-0.120471 c -0.04741,-0.129366 -0.153775,-0.197215 -0.211417,-0.134859 -0.01955,0.02115 -0.0044,0.161005 0.03383,0.312242 0.06912,0.273452 0.06908,0.274055 -0.02536,0.348261 -0.0747,0.05869 -0.08386,0.08553 -0.04353,0.12755 0.06763,0.07044 0.163283,0.06727 0.267647,-0.0089 z m 2.183438,-0.276176 c 0,-0.268611 -0.08244,-0.356176 -0.335333,-0.356176 -0.203434,0 -0.287095,0.07212 -0.194973,0.168083 0.03424,0.03566 0.02239,0.07187 -0.04492,0.137188 -0.101894,0.09888 -0.107399,0.122056 -0.05105,0.214883 0.04587,0.07557 0.495077,0.132498 0.574202,0.07277 0.02864,-0.02162 0.05208,-0.128161 0.05208,-0.236748 z m -0.793131,0.124108 c 0.06461,-0.12575 0.05281,-0.417881 -0.01939,-0.480301 -0.08229,-0.07114 -0.465461,-0.09186 -0.514035,-0.0278 -0.05079,0.06699 -0.08654,0.441035 -0.04831,0.50547 0.05787,0.09754 0.186597,0.02783 0.201471,-0.109101 0.03012,-0.277272 0.173397,-0.298758 0.173397,-0.02601 0,0.0901 0.0125,0.176837 0.02778,0.192751 0.05238,0.05457 0.135979,0.02889 0.17909,-0.05501 z m -1.798738,-0.353988 c 0.0081,-0.160173 -0.0062,-0.258583 -0.04202,-0.28958 -0.02987,-0.02582 -0.2388754,-0.06107 -0.4644513,-0.07832 -0.3298828,-0.02522 -0.4173366,-0.01952 -0.4469285,0.02917 -0.057394,0.09441 -0.046463,0.505967 0.014019,0.527944 0.1002504,0.03643 0.156932,-0.02255 0.1826436,-0.190039 0.035564,-0.231661 0.1318237,-0.221542 0.1482934,0.01559 0.010582,0.152391 0.028856,0.186838 0.1050897,0.19813 0.072001,0.01067 0.097944,-0.01318 0.1180642,-0.108507 0.044264,-0.209726 0.058998,-0.238445 0.1125978,-0.219449 0.028634,0.01015 0.053608,0.07525 0.055497,0.144668 0.00611,0.223631 0.014678,0.241163 0.1111466,0.226891 0.082669,-0.01223 0.095199,-0.04254 0.1060475,-0.256494 z m 7.263166,-0.66923 c 0.240371,-0.176055 0.375782,-0.458937 0.401933,-0.839663 0.03548,-0.51655 -0.13225,-0.851348 -0.518893,-1.035735 -0.19712,-0.094 -0.27176,-0.105603 -0.594696,-0.09241 -0.33108,0.01352 -0.387734,0.0286 -0.547603,0.145689 -0.276959,0.202854 -0.391204,0.474915 -0.391204,0.931604 0,0.32528 0.01383,0.394583 0.114215,0.572468 0.198282,0.351353 0.459675,0.471395 0.996858,0.457796 0.326866,-0.0083 0.377965,-0.02152 0.53939,-0.139746 z m -0.846869,-0.392526 c -0.164777,-0.09316 -0.229122,-0.347995 -0.166451,-0.659225 0.05596,-0.277895 0.133706,-0.385418 0.30743,-0.425164 0.272011,-0.06223 0.493161,0.156695 0.492694,0.487744 -7.33e-4,0.521484 -0.288076,0.792035 -0.633673,0.596645 z m -1.082761,0.362542 c 0.0275,-0.02864 0.05,-0.144637 0.05,-0.257757 V 13.31115 L 15.28125,13.28879 c -0.0974,-0.0123 -0.289331,-0.03374 -0.426522,-0.04765 -0.137192,-0.01391 -0.264859,-0.04135 -0.283706,-0.06098 -0.01885,-0.01963 -0.01075,-0.360152 0.018,-0.756713 0.02875,-0.39656 0.04239,-0.731301 0.03033,-0.743869 -0.01205,-0.01257 -0.133441,-0.03499 -0.269739,-0.04983 -0.184715,-0.02011 -0.259257,-0.01185 -0.292756,0.03245 -0.06055,0.08006 -0.206053,1.9396 -0.155865,1.991879 0.03051,0.03179 0.559748,0.09525 1.392769,0.167023 0.03552,0.0031 0.08708,-0.01787 0.114583,-0.04652 z m -1.82193,-0.238444 c 0.02347,-0.0643 0.03707,-0.176608 0.03022,-0.249566 -0.01361,-0.14503 0.04391,-0.127344 -0.727514,-0.223671 -0.09537,-0.01191 -0.181327,-0.04513 -0.191024,-0.07382 -0.0097,-0.02869 0.0083,-0.353002 0.03999,-0.720685 0.0317,-0.367682 0.04869,-0.692749 0.03779,-0.72237 -0.02398,-0.06511 -0.518111,-0.131948 -0.570674,-0.0772 -0.04282,0.04461 -0.208879,1.906696 -0.177606,1.991586 0.01225,0.03325 0.125862,0.06702 0.277821,0.08256 1.327887,0.135846 1.228724,0.136375 1.280998,-0.0069 z m -1.92215,-0.11877 c 0.02721,-0.03414 0.04356,-0.136681 0.03635,-0.227865 l -0.01311,-0.165789 -0.270834,-0.03468 c -0.771238,-0.09875 -0.72819,-0.0869 -0.741342,-0.204078 -0.0067,-0.0597 0.01207,-0.143103 0.04172,-0.185339 0.04814,-0.06858 0.09512,-0.07303 0.439173,-0.04158 0.211897,0.01937 0.413433,0.01879 0.44786,-0.0013 0.03902,-0.02274 0.06259,-0.100336 0.06259,-0.205977 0,-0.191138 0.0292,-0.17877 -0.583334,-0.247078 -0.312011,-0.03479 -0.312501,-0.03505 -0.312501,-0.165057 v -0.130208 h 0.497785 0.497784 l 0.02808,-0.140435 c 0.0501,-0.25054 0.0091,-0.267825 -0.810176,-0.341973 -0.492256,-0.04455 -0.758045,-0.05276 -0.785402,-0.02426 -0.05297,0.05517 -0.2142362,1.962266 -0.169781,2.007722 0.02901,0.02967 1.089357,0.149604 1.455358,0.164612 0.07168,0.0029 0.152571,-0.02259 0.179772,-0.05673 z M 9.5526836,13.244752 c 0.083942,-0.08744 0.2310851,-1.917634 0.1601161,-1.991561 -0.027602,-0.02875 -0.1639559,-0.05185 -0.3072561,-0.05205 l -0.2576287,-3.47e-4 -0.042708,0.325521 -0.042708,0.325521 -0.2873515,-0.01 c -0.1580441,-0.0055 -0.2982484,-0.02132 -0.311565,-0.03519 -0.013321,-0.01387 -0.024633,-0.17516 -0.025149,-0.358418 l -9.526e-4,-0.333196 -0.2457044,-0.03601 c -0.1854911,-0.02718 -0.2586502,-0.022 -0.2985306,0.02117 -0.05883,0.06368 -0.2165929,1.840052 -0.1737479,1.956356 0.032528,0.0883 0.4631327,0.151884 0.5456259,0.08057 0.03323,-0.02873 0.065785,-0.180907 0.0797,-0.372517 0.012932,-0.178173 0.035961,-0.344918 0.051163,-0.370544 0.035135,-0.05922 0.5229241,-0.0097 0.5869391,0.05961 0.02942,0.03185 0.036485,0.16208 0.020029,0.369264 -0.015353,0.193296 -0.0086,0.34284 0.017052,0.37756 0.023355,0.03162 0.1174704,0.06497 0.2091371,0.07411 0.091667,0.0091 0.1887649,0.0199 0.2157744,0.02392 0.027006,0.004 0.075494,-0.02019 0.1077427,-0.05378 z"
       id="path18"
       inkscape:connector-curvature="0" />
    <path
       style="display:inline;fill:#fe2e2e;stroke-width:0.04252587"
       d="M 17.5,25.480836 C 15.861459,25.329129 11.980208,24.977822 8.8750002,24.700153 5.7697916,24.422484 3.1303372,24.17534 3.0095457,24.150946 c -0.38475,-0.0777 -0.7093204,-0.420253 -0.7806213,-0.823864 -0.01984,-0.112311 -0.011924,-0.162347 0.027947,-0.176639 0.030596,-0.01096 1.733754,0.132112 3.7847957,0.317952 2.0510411,0.18584 6.3635409,0.573372 9.5833329,0.861185 3.219793,0.287812 5.896354,0.533004 5.947917,0.54487 0.110996,0.02554 0.118096,0.104162 0.02649,0.293345 -0.169893,0.350875 -0.47877,0.555539 -0.869018,0.575817 -0.138174,0.0072 -1.591851,-0.111069 -3.230392,-0.262776 z M 14.916667,15.951792 C 11.009375,15.598523 6.7174062,15.210453 5.3789587,15.089414 4.0405108,14.968376 2.9355375,14.859053 2.9234623,14.846475 2.9113872,14.833896 2.9813101,13.861988 3.0788466,12.68668 3.2663602,10.427152 3.2850068,10.314035 3.5124519,10.056269 3.6505384,9.8997751 3.9934625,9.7476601 4.2083333,9.7475889 c 0.103125,-3.43e-5 2.9996504,0.2535181 6.4367237,0.5634491 3.437072,0.309932 7.365197,0.662863 8.729166,0.784293 1.363969,0.121429 2.549468,0.239311 2.634442,0.26196 0.218786,0.05832 0.489187,0.288108 0.602744,0.512224 0.07555,0.149109 0.09669,0.259169 0.09586,0.499132 -0.0013,0.396389 -0.313729,4.126039 -0.350778,4.188483 -0.01544,0.02602 -0.09728,0.04498 -0.181862,0.04214 -0.08459,-0.0028 -3.350666,-0.29421 -7.257957,-0.64748 z m 1.064389,-0.738413 c 0.06555,-0.07544 0.07007,-0.10894 0.02976,-0.220178 -0.02615,-0.07216 -0.03623,-0.161894 -0.02241,-0.199414 0.05056,-0.137242 -0.256949,-0.242358 -0.465327,-0.159065 -0.107664,0.04303 -0.157878,0.176849 -0.104991,0.279786 0.0347,0.06754 0.03283,0.10614 -0.0076,0.156885 -0.04499,0.05646 -0.03799,0.08049 0.04339,0.149135 0.135633,0.114404 0.424977,0.110481 0.527172,-0.0071 z m -0.689177,-0.04164 c 0.02485,-0.04837 0.03942,-0.246561 0.03271,-0.444878 -0.01181,-0.349208 -0.01456,-0.357659 -0.116262,-0.357659 -0.09905,0 -0.106873,0.01877 -0.159317,0.382328 -0.04288,0.297202 -0.04406,0.396254 -0.0053,0.444878 0.07133,0.08953 0.195864,0.07715 0.248178,-0.02467 z m -0.76892,-0.150101 c 0.08961,-0.22339 0.07566,-0.351491 -0.04941,-0.453973 -0.143211,-0.117344 -0.348637,-0.114815 -0.496216,0.0061 -0.06774,0.0555 -0.123524,0.07643 -0.132122,0.04956 -0.05,-0.156269 -0.123283,-0.18928 -0.47021,-0.211824 -0.194792,-0.01266 -0.386566,-0.03341 -0.426165,-0.04613 -0.04992,-0.01603 -0.09779,0.02095 -0.156094,0.120563 -0.05547,0.09476 -0.08415,0.117819 -0.08425,0.06772 -2.91e-4,-0.136089 -0.15316,-0.249566 -0.336228,-0.249566 -0.233457,0 -0.337633,0.06418 -0.307458,0.189419 0.01498,0.06217 -4.16e-4,0.12015 -0.0413,0.155488 -0.05667,0.04899 -0.06518,0.03929 -0.06518,-0.07437 0,-0.203864 -0.111661,-0.302776 -0.367448,-0.325493 -0.291268,-0.02587 -0.340885,0.027 -0.340885,0.363235 0,0.199451 0.01561,0.264918 0.06817,0.285925 0.105018,0.04198 0.201291,-0.04598 0.215727,-0.197108 0.0175,-0.183167 0.09111,-0.175157 0.09111,0.0099 0,0.08062 0.02723,0.170132 0.0605,0.198898 0.06582,0.0569 0.231167,0.02275 0.231167,-0.04775 0,-0.024 0.0494,-0.0031 0.109786,0.04632 0.08471,0.0694 0.16981,0.08996 0.372541,0.08996 0.144515,0 0.275036,-0.0207 0.290047,-0.046 0.01747,-0.02946 0.04543,-0.02016 0.07771,0.02582 0.02983,0.0425 0.092,0.06571 0.15225,0.05685 0.07826,-0.01151 0.104985,-0.04511 0.115455,-0.145182 0.02055,-0.196489 0.09054,-0.240856 0.09054,-0.0574 0,0.295466 0.242642,0.348623 0.309432,0.06779 0.04472,-0.188076 0.116749,-0.222705 0.08151,-0.0392 -0.02277,0.118607 0.06113,0.267521 0.150719,0.267521 0.04617,0 0.166667,-0.125343 0.166667,-0.173373 0,-0.02033 0.05481,0.02013 0.121795,0.08991 0.09952,0.103673 0.157052,0.12687 0.314626,0.12687 0.180655,0 0.196643,-0.0095 0.253205,-0.150515 z m -4.029103,-0.0061 c 0.108466,-0.07914 0.394826,-0.698465 0.362955,-0.784982 -0.03111,-0.08445 -0.151813,-0.0685 -0.256437,0.03389 l -0.0925,0.09052 -0.02755,-0.09042 c -0.03661,-0.120154 -0.226576,-0.170636 -0.291905,-0.07757 -0.04403,0.06273 -0.05481,0.0617 -0.114523,-0.01094 -0.05146,-0.0626 -0.1533777,-0.08702 -0.4646554,-0.111328 -0.2193093,-0.01713 -0.4260434,-0.02023 -0.45941,-0.0069 -0.064118,0.02563 -0.12545,0.334273 -0.1015039,0.510792 0.011264,0.08302 0.039049,0.104451 0.1354087,0.104451 0.1050897,0 0.1280967,-0.02313 0.1727151,-0.17361 l 0.051472,-0.173612 0.005,0.15191 c 0.00667,0.201119 0.054695,0.271135 0.1739392,0.253363 0.074224,-0.01106 0.1095217,-0.05652 0.1441814,-0.185662 0.029269,-0.109056 0.05745,-0.151546 0.07778,-0.117278 0.017536,0.02955 0.02091,0.08351 0.00754,0.119904 -0.035318,0.09587 0.048368,0.233493 0.141992,0.233493 0.1026389,0 0.1666669,-0.124944 0.1666669,-0.325229 0,-0.196967 0.05727,-0.164951 0.135421,0.07571 0.06495,0.199994 0.05535,0.292917 -0.03027,0.292917 -0.08502,0 -0.10855,0.120469 -0.03791,0.194057 0.08192,0.08533 0.181452,0.08418 0.301609,-0.0035 z m 6.812338,-1.141371 c 0.221092,-0.142337 0.348278,-0.338093 0.426617,-0.656618 0.20655,-0.839838 -0.232409,-1.431625 -1.060966,-1.430352 -0.537383,8.25e-4 -0.892298,0.294866 -1.002605,0.830635 -0.05963,0.289591 -0.05586,0.414511 0.02055,0.682552 0.08276,0.290291 0.317258,0.541812 0.589675,0.632478 0.29924,0.09959 0.827786,0.06938 1.026724,-0.0587 z M 16.51517,13.385276 c -0.119166,-0.06011 -0.181836,-0.215822 -0.181836,-0.451805 0,-0.455708 0.238533,-0.684961 0.555944,-0.534313 0.13069,0.06203 0.194055,0.210397 0.194055,0.45438 0,0.45714 -0.250764,0.691828 -0.568163,0.531738 z m -1.080646,0.416586 c 0.08087,-0.08424 0.09134,-0.489176 0.01339,-0.518049 -0.02864,-0.01061 -0.226343,-0.0369 -0.439327,-0.05841 -0.212983,-0.02151 -0.398166,-0.05049 -0.411515,-0.0644 -0.01335,-0.0139 -2.08e-4,-0.349185 0.02918,-0.745065 0.03191,-0.429742 0.03823,-0.734741 0.01568,-0.756904 -0.05611,-0.05514 -0.529059,-0.09746 -0.593239,-0.05308 -0.07717,0.05336 -0.241775,1.993286 -0.175104,2.063594 0.02536,0.02673 0.359481,0.08037 0.742502,0.11917 0.383022,0.03881 0.709127,0.07298 0.724677,0.07595 0.01555,0.003 0.05774,-0.0253 0.09375,-0.0628 z m -1.860192,-0.15966 c 0.07676,-0.09714 0.106016,-0.444123 0.0421,-0.499372 -0.03151,-0.02723 -0.229899,-0.06309 -0.440877,-0.07968 -0.210979,-0.01659 -0.400975,-0.05198 -0.422214,-0.07863 -0.02388,-0.02997 -0.01555,-0.312267 0.02183,-0.73974 0.04903,-0.560699 0.05039,-0.701029 0.0072,-0.742933 -0.08103,-0.07864 -0.504396,-0.115586 -0.584094,-0.05097 -0.05208,0.04222 -0.08363,0.258394 -0.147241,1.008601 -0.04514,0.532358 -0.06578,0.985933 -0.04665,1.025084 0.02737,0.05603 0.158825,0.08072 0.650369,0.122136 0.338834,0.02855 0.644187,0.05816 0.678561,0.0658 0.13472,0.02993 0.199879,0.02175 0.241,-0.0303 z m -1.914922,-0.15717 c 0.07642,-0.05047 0.11401,-0.379627 0.05221,-0.457194 -0.03192,-0.04006 -0.176771,-0.07165 -0.411682,-0.08978 -0.580778,-0.04482 -0.598457,-0.05122 -0.583542,-0.211304 l 0.01277,-0.137071 0.466768,0.01578 0.466767,0.01578 0.02607,-0.108196 c 0.01434,-0.05951 0.01992,-0.164267 0.0124,-0.232798 -0.01481,-0.134983 -0.05139,-0.146641 -0.669921,-0.213469 -0.22291,-0.02408 -0.239583,-0.03363 -0.239583,-0.13717 v -0.111284 l 0.485041,0.03111 c 0.547622,0.03513 0.554942,0.03163 0.555988,-0.265955 4.75e-4,-0.135582 -0.01782,-0.18735 -0.07228,-0.204497 -0.04011,-0.01263 -0.399846,-0.05356 -0.799426,-0.09095 -0.594513,-0.05564 -0.736308,-0.05778 -0.780445,-0.01181 -0.03518,0.03665 -0.08301,0.395519 -0.137543,1.032034 -0.078153,0.912165 -0.079042,0.979392 -0.01368,1.030104 0.03846,0.02984 0.127287,0.05571 0.197386,0.05749 0.0701,0.0018 0.371202,0.02835 0.669119,0.05904 0.707194,0.07285 0.699338,0.07254 0.763577,0.03012 z M 9.6196136,13.208174 C 9.6664896,13.074397 9.8070591,11.283553 9.7749349,11.22941 9.7607409,11.20548 9.6243464,11.17199 9.4718416,11.15498 9.1555834,11.1197 9.0833331,11.16911 9.0833331,11.420685 c 0,0.076 -0.011717,0.199224 -0.026038,0.273823 -0.024331,0.126733 -0.037826,0.135634 -0.2056204,0.135634 -0.098769,0 -0.2278431,-0.01912 -0.2868323,-0.04248 -0.1046434,-0.04144 -0.1066121,-0.04965 -0.080931,-0.337486 0.019981,-0.223992 0.012551,-0.306387 -0.03088,-0.342268 -0.073866,-0.06103 -0.505986,-0.105402 -0.5775773,-0.05931 -0.053929,0.03472 -0.1174913,0.584503 -0.1889337,1.634192 -0.033903,0.49813 -0.056089,0.464138 0.3343129,0.512212 0.1145832,0.01411 0.2322663,0.0092 0.2615176,-0.01098 0.029253,-0.02015 0.063062,-0.142586 0.075145,-0.272081 0.012074,-0.129495 0.031658,-0.301559 0.04351,-0.382366 l 0.021553,-0.146922 0.2506008,0.02728 c 0.1378299,0.01501 0.2659821,0.03719 0.284781,0.04929 0.018798,0.0121 0.023926,0.1778 0.011399,0.368216 -0.029221,0.444099 -0.00421,0.478394 0.3492969,0.478394 0.2387258,0 0.2703586,-0.01026 0.30098,-0.09766 z"
       id="path16"
       inkscape:connector-curvature="0" />
    <path
       style="display:inline;fill:#fe0101;stroke-width:0.0524877;filter:url(#filter43)"
       d="M 24.826681,24.669296 C 23.694284,24.562144 23.429467,24.538933 16.46521,23.936413 13.786139,23.70463 11.176188,23.478702 10.66532,23.43435 10.154451,23.389999 9.4766539,23.331419 9.1591034,23.304172 8.8415528,23.276925 8.1683981,23.218702 7.663204,23.174788 7.1580099,23.130873 6.0733789,23.036609 5.2529132,22.965313 3.9100245,22.848618 3.7339181,22.822355 3.4882058,22.702139 3.3198362,22.619764 3.1645519,22.493395 3.0829233,22.372324 2.9346647,22.152429 2.8061647,21.79307 2.8574533,21.741781 c 0.030811,-0.03081 0.8220132,0.02707 3.0474128,0.222952 0.4618917,0.04066 1.1232367,0.09839 1.4696555,0.128297 0.3464188,0.02991 2.1414981,0.185236 3.9890654,0.345173 1.847567,0.159937 4.032367,0.348607 4.855112,0.419266 0.822744,0.07066 1.92105,0.165473 2.440678,0.210696 0.519628,0.04522 1.204592,0.104516 1.522143,0.131763 0.317551,0.02725 1.002515,0.0863 1.522143,0.13122 0.519628,0.04492 1.216403,0.104993 1.548387,0.133487 0.331985,0.02849 0.99333,0.08569 1.469656,0.127092 0.476326,0.04141 1.18491,0.100602 1.574631,0.131546 0.932637,0.07405 0.959302,0.08063 0.916414,0.225988 -0.06941,0.235258 -0.290409,0.507835 -0.521561,0.6433 -0.315123,0.184674 -0.599927,0.196396 -1.864509,0.07673 z m 2.834336,-11.004029 c -0.07217,-0.01006 -0.827993,-0.07696 -1.679606,-0.148672 C 24.580579,13.398642 10.727436,12.205323 9.2115911,12.072032 8.8651722,12.041571 7.497103,11.922744 6.1714369,11.807973 4.8457706,11.693201 3.7514746,11.589637 3.7396679,11.577831 c -0.011807,-0.01181 0.00352,-0.312846 0.034053,-0.668977 0.2944465,-3.4340542 0.386181,-4.4038641 0.4336007,-4.5839945 0.074478,-0.282914 0.4697724,-0.6750543 0.7713809,-0.765225 0.231964,-0.06935 0.6428837,-0.03969 6.2536645,0.4513795 0.476326,0.041689 2.637507,0.2290773 4.802625,0.4164174 2.165117,0.1873402 4.208201,0.3641366 4.540186,0.392881 0.564599,0.048884 1.03857,0.089805 3.398578,0.2934198 0.512411,0.044209 1.191471,0.1029153 1.509022,0.1304582 0.31755,0.027543 0.884417,0.07469 1.259704,0.1047728 0.938286,0.075211 1.131445,0.1261899 1.411212,0.3724511 0.343835,0.3026551 0.421825,0.5491725 0.384565,1.2155563 -0.0296,0.5293416 -0.320189,3.9504764 -0.381105,4.4867584 -0.03069,0.270221 -0.03453,0.275408 -0.19811,0.267696 -0.09174,-0.0043 -0.225856,-0.0161 -0.298027,-0.02616 z m -7.504145,-1.542205 c 0.09037,-0.09037 0.101534,-0.14822 0.07343,-0.380536 -0.04653,-0.384632 -0.165024,-0.478208 -0.560283,-0.442458 -0.291307,0.02635 -0.300552,0.0233 -0.272186,-0.08972 0.03783,-0.150714 -0.08409,-0.253131 -0.275094,-0.231092 -0.137718,0.01589 -0.150427,0.03916 -0.2099,0.384329 -0.100338,0.582344 -0.09086,0.70122 0.06146,0.770621 0.0932,0.04246 0.16614,0.04388 0.251737,0.0049 0.0902,-0.0411 0.145538,-0.03662 0.219983,0.01782 0.155947,0.114032 0.583323,0.09369 0.710849,-0.03384 z m -1.910174,-0.09106 c 0.102032,-0.06589 0.229862,-0.436642 0.196449,-0.569769 -0.0724,-0.288463 -0.580668,-0.447492 -0.835251,-0.261337 -0.08916,0.0652 -0.117962,0.05883 -0.254849,-0.05635 -0.09703,-0.08165 -0.193563,-0.119598 -0.260017,-0.10222 -0.05813,0.0152 -0.279672,0.0056 -0.492317,-0.02138 -0.274994,-0.03486 -0.414169,-0.03182 -0.482014,0.01055 -0.07464,0.04661 -0.12234,0.04069 -0.219322,-0.02724 -0.14066,-0.09852 -0.526315,-0.115471 -0.685761,-0.03014 -0.08057,0.04312 -0.126815,0.03852 -0.193379,-0.01922 -0.04812,-0.04174 -0.233909,-0.09037 -0.412869,-0.108075 -0.444431,-0.04396 -0.497529,0.01274 -0.477235,0.509577 0.01501,0.367363 0.01815,0.374933 0.162817,0.391521 0.08113,0.0093 0.178382,-0.0087 0.216108,-0.04001 0.05068,-0.04206 0.08689,-0.03489 0.138635,0.02747 0.05256,0.06333 0.121272,0.0762 0.275269,0.05158 0.112875,-0.01805 0.233156,-0.0096 0.26729,0.01869 0.03414,0.02833 0.344453,0.06175 0.689596,0.07428 0.345143,0.01252 0.662962,0.03673 0.706265,0.0538 0.0433,0.01707 0.161399,0.02907 0.262438,0.02667 0.101039,-0.0024 0.244932,0.01201 0.319764,0.03201 0.0902,0.02411 0.161841,0.01058 0.212567,-0.04015 0.06702,-0.06702 0.09155,-0.06433 0.197807,0.02171 0.123716,0.10018 0.545958,0.136873 0.668009,0.05805 z M 13.198783,11.91542 c 0.09932,-0.03776 0.193033,-0.16916 0.346252,-0.485512 0.11554,-0.238554 0.203418,-0.480974 0.195285,-0.538711 -0.01756,-0.124671 -0.268041,-0.173476 -0.386359,-0.07528 -0.06108,0.05069 -0.09731,0.04473 -0.179346,-0.02951 -0.07367,-0.06668 -0.153437,-0.08482 -0.281505,-0.06404 -0.09829,0.01595 -0.199203,0.0088 -0.22426,-0.01588 -0.02506,-0.02468 -0.307937,-0.06132 -0.628621,-0.08143 -0.446665,-0.028 -0.592698,-0.02096 -0.624251,0.03009 -0.02265,0.03665 -0.05261,0.226324 -0.06658,0.421488 -0.02343,0.327517 -0.01628,0.35972 0.09289,0.418146 0.08932,0.04781 0.150215,0.04875 0.248734,0.0039 0.09776,-0.04454 0.148825,-0.04419 0.203756,0.0014 0.04224,0.03506 0.150545,0.0483 0.255602,0.03125 0.100265,-0.01627 0.195937,-0.0075 0.212604,0.01945 0.01667,0.02697 0.09977,0.04903 0.184669,0.04903 0.117872,0 0.154365,0.02411 0.154365,0.101999 0,0.103629 0.181004,0.265415 0.296944,0.265415 0.035,0 0.124917,-0.0233 0.199816,-0.05178 z m -0.423644,-0.451151 c 0.01752,-0.04566 0.03222,-0.122426 0.03266,-0.170585 6.93e-4,-0.07571 0.0077,-0.07691 0.05168,-0.0088 0.07873,0.121823 0.06166,0.262439 -0.03186,0.262439 -0.05535,0 -0.07339,-0.02854 -0.05249,-0.08303 z m 8.928524,-0.908985 C 22.141515,10.352129 22.393602,9.9521877 22.447482,9.3752025 22.505816,8.7505112 22.267067,8.2796861 21.758928,8.0173447 21.493079,7.880092 20.788156,7.8293694 20.494306,7.9263489 c -0.281205,0.092806 -0.630622,0.4338008 -0.74305,0.7251406 -0.130852,0.3390821 -0.128731,1.0176651 0.004,1.2686854 0.181925,0.3441451 0.459213,0.5761561 0.819617,0.6857861 0.264415,0.08043 0.908579,0.05151 1.128825,-0.05068 z M 20.750455,9.7328096 C 20.629105,9.6114601 20.617841,9.566643 20.638144,9.2859592 c 0.02774,-0.3835391 0.163402,-0.5920066 0.400616,-0.6156277 0.356787,-0.035527 0.522083,0.3603958 0.373632,0.8949337 -0.09023,0.3248773 -0.420905,0.4085768 -0.661937,0.1675444 z m -1.255024,0.6822494 c 0.05622,-0.05622 0.08248,-0.180432 0.08248,-0.390121 0,-0.3596376 0.02273,-0.3451027 -0.645637,-0.4128486 -0.253855,-0.02573 -0.473587,-0.058815 -0.488293,-0.073522 -0.01471,-0.014706 0.003,-0.4206128 0.03935,-0.9020152 0.07614,-1.0083548 0.101378,-0.9476948 -0.417402,-1.0032515 -0.266446,-0.028534 -0.350865,-0.019306 -0.415602,0.045431 -0.06085,0.060845 -0.105468,0.3556729 -0.177757,1.1744626 -0.124232,1.4071187 -0.124678,1.3733507 0.01895,1.4341367 0.06495,0.02749 0.47239,0.08298 0.905413,0.123319 1.053167,0.0981 1.00499,0.09791 1.098493,0.0044 z m -2.341755,-0.194392 c 0.07826,-0.0943 0.128836,-0.5744585 0.06976,-0.6622877 -0.05606,-0.083337 -0.430207,-0.1553494 -0.83105,-0.1599526 -0.149855,-0.00172 -0.282797,-0.020843 -0.295428,-0.042495 -0.01263,-0.021651 0.01173,-0.4261109 0.05413,-0.8987994 0.06443,-0.7182595 0.06554,-0.870373 0.0067,-0.9260326 C 16.0511,7.4300604 15.42522,7.3799063 15.318062,7.4638063 c -0.06961,0.0545 -0.104049,0.268252 -0.171671,1.0654446 -0.04653,0.5484965 -0.09695,1.0949233 -0.112059,1.2142819 -0.04184,0.3306122 0.02027,0.3632882 0.826981,0.4350302 0.384205,0.03417 0.757604,0.06914 0.829775,0.07771 0.302582,0.03594 0.410076,0.02767 0.462588,-0.03561 z M 14.772311,9.9609836 c 0.09831,-0.1403626 0.108088,-0.5309383 0.01522,-0.6080154 -0.03657,-0.03035 -0.27867,-0.070062 -0.537999,-0.088247 -0.668716,-0.046892 -0.717675,-0.060874 -0.697987,-0.1993267 0.01608,-0.1130958 0.03166,-0.1157218 0.575663,-0.097024 0.520385,0.017886 0.563125,0.011759 0.61673,-0.088403 0.08122,-0.1517508 0.07158,-0.4574807 -0.01673,-0.5307713 -0.05676,-0.047106 -0.746269,-0.1532001 -1.041033,-0.1601825 -0.02165,-5.249e-4 -0.03937,-0.038353 -0.03937,-0.084088 0,-0.073107 0.06972,-0.078636 0.577,-0.045758 0.697331,0.045196 0.735192,0.025876 0.735192,-0.3751459 0,-0.3279956 0.04134,-0.3071039 -0.761072,-0.3845857 -1.219035,-0.1177105 -1.367029,-0.1219247 -1.434321,-0.040842 -0.03647,0.043946 -0.09653,0.4563669 -0.140168,0.9624596 -0.04199,0.4870596 -0.09105,1.0291751 -0.109015,1.2047013 -0.03813,0.3724937 0.03603,0.4919179 0.309452,0.4983392 0.09176,0.00216 0.473888,0.034283 0.849175,0.071397 1.001865,0.099077 1.005786,0.098955 1.099266,-0.034506 z m -2.599033,-0.271056 c 0.02231,-0.061008 0.0831,-0.6261588 0.135078,-1.255892 0.111112,-1.346068 0.128476,-1.2911648 -0.422331,-1.3353784 -0.4039,-0.032421 -0.496194,0.029299 -0.496194,0.3318231 0,0.091913 -0.01476,0.2409248 -0.0328,0.331138 -0.02881,0.1440625 -0.05395,0.1640241 -0.206534,0.1640241 -0.09555,0 -0.233031,-0.022547 -0.305512,-0.050104 C 10.717578,7.8270984 10.7142,7.8135544 10.743207,7.4675526 10.779677,7.0324799 10.756337,7.0068586 10.27816,6.957212 9.7890534,6.906431 9.7941001,6.8948197 9.6796433,8.334362 c -0.08055,1.013085 -0.082974,1.1794972 -0.018092,1.2422452 0.041204,0.03985 0.2295953,0.088459 0.4186467,0.1080192 0.431119,0.044607 0.470381,0.00492 0.522584,-0.5282367 0.02126,-0.2171847 0.053,-0.4092151 0.07052,-0.4267339 0.01752,-0.017518 0.156382,-0.010727 0.308584,0.015091 l 0.276731,0.046943 -0.0164,0.3149262 c -0.009,0.1732094 -0.02685,0.3515946 -0.03961,0.3964112 -0.04775,0.1676536 0.111131,0.2826064 0.431566,0.312243 0.3887,0.035951 0.488624,0.012718 0.539116,-0.1253422 z"
       id="path14"
       inkscape:connector-curvature="0"
       transform="matrix(0.7938368,0,0,0.82691334,0,5.232914)" />
  </g>
</svg>
