<?xml version="1.0" standalone="no"?>
<!DOCTYPE svg PUBLIC "-//W3C//DTD SVG 20010904//EN"
 "http://www.w3.org/TR/2001/REC-SVG-20010904/DTD/svg10.dtd">
<svg version="1.0" xmlns="http://www.w3.org/2000/svg"
 width="635.000000pt" height="540.000000pt" viewBox="0 0 635.000000 540.000000"
 preserveAspectRatio="xMidYMid meet">
<metadata>
Created by potrace 1.15, written by Peter Selinger 2001-2017
</metadata>
<g transform="translate(0.000000,540.000000) scale(0.100000,-0.100000)"
fill="#000000" stroke="none">
<path d="M370 5370 c0 -22 -5 -30 -17 -30 -36 0 -125 -51 -177 -99 -57 -54
-105 -141 -114 -203 -4 -34 -8 -38 -33 -38 l-29 0 0 -2280 0 -2280 29 0 c25 0
29 -4 33 -38 14 -103 115 -228 225 -280 l58 -27 2340 0 2340 0 58 27 c114 54
204 168 227 289 14 72 14 4548 0 4620 -15 78 -56 152 -117 210 -51 48 -140 99
-175 99 -13 0 -18 8 -18 30 l0 30 -2315 0 -2315 0 0 -30z m1071 -712 c95 -47
177 -130 222 -225 l32 -68 0 -166 0 -165 -38 -76 c-60 -122 -142 -195 -269
-239 -86 -31 -285 -33 -368 -5 -195 66 -308 215 -326 429 -17 216 66 402 222
493 97 57 135 64 300 62 l150 -3 75 -37z m2385 -1169 c446 -49 681 -286 759
-764 28 -168 35 -480 28 -1217 l-6 -718 -438 0 -438 0 -3 768 c-4 750 -4 769
-25 844 -42 147 -101 226 -206 274 -191 86 -430 -20 -507 -226 -53 -144 -53
-141 -57 -927 l-4 -733 -440 0 -439 0 0 1320 0 1320 425 0 425 0 0 -116 0
-117 22 28 c60 76 231 188 353 230 125 43 349 57 551 34z m-2186 -1379 l0
-1320 -440 0 -440 0 0 1320 0 1320 440 0 440 0 0 -1320z"/>
</g>
</svg>
