<?xml version="1.0" standalone="no"?>
<!DOCTYPE svg PUBLIC "-//W3C//DTD SVG 20010904//EN"
 "http://www.w3.org/TR/2001/REC-SVG-20010904/DTD/svg10.dtd">
<svg version="1.0" xmlns="http://www.w3.org/2000/svg"
 width="2212.000000pt" height="540.000000pt" viewBox="0 0 2212.000000 540.000000"
 preserveAspectRatio="xMidYMid meet">
<metadata>
Created by potrace 1.15, written by Peter Selinger 2001-2017
</metadata>
<g transform="translate(0.000000,540.000000) scale(0.100000,-0.100000)"
fill="#000000" stroke="none">
<path d="M16140 5370 c0 -22 -5 -30 -17 -30 -37 0 -140 -59 -185 -106 -60 -63
-95 -133 -108 -220 -7 -48 -10 -771 -8 -2339 l3 -2270 23 -58 c44 -108 135
-199 237 -234 47 -17 184 -18 2375 -18 l2325 0 57 23 c67 27 155 103 192 167
60 101 56 -50 54 2461 l-3 2299 -22 54 c-12 29 -35 72 -50 94 -36 52 -129 121
-187 138 -40 12 -46 17 -46 41 l0 28 -2320 0 -2320 0 0 -30z m1025 -689 c224
-79 341 -294 307 -564 -21 -172 -111 -301 -261 -375 l-75 -37 -165 0 -166 0
-68 32 c-95 45 -178 127 -225 222 l-37 75 0 165 0 166 36 75 c67 141 184 230
339 260 76 15 248 4 315 -19z m2478 -1196 c437 -66 648 -304 723 -819 14 -94
17 -245 21 -993 l5 -883 -446 0 -446 0 0 724 c0 464 -4 753 -11 803 -28 205
-115 334 -253 376 -65 19 -182 13 -249 -12 -145 -56 -227 -173 -269 -381 -6
-35 -12 -319 -15 -783 l-4 -727 -440 0 -439 0 0 1325 0 1325 425 0 425 0 0
-118 0 -118 60 58 c111 108 262 189 415 221 94 21 370 21 498 2z m-2233 -1370
l0 -1325 -440 0 -440 0 0 1325 0 1325 440 0 440 0 0 -1325z"/>
<path d="M3081 4608 c-114 -20 -251 -118 -311 -223 -16 -28 -37 -80 -46 -115
-14 -55 -14 -73 -4 -120 31 -139 125 -255 257 -318 67 -31 88 -36 148 -36 220
0 445 253 404 454 -6 30 -27 85 -46 122 -79 152 -264 261 -402 236z"/>
<path d="M0 2720 l0 -1840 1160 0 1160 0 0 335 0 335 -765 0 -765 0 0 1505 0
1505 -395 0 -395 0 0 -1840z"/>
<path d="M6880 2720 l0 -1840 355 0 355 0 0 625 0 625 53 0 54 0 416 -625 417
-625 421 0 421 0 -24 33 c-14 17 -226 303 -471 634 l-447 602 0 61 0 61 441
502 c243 276 458 519 478 540 l35 37 -404 0 -405 -1 -440 -509 -439 -510 -53
0 -53 0 0 1115 0 1115 -355 0 -355 0 0 -1840z"/>
<path d="M14240 3825 l0 -735 -47 0 c-47 0 -50 2 -138 88 -73 71 -108 97 -185
135 -170 84 -414 129 -589 108 -511 -62 -895 -458 -1013 -1044 -32 -156 -31
-405 0 -554 121 -563 512 -927 1067 -993 161 -19 322 9 481 84 145 69 274 166
345 260 33 44 36 45 87 46 l52 0 0 -170 0 -170 320 0 320 0 0 1840 0 1840
-350 0 -350 0 0 -735z m-423 -1020 c222 -42 385 -190 455 -415 21 -67 23 -94
23 -265 0 -171 -2 -197 -23 -265 -64 -203 -181 -327 -370 -393 -80 -28 -100
-31 -247 -35 -192 -5 -272 9 -390 67 -125 62 -215 160 -273 297 -50 119 -66
350 -37 519 44 253 220 439 460 489 93 19 303 20 402 1z"/>
<path d="M10665 3419 c-362 -26 -708 -184 -938 -429 -360 -383 -446 -942 -217
-1417 85 -178 182 -303 326 -422 206 -170 442 -273 729 -316 390 -59 812 78
1110 358 77 73 79 76 60 90 -11 9 -111 82 -223 164 l-203 149 -73 -72 c-134
-131 -303 -194 -524 -194 -201 0 -334 52 -463 180 -106 105 -169 239 -169 363
l0 47 920 0 920 0 0 153 c-1 456 -131 806 -391 1052 -224 211 -535 317 -864
294z m113 -479 c263 -25 439 -222 441 -492 l1 -78 -570 0 -570 0 0 53 c1 165
94 338 234 431 126 84 251 107 464 86z"/>
<path d="M5325 3393 c-95 -20 -204 -67 -290 -124 -74 -50 -198 -172 -231 -228
-17 -29 -22 -31 -71 -31 l-53 0 0 170 0 170 -335 0 -335 0 0 -1235 0 -1235
350 0 349 0 4 743 c4 819 3 806 68 949 41 87 122 166 206 199 49 19 83 23 210
27 134 4 161 2 222 -17 128 -39 206 -138 247 -311 16 -67 18 -155 21 -832 l4
-758 350 0 350 0 -4 818 c-3 719 -5 829 -21 920 -81 482 -294 714 -716 777
-119 19 -234 18 -325 -2z"/>
<path d="M2770 2115 l0 -1235 355 0 355 0 0 1235 0 1235 -355 0 -355 0 0
-1235z"/>
</g>
</svg>
