<?xml version="1.0" standalone="no"?>
<!DOCTYPE svg PUBLIC "-//W3C//DTD SVG 20010904//EN"
 "http://www.w3.org/TR/2001/REC-SVG-20010904/DTD/svg10.dtd">
<svg version="1.0" xmlns="http://www.w3.org/2000/svg"
 width="512.000000pt" height="512.000000pt" viewBox="0 0 512.000000 512.000000"
 preserveAspectRatio="xMidYMid meet">
<metadata>
Created by potrace 1.15, written by Peter Selinger 2001-2017
</metadata>
<g transform="translate(0.000000,512.000000) scale(0.100000,-0.100000)"
fill="#000000" stroke="none">
<path d="M1350 5091 c0 -23 -5 -30 -27 -36 -42 -10 -117 -47 -126 -62 -4 -7
-19 -13 -32 -13 -20 0 -25 -5 -25 -25 0 -14 -7 -28 -15 -31 -8 -4 -15 -12 -15
-20 0 -8 -4 -14 -8 -14 -4 0 -18 -31 -30 -68 l-22 -68 0 -2196 c0 -2169 0
-2196 20 -2253 11 -32 20 -66 20 -77 0 -10 5 -18 12 -18 12 0 88 -78 88 -92 0
-4 6 -8 13 -8 6 0 35 -11 62 -25 28 -13 58 -25 68 -25 12 0 17 -8 17 -30 l0
-30 1205 0 1205 0 0 28 c0 25 6 31 39 40 21 7 48 12 60 12 12 0 21 6 21 15 0
8 7 15 15 15 8 0 15 5 15 10 0 6 6 10 13 10 19 0 77 63 77 83 0 9 7 17 15 17
9 0 15 9 15 21 0 11 7 44 15 73 13 46 15 315 13 2256 l-3 2205 -30 64 c-46
101 -140 182 -237 206 -23 6 -28 13 -28 36 l0 29 -1205 0 -1205 0 0 -29z
m2460 -931 c0 -5 14 -10 30 -10 l30 0 0 -1606 0 -1607 -82 6 c-46 4 -640 7
-1320 7 l-1238 0 0 1610 0 1610 1290 0 c853 0 1290 -3 1290 -10z m-1085 -3410
c20 -13 35 -30 35 -41 0 -12 7 -19 20 -19 39 0 60 -69 60 -195 0 -132 -14
-171 -84 -232 -59 -52 -125 -68 -239 -60 -95 8 -147 30 -147 62 0 18 -6 24
-27 27 -22 2 -33 13 -50 48 -20 38 -23 60 -23 155 0 128 15 171 75 224 65 57
86 62 223 57 103 -4 128 -8 157 -26z"/>
</g>
</svg>
